<?xml version="1.0" encoding="UTF-8"?>
<svg width="26px" height="28px" viewBox="0 0 26 28" version="1.1" xmlns="http://www.w3.org/2000/svg" xmlns:xlink="http://www.w3.org/1999/xlink">
    <!-- Generator: sketchtool 58 (101010) - https://sketch.com -->
    <title>8738EE7E-FAFF-4D06-B63F-70DF569DB83B</title>
    <desc>Created with sketchtool.</desc>
    <g id="Design" stroke="none" stroke-width="1" fill="none" fill-rule="evenodd">
        <g id="UI-Kit-module-6" transform="translate(-277.000000, -191.000000)" fill="#5A5A5A" fill-rule="nonzero">
            <g id="atom/icons/40px/a-icon-search" transform="translate(270.000000, 185.000000)">
                <g id="search" transform="translate(7.000000, 6.000000)">
                    <path d="M25.8579207,27.1050108 L18.2826985,18.9359212 C20.2148671,16.9265567 21.4118939,14.1564777 21.4118939,11.1014613 C21.4118939,4.97979836 16.609512,0 10.7059469,0 C4.80238192,0 0,4.97979836 0,11.1014613 C0,17.2231243 4.80238192,22.2029226 10.7059469,22.2029226 C13.2972959,22.2029226 15.6755456,21.2423819 17.5292038,19.6485292 L25.122779,27.8377072 C25.2227012,27.9460786 25.3562706,28 25.4903499,28 C25.6178016,28 25.7447436,27.9508364 25.8436461,27.8525092 C26.0465493,27.6500396 26.052667,27.3154099 25.8579207,27.1050108 Z M10.7059469,21.1456406 C5.36469903,21.1456406 1.01961399,16.6400332 1.01961399,11.1014613 C1.01961399,5.5628894 5.36469903,1.05728203 10.7059469,1.05728203 C16.0471949,1.05728203 20.3922799,5.5628894 20.3922799,11.1014613 C20.3922799,16.6400332 16.0466851,21.1456406 10.7059469,21.1456406 Z" id="Shape"></path>
                </g>
            </g>
        </g>
    </g>
</svg>