<?xml version="1.0" encoding="UTF-8"?>
<svg width="47px" height="50px" viewBox="0 0 47 50" version="1.1" xmlns="http://www.w3.org/2000/svg" xmlns:xlink="http://www.w3.org/1999/xlink">
    <!-- Generator: sketchtool 58 (101010) - https://sketch.com -->
    <title>C647DDDC-07D9-4458-B292-D7C9A72C75C4</title>
    <desc>Created with sketchtool.</desc>
    <g id="Design" stroke="none" stroke-width="1" fill="none" fill-rule="evenodd">
        <g id="UI-Kit-module-6" transform="translate(-142.000000, -354.000000)" fill="#FFFFFF" fill-rule="nonzero">
            <g id="atom/icons/70px/a-icon-bottles" transform="translate(130.000000, 344.000000)">
                <g id="bottles" transform="translate(12.000000, 10.000000)">
                    <path d="M47,17.9243628 L47,16.9809954 C47,12.5468251 44.353374,10.3770418 42.4628176,8.77335533 C42.2736091,8.58491068 41.8955743,8.30186235 41.6119526,7.92459169 C41.422744,7.73576559 41.422744,7.45271717 41.422744,7.26389107 C41.422744,6.79239818 41.7063658,6.32052366 42.0844006,6.03785677 L42.1791959,5.943253 C42.2736091,5.84903067 42.3684045,5.75480844 42.4628176,5.66020467 C42.4628176,5.66020467 42.5572307,5.56598234 42.5572307,5.47176001 C42.6520261,5.37715624 42.7464393,5.18871159 42.8408525,5.09410782 C42.8408525,4.99988559 42.9356479,4.99988559 42.9356479,4.90528182 C43.030061,4.71683716 43.030061,4.62223339 43.1244741,4.43378883 L43.1244741,4.3395665 C43.1244741,4.1507404 43.2192695,3.96191431 43.2192695,3.67924742 L43.2192695,2.83010234 C43.2188873,1.22641584 41.9899874,0 40.3830527,0 L29.9846105,0 C28.3776758,0 27.1487759,1.22641584 27.1487759,2.83010234 L27.1487759,3.77346975 C27.1487759,3.96229585 27.1487759,4.24534418 27.2431891,4.43417027 L27.2431891,4.5283926 C27.2431891,4.7172187 27.3379844,4.81144093 27.4323976,4.99988559 L27.527193,5.09448936 C27.6216062,5.28293392 27.7160193,5.37753769 27.8108147,5.47176001 L27.9052278,5.56598234 C27.999641,5.75480844 28.1888495,5.84903067 28.3776758,5.94363444 C28.7560929,6.22668287 29.0393323,6.69817585 29.1341277,7.07582795 C29.1341277,7.35887638 29.1341277,7.64154327 28.9449191,7.83036936 C28.7557107,8.01919546 28.6612975,8.11341769 28.6612975,8.20764002 C28.4720889,8.39646612 28.1888495,8.58529212 27.999641,8.77373678 C26.0142892,10.3774233 23.3676633,12.5472065 23.3676633,16.9813768 L23.3676633,27.641467 C21.6663154,26.2266066 21.099072,25.0001907 20.9098635,24.245268 C21.8551416,23.7737749 22.5167982,22.8304075 22.5167982,21.698214 C22.5167982,20.0945275 21.2882806,18.8681117 19.6809636,18.8681117 L8.33724319,18.8681117 C6.7303085,18.8681117 5.50140862,20.094146 5.50140862,21.698214 C5.50140862,22.8304075 6.25747832,23.8679972 7.20275648,24.3398717 C7.01393023,25.094413 6.3522737,26.3208289 4.74533902,27.641467 C1.05863936,30.7546177 -0.170260426,35.188788 0.018565818,39.1510837 L0.018565818,39.4341322 C0.018565818,39.9056252 0.113361204,40.2828958 0.207774375,40.7547702 C0.207774375,40.8489926 0.207774375,40.9435963 0.302187546,41.1320409 C0.396982931,41.5096931 0.491396102,41.8869637 0.585809175,42.2642344 L0.585809175,42.4530605 C0.680604561,42.7361089 0.775017732,43.1133796 0.869813118,43.3964279 C0.869813118,43.4906502 0.964226289,43.6794763 1.05863936,43.7736987 L1.05863936,43.8683024 L1.24784792,44.3397954 C2.8547826,47.8302167 5.87982573,50 9.47211212,50 L18.5468591,50 C20.6262418,50 22.5171804,49.2454587 24.1241151,47.9248205 C24.9749802,49.1512364 26.2982931,50 27.9052278,50 L42.4628176,50 C44.9206173,50 47,48.0190428 47,45.4719889 L47,17.9243628 Z M2.47636559,42.3580753 C2.38195242,42.0750269 2.28753925,41.8865823 2.28753925,41.603534 C2.19274386,41.4147079 2.19274386,41.3204856 2.19274386,41.1316595 C2.19274386,40.9432149 2.09833069,40.8486111 2.09833069,40.6601665 C2.00391762,39.9056252 1.90912223,39.1507023 1.90912223,38.396161 C1.90912223,37.5470158 2.00391762,36.6036484 2.19274386,35.6602809 C2.19274386,35.6602809 2.19274386,35.6602809 2.19274386,35.5656771 C2.19274386,35.3772326 2.28753925,35.1884065 2.28753925,34.9053581 C2.28753925,34.8111358 2.38195242,34.6223097 2.38195242,34.5280874 C2.47636559,34.3392614 2.47636559,34.1508167 2.57116097,33.9619907 C2.66557415,33.7735461 2.75998722,33.58472 2.75998722,33.3962754 C2.75998722,33.3016716 2.8547826,33.2074493 2.8547826,33.1128455 L10.8898382,33.1128455 C11.4566994,33.1128455 11.8351165,33.4904976 11.8351165,34.0565945 L11.8351165,41.603534 C11.8351165,42.1696306 11.4566994,42.5469014 10.8898382,42.5469014 L2.38195242,42.5469014 C2.57116097,42.4522976 2.47636559,42.3580753 2.47636559,42.3580753 L2.47636559,42.3580753 Z M25.0693932,43.5844911 C24.9745978,43.7733172 24.8801848,44.0563656 24.7857716,44.2448101 C24.7857716,44.3394139 24.6909762,44.4336362 24.6909762,44.4336362 C24.4073546,44.9051292 24.1237329,45.3770036 23.7456981,45.7542744 L23.4620763,46.0373227 C22.1387634,47.4525646 20.4370333,48.207106 18.5464769,48.207106 L9.47172991,48.207106 C6.91951706,48.207106 4.74533902,46.7922456 3.42164375,44.4336362 L11.0786646,44.4336362 C12.6855993,44.4336362 13.9148814,43.2072204 13.9148814,41.603534 L13.9148814,34.0562129 C13.9148814,32.4525264 12.6859815,31.2261106 11.0786646,31.2261106 L3.9888871,31.2261106 C4.55613046,30.4711879 5.12337382,29.7166464 5.87944352,29.1505497 C8.05362156,27.3580372 8.71566021,25.6601284 8.99889972,24.6225386 L10.2277996,24.6225386 C10.7950429,24.6225386 11.1730778,24.2448864 11.1730778,23.6791711 C11.1730778,23.1130745 10.7950429,22.7358037 10.2277996,22.7358037 L8.24283002,22.7358037 C7.67558666,22.7358037 7.29755186,22.3581516 7.29755186,21.7920548 C7.29755186,21.2263395 7.67558666,20.8486874 8.24283002,20.8486874 L19.5865504,20.8486874 C20.1534116,20.8486874 20.5318287,21.2263395 20.5318287,21.7920548 C20.5318287,22.3581516 20.1534116,22.7358037 19.5865504,22.7358037 L15.0489859,22.7358037 C14.4817425,22.7358037 14.1037076,23.1130745 14.1037076,23.6791711 C14.1037076,24.2448864 14.4817425,24.6225386 15.0489859,24.6225386 L18.9245118,24.6225386 C19.2085156,25.6601284 19.8701722,27.3584186 22.043968,29.1505497 C22.5167982,29.5282019 22.9896284,29.9996949 23.3676633,30.4711879 L23.4620763,30.6600139 C23.6512849,30.9430623 23.8401111,31.2261106 24.1237329,31.509159 C24.218146,31.6033814 24.218146,31.6979851 24.3129414,31.8864297 C24.4073546,32.0752558 24.5017677,32.1694781 24.596563,32.3583041 C24.6909762,32.5467488 24.8801848,32.8297972 24.9745978,33.0186232 L24.9745978,33.1128455 C26.0146715,35.3768511 26.2979109,38.0185088 26.0146715,40.3767367 C26.0146715,40.5655627 25.9198761,40.8486111 25.9198761,41.0374371 C25.9198761,41.2258818 25.8254629,41.4147079 25.8254629,41.6031524 C25.8254629,41.6977562 25.8254629,41.7919785 25.7310498,41.8862009 C25.6362544,42.3580753 25.4474281,42.8295683 25.2582196,43.3014427 C25.1634242,43.3014427 25.1634242,43.3960465 25.0693932,43.5844911 L25.0693932,43.5844911 Z M45.1094437,40.5655627 L36.6015578,40.5655627 L36.6015578,19.8110977 L45.1094437,19.8110977 L45.1094437,40.5655627 Z M45.1094437,17.9243628 L34.7113837,17.9243628 L34.7113837,42.4522976 L45.1094437,42.4522976 L45.1094437,45.471226 C45.1094437,46.8864679 43.974957,48.1128837 42.4624354,48.1128837 L27.9052278,48.1128837 C26.8651543,48.1128837 25.9198761,47.4525646 25.5418413,46.5091971 C26.2034977,45.7542744 26.676328,44.810907 27.1487759,43.7733172 C27.1487759,43.7733172 27.1487759,43.6787135 27.2431891,43.6787135 C27.2431891,43.5844911 27.3379844,43.4898874 27.3379844,43.395665 C27.4323976,43.2068389 27.4323976,43.0183944 27.527193,42.8295683 L27.527193,42.7353459 C28.6612975,38.8676539 28.3776758,33.6789423 25.353015,29.7166464 L25.353015,16.9809954 C25.353015,13.3959702 27.4323976,11.6980613 29.3229539,10.1885972 C29.6065757,9.99977117 29.7957842,9.81094508 29.9846105,9.62250042 C30.0794058,9.52827809 30.2686144,9.33945209 30.3630276,9.24522976 C30.9302709,8.58491068 31.1190972,7.82998792 31.0246841,6.98084274 C31.0246841,6.88662041 30.9302709,6.69779441 30.9302709,6.60357208 L31.3083057,6.60357208 C31.8755491,6.60357208 32.2535839,6.22630133 32.2535839,5.66020467 C32.2535839,5.09410782 31.8755491,4.71683716 31.3083057,4.71683716 L30.0794058,4.71683716 C29.8905796,4.71683716 29.6069579,4.62223339 29.5125447,4.52801116 L29.4177493,4.43378883 C29.3233362,4.33918506 29.3233362,4.24496273 29.2285409,4.1507404 C29.2285409,4.1507404 29.2285409,4.1507404 29.2285409,4.05613663 C29.2285409,3.96191431 29.1341277,3.86769208 29.1341277,3.77308831 L29.1341277,2.8297208 C29.1341277,2.26362414 29.5125447,1.88635338 30.0794058,1.88635338 L40.4778481,1.88635338 C41.0447092,1.88635338 41.4231262,2.26362414 41.4231262,2.8297208 L41.4231262,3.77308831 C41.4231262,3.86769208 41.4231262,4.05613663 41.3283309,4.1507404 C41.3283309,4.1507404 41.3283309,4.24496273 41.2339178,4.24496273 C41.1395046,4.33918506 41.1395046,4.43378883 41.0447092,4.43378883 C40.7610876,4.62223339 40.5722613,4.71683716 40.3830527,4.71683716 L34.9950053,4.71683716 C34.4277619,4.71683716 34.0497271,5.09410782 34.0497271,5.66020467 C34.0497271,6.22630133 34.4277619,6.60357208 34.9950053,6.60357208 L39.6269831,6.60357208 C39.6269831,6.79239818 39.5325699,6.98084274 39.5325699,7.16966884 C39.5325699,8.11303625 39.8161917,8.96218143 40.5722613,9.52789665 C40.7614698,9.71672275 41.0447092,9.90554885 41.3283309,10.0939934 C43.1244741,11.6034576 45.2042391,13.3013664 45.2042391,16.8863916 L45.2042391,17.9243628 L45.1094437,17.9243628 Z" id="Shape"></path>
                </g>
            </g>
        </g>
    </g>
</svg>