<?xml version="1.0" encoding="UTF-8"?>
<svg width="50px" height="50px" viewBox="0 0 50 50" version="1.1" xmlns="http://www.w3.org/2000/svg" xmlns:xlink="http://www.w3.org/1999/xlink">
    <!-- Generator: sketchtool 58 (101010) - https://sketch.com -->
    <title>8949567A-7175-4E47-AEF8-0926C6E4BF29</title>
    <desc>Created with sketchtool.</desc>
    <g id="Design" stroke="none" stroke-width="1" fill="none" fill-rule="evenodd">
        <g id="UI-Kit-module-6" transform="translate(-640.000000, -354.000000)" fill="#FFFFFF" fill-rule="nonzero">
            <g id="atom/icons/70px/a-icon-plate" transform="translate(630.000000, 344.000000)">
                <g id="005-dish" transform="translate(10.000000, 10.000000)">
                    <path d="M25,0 C11.2155914,0 0,11.2155914 0,25 C0,38.7844086 11.2155914,50 25,50 C38.7844086,50 50,38.7844086 50,25 C50,11.2155914 38.78479,0 25,0 Z M25,48.1819152 C12.217331,48.1819152 1.81808477,37.782669 1.81808477,25 C1.81808477,12.217331 12.217331,1.81808477 25,1.81808477 C37.782669,1.81808477 48.1819152,12.217331 48.1819152,25 C48.1819152,37.7830506 37.782669,48.1819152 25,48.1819152 Z" id="Shape"></path>
                    <path d="M28.7257738,24.8567615 L22.1786467,30.0567947 C21.772422,30.3799846 21.7141046,30.9594842 22.0464339,31.3538069 C22.2349669,31.5753234 22.5081799,31.6901408 22.7829907,31.6901408 C22.9954897,31.6901408 23.2087876,31.6221009 23.3865359,31.4813818 L29.9336631,26.2813487 C30.3402871,25.9581589 30.3986045,25.3786592 30.0662751,24.9843366 C29.7319487,24.5915603 29.1331967,24.5343449 28.7257738,24.8567615 L28.7257738,24.8567615 Z" id="Path"></path>
                    <path d="M29.934036,29.8025004 C30.3402529,29.4792657 30.3985692,28.8996859 30.0662463,28.504922 C29.7319261,28.113638 29.1343839,28.0552547 28.7257704,28.3769427 L22.1787685,33.5776954 C21.7721521,33.9009301 21.7142353,34.4805099 22.0465582,34.8748871 C22.2350876,35.0960477 22.5082954,35.2112676 22.7831009,35.2112676 C22.9955959,35.2112676 23.2088898,35.1432182 23.3866346,35.0020931 L29.934036,29.8025004 Z" id="Path"></path>
                    <path d="M32.3453278,27.6745615 L27.0863078,32.1591252 C26.7056913,32.4846742 26.6510502,33.0677063 26.9624297,33.4644327 C27.1390776,33.6869106 27.3950676,33.8028169 27.6529287,33.8028169 C27.8516576,33.8028169 28.0515094,33.7339732 28.2180525,33.5923964 L33.4770725,29.1078328 C33.8576889,28.7826727 33.9123301,28.1996406 33.6009506,27.8029142 C33.2869513,27.4089105 32.727067,27.3501794 32.3453278,27.6745615 L32.3453278,27.6745615 Z" id="Path"></path>
                    <path d="M32.2471184,32.6034991 L25.6999064,37.8029488 C25.293277,38.1265131 25.2353583,38.7059908 25.5676919,39.1002985 C25.7558279,39.3214201 26.0294439,39.4366197 26.3042582,39.4366197 C26.51676,39.4366197 26.7296612,39.3685823 26.9078113,39.227482 L33.4550233,34.0280323 C33.8616526,33.704468 33.9195713,33.1249903 33.5872377,32.7306827 C33.2533063,32.339081 32.6557449,32.2799348 32.2471184,32.6034991 L32.2471184,32.6034991 Z" id="Path"></path>
                    <path d="M6.64146095,21.6221036 C6.54993189,22.1190665 6.87989814,22.5960589 7.37753967,22.6874632 C7.43368773,22.6986008 7.48945124,22.7032094 7.54444565,22.7032094 C7.76711524,22.7032094 7.97132517,22.6125732 8.13438544,22.4743145 C8.76778221,23.1552383 9.52116683,23.6740923 10.3380065,24.0089855 C10.3645422,24.0228114 10.3826173,24.0447023 10.4103068,24.0558398 C10.4668395,24.0784989 10.5264487,24.0857959 10.5833661,24.1061506 C10.7071995,24.1510846 10.831033,24.1921782 10.9564049,24.227895 C9.57077712,25.9073535 9.19504629,28.4159799 10.2003282,30.6922548 C11.2479136,33.0645429 13.4926843,34.5078095 15.7636062,34.5070416 C16.4766102,34.5070416 17.1930755,34.3649422 17.874929,34.0649978 C20.730022,32.8064601 21.9333606,29.2470679 20.5569627,26.1316397 C19.8970301,24.6380623 18.7475322,23.4617116 17.319601,22.8211133 C17.0565511,22.7032094 16.7900398,22.6133412 16.5216057,22.5365309 C16.6258258,22.4101778 16.7258155,22.2792162 16.8192676,22.1428778 C16.846957,22.1025524 16.8715699,22.0606907 16.8988748,22.0192132 C17.0015567,21.8590635 17.0969315,21.6923851 17.1849995,21.5203299 C17.2142272,21.461954 17.2453779,21.4051143 17.2726828,21.3455863 C17.3699805,21.1358939 17.4595868,20.9219771 17.5330408,20.6969228 C17.5330408,20.6957706 17.5341946,20.6938504 17.5341946,20.6923142 C17.5476547,20.6512206 17.5561154,20.6078228 17.5688064,20.5678814 C17.6284157,20.3735511 17.6772569,20.1769166 17.7164836,19.9783619 C17.7230214,19.9445653 17.7357124,19.912305 17.7410965,19.8785084 C17.7441731,19.8658347 17.7384045,19.8539291 17.7403273,19.8408714 C17.9164632,18.8434888 17.8476241,17.8053967 17.5368866,16.8087824 C17.5349637,16.8003332 17.5368866,16.7930363 17.5341946,16.7857393 C17.5284259,16.768457 17.5203498,16.7519427 17.5145811,16.7346604 C17.44305,16.5130625 17.3626736,16.2933848 17.2672987,16.0763956 C17.1042384,15.7077059 16.9107967,15.3589868 16.69005,15.0302385 C16.5204519,14.7775325 16.3212416,14.5524781 16.1216465,14.329344 C16.0628064,14.2632871 16.0170418,14.1872448 15.9547405,14.1242603 C15.9539714,14.1242603 15.9539714,14.1231082 15.9532022,14.1231082 C15.4005663,13.5539434 14.7514019,13.091929 14.0295525,12.7670213 C13.8388028,12.6809937 13.645361,12.6076398 13.4511501,12.5435031 C13.5934432,12.2112983 13.5326802,11.8141887 13.264246,11.541512 C12.9096669,11.1801192 12.3285724,11.1762787 11.9682246,11.5303745 C11.7236342,11.7704068 11.4936576,12.0254172 11.2617582,12.2800436 C10.6898936,12.3292022 10.128028,12.4693811 9.59269803,12.705573 C8.19322556,13.3223601 7.1460248,14.4994789 6.64530676,16.0195559 C6.16612489,17.4778006 6.25034708,19.0831371 6.87720608,20.5536715 C6.79298399,20.906615 6.70760804,21.2607108 6.64146095,21.6221036 L6.64146095,21.6221036 Z M18.8794417,26.8694033 C19.848189,29.062339 19.0655767,31.538705 17.1365429,32.3889957 C15.2071245,33.2396705 12.8462118,32.146659 11.8786184,29.9537232 C10.9106403,27.7607875 11.6924835,25.2832693 13.6215172,24.4337467 C14.0607032,24.2405688 14.5279632,24.1445558 15.0048375,24.1445558 C15.5243999,24.1445558 16.0551148,24.2601553 16.5681394,24.4905864 C17.581882,24.9456878 18.402952,25.7913699 18.8794417,26.8694033 Z M8.38743647,16.5891048 C8.72278683,15.5690632 9.41387007,14.7825251 10.3322378,14.3788866 C10.7514258,14.1949258 11.1967649,14.1042896 11.6501801,14.0962245 L11.6774851,14.0962245 C11.7693987,14.0973767 11.8509289,14.1088982 11.9378431,14.114659 C12.0724448,14.1227241 12.2074309,14.1357819 12.3420326,14.159593 C12.4408686,14.1768754 12.5408584,14.1987664 12.6408482,14.2244979 C12.854288,14.2801854 13.0669585,14.3416336 13.276937,14.4357263 C13.7838084,14.6638531 14.2418385,14.9887609 14.633337,15.390479 C14.6348753,15.3923994 14.636029,15.3958558 14.6379519,15.397776 C14.8348548,15.6009395 15.0136828,15.8213852 15.1721281,16.0568089 C15.3305735,16.2937689 15.46979,16.546475 15.5882395,16.813775 C16.0639601,17.8898882 16.1354913,19.0616302 15.7916802,20.1139321 C15.7870653,20.1296783 15.7789892,20.1435041 15.7743743,20.1588662 C15.7028432,20.3693266 15.6132369,20.5671132 15.5120934,20.7556827 C15.4820965,20.8125224 15.4509458,20.8674418 15.4178722,20.9212091 C15.3171133,21.0898077 15.2052017,21.2488052 15.0813682,21.3962811 C15.0602165,21.4212444 15.0429105,21.4496643 15.0217589,21.4734755 C14.6944846,21.840245 14.2987558,22.1340446 13.8461097,22.3337515 C13.6161332,22.4351412 13.3796189,22.5046546 13.1404126,22.552277 C13.0961863,22.5614942 13.0515755,22.5634145 13.0073492,22.5707115 C12.8250602,22.5991313 12.6408482,22.6129572 12.4566362,22.6118715 C12.3924121,22.6118715 12.3274186,22.6118715 12.2624253,22.6079645 C12.0432169,22.5952908 11.8240085,22.5687912 11.6086459,22.5177124 C11.5694191,22.5084951 11.5309616,22.4908287 11.4913502,22.4800753 C10.5914422,22.2346662 9.75729651,21.6562841 9.14351314,20.8271164 C9.08390382,20.7476176 9.02237164,20.6696551 8.96853099,20.5855477 C8.83931342,20.3858408 8.72086398,20.1753804 8.61818213,19.9522463 L8.57780167,19.8689071 C8.11361828,18.7997069 8.04401003,17.6356459 8.38743647,16.5891048 Z" id="Shape"></path>
                    <path d="M27.0920634,41.5546342 C26.1586696,41.6390984 25.2123984,41.6510428 24.2914664,41.5921738 C23.732344,41.5618862 23.2758243,41.9846334 23.2413464,42.5434618 C23.2076994,43.1048497 23.6226796,43.5868926 24.1676786,43.6222992 C24.5926283,43.6474678 25.0200703,43.6619718 25.4508355,43.6619718 C26.0535745,43.6619718 26.6654522,43.6342436 27.2665296,43.579214 C27.811944,43.5297299 28.2136315,43.0365959 28.1650302,42.4773409 C28.1168443,41.9185126 27.6308315,41.4966184 27.0920634,41.5546342 L27.0920634,41.5546342 Z" id="Path"></path>
                    <path d="M39.7403543,17.1225108 C39.9174697,17.4316779 40.2457615,17.6056338 40.5845909,17.6056338 C40.7438733,17.6056338 40.905182,17.5672845 41.0539265,17.4862368 C41.5196144,17.2328147 41.6865974,16.6587601 41.4268011,16.2048932 C40.9351741,15.3457882 40.3730252,14.5163346 39.7557556,13.743812 C39.427464,13.3330389 38.8207321,13.2595029 38.400843,13.5789493 C37.979738,13.8991864 37.9043524,14.4910319 38.2318335,14.9006191 C38.7891189,15.598815 39.2961473,16.3460347 39.7403543,17.1225108 Z" id="Path"></path>
                    <path d="M40.9080934,19.4807507 C41.2339725,20.2455489 41.4948433,21.0394684 41.6827375,21.8403042 C41.7783622,22.2516426 42.1952523,22.5352113 42.6612131,22.5352113 C42.7262212,22.5352113 42.7941651,22.5290229 42.8612702,22.5170104 C43.4018853,22.4223662 43.7516703,21.9633417 43.6417859,21.4941247 C43.4329213,20.606653 43.1439502,19.7253696 42.7820022,18.8768477 C42.5903334,18.4272876 42.0136493,18.1965013 41.4977792,18.3650408 C40.9802314,18.5313962 40.7151664,19.0322826 40.9080934,19.4807507 L40.9080934,19.4807507 Z" id="Path"></path>
                    <path d="M31.8863886,40.2168937 C31.1297536,40.5641274 30.3393598,40.8510077 29.5383248,41.0678778 C29.0697394,41.1942178 28.7827906,41.7140624 28.8991113,42.2278717 C28.9970849,42.6652333 29.3548536,42.9577465 29.7474819,42.9577465 C29.816467,42.9577465 29.8872869,42.9488947 29.9573729,42.9299839 C30.8464741,42.6901794 31.7227323,42.3727201 32.5622963,41.9864578 C33.0073973,41.7820607 33.2172883,41.2203709 33.0301477,40.7311054 C32.8448419,40.2430469 32.3314896,40.0088753 31.8863886,40.2168937 L31.8863886,40.2168937 Z" id="Path"></path>
                    <path d="M42.2522074,28.9028265 C41.7460132,28.7780359 41.2294964,29.0596432 41.0968933,29.5282524 C40.8709916,30.3274283 40.5748184,31.1159287 40.2198868,31.8712989 C40.0110568,32.3152446 40.2302092,32.8328131 40.7102005,33.0257049 C40.8328782,33.0757684 40.9619082,33.0985915 41.0865709,33.0985915 C41.4518248,33.0985915 41.8000072,32.9012824 41.9552401,32.5714521 C42.3486821,31.7336243 42.6762196,30.8597213 42.9259421,29.9729343 C43.0601333,29.5054294 42.7572107,29.0254086 42.2522074,28.9028265 L42.2522074,28.9028265 Z" id="Path"></path>
                    <path d="M24.9349473,8.25783745 L24.9549101,8.25783745 L25.0859163,8.25703222 L25.1046315,8.25703222 C25.9846604,8.25703222 26.8705119,8.31863681 27.7397276,8.44023552 C27.788387,8.44788569 27.8357988,8.45070423 27.8836264,8.45070423 C28.3681415,8.45070423 28.7915202,8.10724844 28.8626379,7.62971193 C28.9420734,7.10466342 28.5665223,6.61826879 28.0241982,6.54216899 C27.0609907,6.40607518 26.0786522,6.33802817 25.1054632,6.33802817 C25.0983931,6.33802817 25.0913229,6.33802817 25.0846686,6.33802817 L24.9149844,6.33883351 C24.3668378,6.34970494 23.9326459,6.78818484 23.943875,7.31766247 C23.9538564,7.84069779 24.3959503,8.25783745 24.9349473,8.25783745 Z" id="Path"></path>
                    <path d="M36.6500587,12.4279699 C36.8075651,12.5941231 37.0092418,12.6760563 37.2116033,12.6760563 C37.427661,12.6760563 37.6440611,12.5815472 37.8046493,12.3917669 C38.1148684,12.0274496 38.1001451,11.4527734 37.773148,11.1075103 C37.1544216,10.456617 36.4870737,9.85450266 35.7868549,9.31641058 C35.4156876,9.03135897 34.9072157,9.1331087 34.6517814,9.54734817 C34.3956622,9.95968214 34.488454,10.5255934 34.8589366,10.8106451 C35.4896472,11.2972907 36.0929652,11.8403369 36.6500587,12.4279699 L36.6500587,12.4279699 Z" id="Path"></path>
                    <path d="M30.2034082,8.82386751 C30.9972958,9.07437114 31.7811577,9.39256807 32.5316005,9.76698493 C32.6563649,9.82894159 32.7874417,9.85915493 32.9174045,9.85915493 C33.2456537,9.85915493 33.5616491,9.67060797 33.7138914,9.34629186 C33.9270305,8.89423799 33.7439685,8.348102 33.3043226,8.12857666 C32.4733029,7.71170812 31.6036655,7.36023816 30.7221458,7.08219826 C30.2557647,6.93533814 29.7604205,7.20611149 29.6170899,7.68646649 C29.4726455,8.16643906 29.7355418,8.67509517 30.2034082,8.82386751 Z" id="Path"></path>
                    <path d="M43.6392318,24.182815 C43.6139652,23.6531772 43.1692732,23.2394366 42.6374113,23.2394366 C42.6214092,23.2394366 42.6062492,23.2394366 42.5894048,23.2402675 C42.0352241,23.2651915 41.6077975,23.7296112 41.6339064,24.275865 C41.6469607,24.5708005 41.6549618,24.8690593 41.6549618,25.1685643 C41.6549618,25.8082836 41.6221152,26.4496645 41.5547376,27.0765063 C41.4974667,27.6206832 41.8987845,28.1067037 42.4500174,28.1644446 C42.4849695,28.1673525 42.5199217,28.1690141 42.5540316,28.1690141 C43.0618901,28.1690141 43.4973178,27.7901673 43.551641,27.2821304 C43.6249142,26.587578 43.6619718,25.8764095 43.6619718,25.1685643 C43.6619718,24.8379041 43.6539707,24.509321 43.6392318,24.182815 L43.6392318,24.182815 Z" id="Path"></path>
                    <path d="M40.4105703,33.9260331 C39.9759285,33.6906844 39.4009662,33.8024666 39.1254063,34.1761963 C38.6587135,34.812547 38.1294824,35.4246558 37.5529565,35.9950145 C37.2148582,36.3290144 37.2558991,36.8360748 37.6444189,37.1266412 C37.820699,37.2589618 38.0384108,37.3239437 38.2553409,37.3239437 C38.5144844,37.3239437 38.7744096,37.2310163 38.9577252,37.047855 C39.5967895,36.4172281 40.1819143,35.7394641 40.7005922,35.0334179 C40.976152,34.6593515 40.8456031,34.163402 40.4105703,33.9260331 L40.4105703,33.9260331 Z" id="Path"></path>
                    <path d="M10.83289,34.8671309 C10.5499896,34.4942434 9.97996047,34.3948974 9.56137543,34.6449634 C9.14086843,34.8946891 9.02824639,35.3982233 9.31037806,35.7700902 C9.84158524,36.4716358 10.4389049,37.1435819 11.0854248,37.7665353 C11.2660813,37.9407309 11.5132349,38.028169 11.7596197,38.028169 C11.9814044,38.028169 12.2039579,37.9577422 12.3796176,37.8141669 C12.7516932,37.5110258 12.7774464,36.9979651 12.4345832,36.6686265 C11.8503323,36.1058931 11.311822,35.5002911 10.83289,34.8671309 L10.83289,34.8671309 Z" id="Path"></path>
                    <path d="M16.505981,39.7644817 C15.864391,39.314967 15.243006,38.8024399 14.6630246,38.2389412 C14.3211966,37.90622 13.8253473,37.9760554 13.5537398,38.3874416 C13.2808073,38.7996305 13.3361226,39.4020604 13.6762944,39.7311694 C14.318878,40.3548711 15.0061775,40.9239887 15.7166631,41.4212643 C15.8405426,41.5083578 15.9763464,41.5492958 16.110494,41.5492958 C16.3837576,41.5492958 16.6490717,41.3771155 16.7951437,41.0712851 C17.0137545,40.6137433 16.8842441,40.0285715 16.505981,39.7644817 L16.505981,39.7644817 Z" id="Path" transform="translate(15.140845, 39.788732) rotate(-15.000000) translate(-15.140845, -39.788732) "></path>
                    <path d="M21.8506811,41.0110397 C21.0490808,40.8117802 20.2562452,40.5410025 19.4948163,40.207801 C19.0448976,40.0106086 18.5420257,40.2640235 18.3685588,40.7704401 C18.1954569,41.2768567 18.4182251,41.8490041 18.8655874,42.0453698 C19.7106457,42.4157773 20.5889367,42.7150799 21.4781834,42.9350094 C21.5409968,42.9507187 21.6034448,42.9577465 21.6655278,42.9577465 C22.0657801,42.9577465 22.4262264,42.6443883 22.5149684,42.1830324 C22.6175878,41.6530519 22.319955,41.1267921 21.8506811,41.0110397 Z" id="Path"></path>
                    <path d="M9.77199002,31.842837 C9.40372194,31.0913824 9.09470192,30.3069983 8.85112605,29.5096645 C8.70900782,29.0416239 8.19552357,28.7715295 7.7075973,28.9091667 C7.21850928,29.0449539 6.93698355,29.534454 7.07910178,30.0017544 C7.34862295,30.8860365 7.69172036,31.7562588 8.09871275,32.5905918 C8.25554627,32.9106354 8.58780077,33.0985915 8.93593231,33.0985915 C9.06682042,33.0985915 9.19964482,33.0719521 9.32588601,33.0157132 C9.7886415,32.8092574 9.9880717,32.2834981 9.77199002,31.842837 Z" id="Path"></path>
                    <path d="M36.0111918,37.545509 C35.4401346,38.1160713 34.8255874,38.6404997 34.1836081,39.1038105 C33.8082559,39.375488 33.6901638,39.9531478 33.9206609,40.3959547 C34.0705341,40.685376 34.3338159,40.8450704 34.6014467,40.8450704 C34.743291,40.8450704 34.886808,40.7997251 35.0169434,40.7066686 C35.7281723,40.1936752 36.408958,39.6132552 37.0419048,38.9815752 C37.3774469,38.64602 37.4199333,38.0533765 37.135241,37.6567035 C36.8505488,37.2608193 36.3490757,37.2111366 36.0111918,37.545509 L36.0111918,37.545509 Z" id="Path"></path>
                    <path d="M14.3108415,11.2676056 C14.4975566,11.2676056 14.6873901,11.2068158 14.8507172,11.0810726 C15.565224,10.5352138 16.3202703,10.0451484 17.0979252,9.62336732 C17.554773,9.37521171 17.7368105,8.77772331 17.5048783,8.28849055 C17.2725564,7.80133972 16.7143601,7.60606291 16.2551735,7.85421841 C15.394101,8.32138367 14.5579759,8.86432791 13.7686271,9.46847821 C13.351539,9.78700002 13.2548681,10.4073887 13.5546259,10.8529028 C13.737053,11.1227095 14.0212187,11.2676056 14.3108415,11.2676056 Z" id="Path"></path>
                    <path d="M7.60054999,28.160284 C8.1357182,28.0900278 8.51271268,27.5936611 8.4422311,27.0507342 C8.34265547,26.2650282 8.29102356,25.460615 8.29102356,24.6599431 L8.29594088,24.2508771 C8.30659512,23.7029615 7.87796873,23.2510767 7.33993207,23.2394366 C6.83385792,23.2444252 6.35441923,23.6642998 6.34294559,24.2093054 L6.33802817,24.6599431 C6.33802817,25.5466684 6.39457739,26.4363038 6.50685624,27.3059847 C6.57037153,27.8052614 6.99039254,28.1690141 7.47351919,28.1690141 C7.51572621,28.1690141 7.55752337,28.166104 7.60054999,28.160284 Z" id="Path"></path>
                    <path d="M19.876609,9.15492958 C19.96566,9.15492958 20.0550731,9.13831167 20.1448482,9.10288943 C20.9151761,8.79983232 21.7122918,8.56543314 22.5148375,8.40887542 C22.9850706,8.3161653 23.3039893,7.78045825 23.2283321,7.21370203 C23.1512268,6.64563384 22.7139354,6.25905013 22.2386344,6.35176025 C21.3492096,6.52668501 20.4641288,6.78513637 19.6090937,7.12274115 C19.1573224,7.30116441 18.908631,7.8889116 19.0570495,8.43686338 C19.1761462,8.87679921 19.5142507,9.15492958 19.876609,9.15492958 Z" id="Path"></path>
                    <path d="M20.8012304,10.3033192 C17.9952756,11.5481114 16.813244,15.0707782 18.1653794,18.154822 C19.1996098,20.5136558 21.4211638,21.9439314 23.6291096,21.9439314 C24.0721352,21.9439314 24.5144047,21.8796963 24.9468461,21.7599683 C26.093723,23.5733739 28.0053103,24.6486463 29.9395782,24.6478865 C30.6404054,24.6478865 31.3446347,24.5072531 32.0148432,24.2104034 C34.821932,22.9648511 36.0039635,19.4421842 34.6510722,16.3589005 C34.0024103,14.8803534 32.8725437,13.7165203 31.4689994,13.0825315 C30.2926379,12.5507867 29.0395407,12.4466423 27.8665814,12.760976 C26.2993594,10.2592288 23.3384213,9.17863514 20.8012304,10.3033192 Z M19.814251,17.4239106 C18.8620484,15.2536011 19.6312951,12.8016455 21.5273841,11.9612683 C21.9707877,11.7643821 22.4346038,11.6712603 22.8976638,11.6712603 C24.1515169,11.6712603 25.4000779,12.3550408 26.2188437,13.5298965 C26.2188437,13.5298965 26.2180876,13.5310368 26.2173317,13.531797 C25.9784305,13.7009367 25.7576737,13.8921215 25.5505252,14.0985099 C25.5463671,14.103071 25.541831,14.1076321 25.5372949,14.1121931 C24.9472242,14.708173 24.4902122,15.4474466 24.2112422,16.3007469 C23.8237839,17.485485 23.8154676,18.7690462 24.1632352,19.9963544 C24.1704173,20.0225805 24.1723074,20.0480465 24.1806236,20.0742726 C22.4652224,20.3517377 20.6349068,19.2954697 19.814251,17.4239106 L19.814251,17.4239106 Z M30.7296154,14.7347793 C31.7260449,15.184805 32.5338484,16.0217614 33.0014446,17.0898121 C33.9544032,19.2601215 33.1851565,21.7113169 31.2879334,22.5528344 C29.3918444,23.3943518 27.0720082,22.312618 26.1201835,20.1423086 C25.6767799,19.1324115 25.6208347,18.065121 25.865784,17.1224997 C25.8839284,17.0537036 25.8911106,16.9818668 25.912657,16.9142108 C25.9738944,16.7203654 26.0578122,16.5390629 26.1451321,16.3596607 C26.1697026,16.3110093 26.185579,16.2555163 26.2120395,16.2083852 C26.3118337,16.0248021 26.4324183,15.8564225 26.5605631,15.6933643 C26.5866457,15.6595364 26.6063021,15.6207673 26.6342746,15.5888397 C26.7703576,15.4276819 26.927231,15.2855286 27.0909085,15.1524974 C27.1207712,15.1289318 27.1442078,15.0981446 27.1748264,15.0753393 C27.3721466,14.9248239 27.5864773,14.7955936 27.8197083,14.6903089 L27.8541071,14.6751053 C28.2801223,14.4884815 28.7341101,14.394196 29.1952801,14.394196 C29.7055912,14.392319 30.2261085,14.5063456 30.7296154,14.7347793 Z" id="Shape"></path>
                </g>
            </g>
        </g>
    </g>
</svg>