<?xml version="1.0" encoding="UTF-8"?>
<svg width="56px" height="50px" viewBox="0 0 56 50" version="1.1" xmlns="http://www.w3.org/2000/svg" xmlns:xlink="http://www.w3.org/1999/xlink">
    <!-- Generator: sketchtool 58 (101010) - https://sketch.com -->
    <title>3D19C1A3-6189-4B63-A3F6-40149403610E</title>
    <desc>Created with sketchtool.</desc>
    <g id="Design" stroke="none" stroke-width="1" fill="none" fill-rule="evenodd">
        <g id="UI-Kit-module-6" transform="translate(-737.000000, -354.000000)" fill="#FFFFFF" fill-rule="nonzero">
            <g id="atom/icons/70px/a-icon-pot" transform="translate(730.000000, 344.000000)">
                <g id="pot" transform="translate(7.000000, 10.000000)">
                    <path d="M53.0533062,18.554442 L50.1284017,18.554442 C50.1783892,17.9921862 50.3475774,17.4452183 50.6393842,16.9589774 L52.2406903,14.2899609 C52.5559955,13.7659249 52.563686,13.1093936 52.2603435,12.5772889 C52.0599666,12.2265161 51.73868,11.9768133 51.3703966,11.8387974 C51.351598,11.5780533 51.2836663,11.3194327 51.1452398,11.0867165 L51.0174941,10.9160013 C49.8622295,9.68957021 46.9834672,6.83582467 45.1933198,6.83582467 L38.3164191,6.83582467 L38.3164191,5.85952103 C38.3164191,2.62782402 35.6722133,0 32.4213225,0 L22.5968735,0 C19.3459828,0 16.7022041,2.62782402 16.7022041,5.85952103 L16.7022041,6.83582467 L10.8071075,6.83582467 C9.01695999,6.83582467 6.13862504,9.68957021 4.98378764,10.9160013 L4.85646933,11.0867165 C4.71804265,11.3194327 4.65096555,11.5780533 4.63131232,11.8387974 C4.26302895,11.9763886 3.94046069,12.2265161 3.74093826,12.5772889 C3.4375959,13.1093936 3.44443179,13.7659249 3.75973694,14.2899609 L5.36189763,16.9581281 C5.6537044,17.4452183 5.82289256,17.9921862 5.87287995,18.5548666 L2.94754834,18.5548666 C1.3223166,18.554442 0,19.8687787 0,21.4842025 C0,23.0996263 1.3223166,24.4139629 2.94754834,24.4139629 L5.89509668,24.4139629 L5.89509668,43.9447087 C5.89509668,44.1935621 6.0342223,45.2754039 6.1040184,45.4964328 C6.79273385,48.0843383 9.1536777,50 11.958527,50 L44.0410458,50 C47.3846483,50 50.1049034,47.2834211 50.1049034,43.9447087 L50.1049034,24.4139629 L53.0524518,24.4139629 C54.6772562,24.4139629 56,23.0996263 56,21.4842025 C56,19.8687787 54.6781107,18.554442 53.0533062,18.554442 Z M45.1933198,8.78928144 C45.7418996,8.79607607 47.4649699,10.1125361 49.0662761,11.719042 L34.3080268,11.719042 C34.354169,11.3984202 34.3866395,11.0744013 34.3866395,10.7423136 C34.3866395,10.0636996 34.2832468,9.40844236 34.0965417,8.78928144 L45.1933198,8.78928144 Z M31.9176031,12.8562935 C31.8488171,12.9981315 31.7740495,13.1357228 31.6915917,13.2694921 C31.6257964,13.3777816 31.5587191,13.4852217 31.4843789,13.5867164 C31.377141,13.7344998 31.2583675,13.872091 31.136176,14.0058603 C31.0686717,14.079752 31.0067215,14.1608629 30.9349447,14.230508 C30.7405492,14.4199083 30.529064,14.5927468 30.3051887,14.7469 C30.2244399,14.802531 30.1360006,14.8462714 30.0526882,14.8972312 C29.8903359,14.9949041 29.7254202,15.0879055 29.5523868,15.1668932 C29.4502758,15.2136062 29.3451741,15.254374 29.2400724,15.2934432 C29.0623393,15.3609648 28.8794794,15.4165959 28.6932015,15.4624597 C28.5957902,15.4870902 28.498806,15.5142687 28.3992585,15.5329539 C28.1083061,15.588585 27.8135085,15.6246815 27.5093116,15.6246815 C27.2046875,15.6246815 26.9098899,15.588585 26.6210737,15.5359266 C26.5215262,15.5172414 26.424542,15.4900629 26.3271307,15.4654323 C26.1404256,15.4187192 25.9575656,15.3630881 25.7798326,15.2964158 C25.6751582,15.2564974 25.5696292,15.2165789 25.4675181,15.1698658 C25.294912,15.0904536 25.129569,14.9978767 24.967644,14.9002039 C24.8843316,14.8492441 24.7954651,14.8055037 24.7151435,14.7498726 C24.490841,14.5944454 24.279783,14.4216069 24.0853876,14.2330559 C24.0136108,14.1629863 23.9516605,14.0827246 23.883729,14.008833 C23.7611103,13.8737898 23.6431912,13.7361983 23.5359533,13.5896891 C23.4624675,13.4881943 23.3953904,13.3799049 23.3287405,13.2724648 C23.2471371,13.1386955 23.1715151,13.0011042 23.102729,12.8592662 C23.0429151,12.7373874 22.9848101,12.6133855 22.9348226,12.4851367 C22.7246191,11.9402921 22.5968735,11.3576524 22.5968735,10.7423136 C22.5968735,9.7851197 22.8856897,8.89842019 23.3659106,8.14336674 C23.4171797,8.06268043 23.4710123,7.98369288 23.5269812,7.90555461 C23.6598536,7.7216749 23.80298,7.54798714 23.9602054,7.38406659 C24.0084838,7.33438087 24.0559078,7.28342112 24.1058953,7.23543406 C24.2776468,7.07023948 24.4634975,6.92118221 24.6578929,6.782317 C24.7377873,6.72498726 24.8202453,6.67190422 24.9035575,6.61924582 C25.0842813,6.50628501 25.2718409,6.40436552 25.4666637,6.31476139 C25.5294683,6.28630884 25.5892824,6.25233568 25.6533687,6.22600643 C25.8947609,6.12705962 26.1472615,6.05316805 26.4057433,5.99371491 C26.4856378,5.97502978 26.5659594,5.95931711 26.6462811,5.94487857 C26.9282614,5.89519274 27.214514,5.85782227 27.5110206,5.85782227 C27.8079544,5.85782227 28.0937798,5.89519274 28.3757601,5.94487857 C28.4560817,5.95931711 28.5368306,5.97502978 28.6162978,5.99371491 C28.8747797,6.05316805 29.1272803,6.12748426 29.3690996,6.22600643 C29.4327588,6.25233568 29.4925729,6.28545946 29.5553775,6.31476139 C29.7510548,6.40479016 29.9386143,6.50628501 30.1184836,6.61924582 C30.2017959,6.67105484 30.2833993,6.72498726 30.3641483,6.782317 C30.5585437,6.92118221 30.7443944,7.07023948 30.9161459,7.23543406 C30.9665606,7.28342112 31.0135574,7.33438087 31.0618358,7.38406659 C31.2177794,7.54713776 31.3626148,7.7216749 31.49506,7.90555461 C31.5510288,7.98241886 31.6040069,8.06268043 31.6561306,8.14336674 C32.1325063,8.89842019 32.4213225,9.7851197 32.4213225,10.7423136 C32.4213225,11.3563785 32.2935768,11.9394429 32.0842279,12.4821641 C32.0355223,12.6112621 31.9765627,12.7344148 31.9176031,12.8562935 L31.9176031,12.8562935 Z M18.6666667,5.85952103 C18.6666667,3.70519787 20.4294706,1.95345677 22.5968735,1.95345677 L32.4213225,1.95345677 C34.5887254,1.95345677 36.3511021,3.70519787 36.3511021,5.85952103 L36.3511021,6.83624931 L33.1463536,6.83624931 C33.1352453,6.82053675 33.1215735,6.80694748 33.1100379,6.79123492 C32.9741747,6.6018345 32.8289122,6.42007819 32.6746775,6.2451163 C32.6370802,6.2030746 32.59991,6.16315608 32.5614581,6.12196365 C32.4153411,5.96398845 32.2619609,5.81365716 32.1008904,5.6701206 C32.0684199,5.64081878 32.0372311,5.61151696 32.0047608,5.58306441 C31.4113204,5.07134369 30.7302954,4.66111772 29.9856111,4.3740445 C29.9475865,4.35960586 29.9091346,4.34686598 29.8715372,4.33242733 C29.6694514,4.25811112 29.4618114,4.19356211 29.2507534,4.13878031 C29.1947846,4.12434177 29.1388157,4.10990323 29.082847,4.09588922 C28.8833246,4.04917618 28.6812387,4.01307961 28.4757349,3.98335315 C28.4146392,3.97485986 28.3548252,3.96296925 28.2937295,3.95617462 C28.0352476,3.9268728 27.7733477,3.90818756 27.5067482,3.90818756 C27.2405759,3.90818756 26.9782487,3.9268728 26.7197669,3.95617462 C26.6590984,3.96296925 26.5988571,3.97570914 26.5381887,3.98335315 C26.3326848,4.01265498 26.130599,4.04875154 25.9310766,4.09588922 C25.8751078,4.10947848 25.819139,4.12434177 25.7627429,4.13878031 C25.551685,4.19441139 25.3453267,4.25811112 25.1419591,4.33242733 C25.1039345,4.34601659 25.0654826,4.35960586 25.0283125,4.3740445 C24.2832009,4.66154235 23.6026031,5.07134369 23.0091629,5.58306441 C22.9766924,5.61151696 22.9455036,5.64166806 22.9130333,5.6701206 C22.7528172,5.81365716 22.5985825,5.96483783 22.4520382,6.12196365 C22.4140136,6.16315608 22.3764163,6.2030746 22.3392461,6.2451163 C22.1850115,6.42007819 22.0393216,6.6018345 21.9038856,6.79123492 C21.8932046,6.80694748 21.8795328,6.82053675 21.86757,6.83624931 L18.6666667,6.83624931 L18.6666667,5.85952103 Z M10.8071075,8.78928144 L20.9216543,8.78928144 C20.7349492,9.40844236 20.6319837,10.0636996 20.6319837,10.7423136 C20.6319837,11.0744013 20.664027,11.3984202 20.7105964,11.719042 L6.93500569,11.719042 C8.51794036,10.1350433 10.267927,8.79607607 10.8071075,8.78928144 Z M2.94754834,22.4605061 C2.40623164,22.4605061 1.96488982,22.0231017 1.96488982,21.4842025 C1.96488982,20.9448785 2.40623164,20.5074741 2.94754834,20.5074741 L5.89509668,20.5074741 L5.89509668,22.4605061 L2.94754834,22.4605061 Z M48.1408681,43.9447087 C48.1408681,46.2064719 46.3015877,48.0469679 44.0419003,48.0469679 L11.958527,48.0469679 C10.4084899,48.0469679 9.07292883,47.1708851 8.37652307,45.8977408 L16.7017769,45.8977408 C17.2443752,45.8977408 17.6844354,45.4611857 17.6844354,44.9210124 C17.6844354,44.3812638 17.2443752,43.9447087 16.7017769,43.9447087 L7.85955918,43.9447087 L7.85955918,41.9912519 L13.7542285,41.9912519 C14.296827,41.9912519 14.7368871,41.5551215 14.7368871,41.0149482 C14.7368871,40.474775 14.296827,40.0382198 13.7542285,40.0382198 L7.8599864,40.0382198 L7.8599864,38.0851877 L11.789766,38.0851877 C12.3319372,38.0851877 12.7719973,37.6486326 12.7719973,37.1084593 C12.7719973,36.5687107 12.3319372,36.1321556 11.789766,36.1321556 L7.8599864,36.1321556 L7.8599864,18.554442 L7.83734255,18.554442 C7.78393723,17.6392899 7.52289183,16.7466452 7.04950677,15.9576185 L5.67677557,13.6720741 L21.301046,13.6720741 C21.3087364,13.6886359 21.3194174,13.7022252 21.3275351,13.7179379 C21.596698,14.2674537 21.9346471,14.7753524 22.3358282,15.2305928 C22.3670169,15.2666894 22.3994873,15.3010872 22.4319578,15.3359096 C22.6195174,15.5410226 22.8181853,15.7363683 23.0300977,15.9168507 C23.0441967,15.9287413 23.0570141,15.9414813 23.0706858,15.9529472 C23.3005424,16.1465942 23.5440709,16.3245286 23.7974259,16.4863259 C23.8281874,16.5058604 23.8593761,16.5232716 23.8909921,16.5428062 C24.1217032,16.6854935 24.3626682,16.8154408 24.6113234,16.9309495 C24.6425123,16.9453882 24.6741282,16.9619501 24.7053169,16.9755394 C24.9796068,17.0978428 25.2615871,17.2044335 25.5533939,17.2902158 C25.5807374,17.2978597 25.6085083,17.303805 25.6349973,17.3105997 C25.8874978,17.3819433 26.144698,17.436725 26.4083069,17.4796161 C26.4779475,17.4915067 26.547588,17.5021234 26.6185103,17.5118906 C26.9111717,17.5496858 27.2072509,17.5764396 27.5097388,17.5764396 C27.8122268,17.5764396 28.1078788,17.5496858 28.4005401,17.5118906 C28.4714625,17.5021234 28.5411031,17.491082 28.6107437,17.4796161 C28.8743525,17.4375744 29.1315526,17.3819433 29.3840532,17.3105997 C29.4118239,17.3029556 29.4391675,17.2982844 29.4656566,17.2902158 C29.7574634,17.2044335 30.0394437,17.0978428 30.3137336,16.9755394 C30.346204,16.9611007 30.3765383,16.9453882 30.407727,16.9309495 C30.6563823,16.8154408 30.8960656,16.6854935 31.1280584,16.5428062 C31.1583926,16.5232716 31.1912904,16.5058604 31.2216246,16.4863259 C31.4758341,16.3232547 31.718508,16.1465942 31.9483646,15.9529472 C31.9624637,15.9414813 31.9752809,15.9287413 31.9889527,15.9168507 C32.2000107,15.735519 32.3986786,15.5410226 32.5870927,15.3359096 C32.6195631,15.3010872 32.6520336,15.2666894 32.6836496,15.2305928 C33.0844033,14.7753524 33.4223524,14.2666044 33.6915154,13.7179379 C33.699633,13.7022252 33.7103142,13.6877866 33.7184317,13.6720741 L50.3249335,13.6720741 L48.9526294,15.9588925 C48.4788171,16.7479192 48.2177717,17.6397146 48.1647937,18.5548666 L48.1421498,18.5548666 L48.1421498,43.9447087 L48.1408681,43.9447087 Z M53.0533062,22.4605061 L50.1057579,22.4605061 L50.1057579,20.5074741 L53.0533062,20.5074741 C53.5946229,20.5074741 54.0359647,20.9448785 54.0359647,21.4842025 C54.0355375,22.0231017 53.5946229,22.4605061 53.0533062,22.4605061 L53.0533062,22.4605061 Z" id="Shape"></path>
                    <polygon id="Path" points="26 10.3981874 29.3985222 7 31 8.60181262 27.6014778 12"></polygon>
                </g>
            </g>
        </g>
    </g>
</svg>