<?xml version="1.0" encoding="UTF-8"?>
<svg width="33px" height="28px" viewBox="0 0 33 28" version="1.1" xmlns="http://www.w3.org/2000/svg" xmlns:xlink="http://www.w3.org/1999/xlink">
    <!-- Generator: sketchtool 58 (101010) - https://sketch.com -->
    <title>F35C7261-FA0F-436E-B4E2-E58BF1DA7ECF</title>
    <desc>Created with sketchtool.</desc>
    <g id="Design" stroke="none" stroke-width="1" fill="none" fill-rule="evenodd">
        <g id="UI-Kit-module-6" transform="translate(-204.000000, -190.000000)" fill="#5A5A5A" fill-rule="nonzero">
            <g id="atom/icons/40px/a-icon-ruby" transform="translate(200.000000, 185.000000)">
                <g id="diamond" transform="translate(4.000000, 5.000000)">
                    <path d="M16.5,28 C16.3529997,28 16.2119994,27.935 16.1179993,27.822 L0.117968692,8.822 C-0.0320315942,8.644 -0.0400316095,8.386 0.099968658,8.2 L6.09998012,0.2 C6.1939803,0.074 6.34298059,0 6.49998089,0 L26.5000191,0 C26.6570194,0 26.8060197,0.074 26.9000199,0.2 L32.9000313,8.2 C33.0400316,8.386 33.0320316,8.644 32.8820313,8.822 L16.8820007,27.822 C16.7880006,27.935 16.6470003,28 16.5,28 Z M1.13897064,8.482 L16.5,26.724 L31.8610294,8.482 L26.2500186,1 L6.74998137,1 L1.13897064,8.482 Z" id="Shape"></path>
                    <path d="M32.5,9 L0.5,9 C0.224,9 0,8.777 0,8.5 C0,8.223 0.224,8 0.5,8 L32.5,8 C32.776,8 33,8.224 33,8.5 C33,8.776 32.776,9 32.5,9 Z" id="Path"></path>
                    <path d="M16.4997063,28 C16.4497098,28 16.3987133,27.993 16.3497166,27.977 C16.0857348,27.8940001 15.9397448,27.6130005 16.0237391,27.3500009 L22.0233265,8.35002683 C22.1063208,8.08702719 22.3893013,7.93902739 22.6502834,8.02402728 C22.9142652,8.10702716 23.0602552,8.38802678 22.9762609,8.65102642 L16.9766735,27.6510005 C16.9096781,27.8640002 16.7116918,28 16.4997063,28 Z" id="Path"></path>
                    <path d="M16.5006907,28 C16.2886773,28 16.0906647,27.864007 16.0236604,27.650018 L10.023279,8.65099387 C9.94027371,8.38800738 10.086283,8.10702181 10.3492997,8.02402607 C10.6133165,7.93903044 10.8933343,8.08702284 10.9763396,8.35000933 L16.976721,27.3490334 C17.0597263,27.6120199 16.913717,27.8930055 16.6507003,27.9760012 C16.6016972,27.9930004 16.5506939,28 16.5006907,28 Z" id="Path"></path>
                    <path d="M10.5000247,9 C10.3160482,9 10.1400708,8.89899552 10.052082,8.72398775 L6.05259394,0.723632781 C5.92960968,0.476621821 6.02959689,0.17660851 6.27656527,0.0526030079 C6.52453354,-0.0704024498 6.82349527,0.0296019874 6.9474794,0.276612947 L10.9469675,8.27696792 C11.0709516,8.52397888 10.9699645,8.82399219 10.7229961,8.94799769 C10.6520052,8.98299925 10.576015,9 10.5000247,9 Z" id="Path"></path>
                    <path d="M10.4991628,9 C10.3951684,9 10.2901741,8.96699912 10.200179,8.89999734 C9.97919099,8.73399292 9.93419343,8.4209846 10.1001844,8.19997872 L16.099859,0.19976592 C16.26585,-0.0212399585 16.578833,-0.0652411289 16.799821,0.0997632601 C17.020809,0.265767676 17.0658066,0.578776001 16.8998156,0.79978188 L10.900141,8.79999468 C10.8011464,8.93099816 10.6511545,9 10.4991628,9 Z" id="Path"></path>
                    <path d="M22.4998373,9 C22.3478455,9 22.1978537,8.93100701 22.099859,8.80002031 L16.1001844,0.800832768 C15.9341934,0.579855212 15.979191,0.266886999 16.200179,0.100903858 C16.4201671,-0.0660791824 16.73415,-0.0210837524 16.900141,0.200893702 L22.8998156,8.20008125 C23.0658066,8.4210588 23.020809,8.73402701 22.799821,8.90001016 C22.7098259,8.96800325 22.6048316,9 22.4998373,9 Z" id="Path"></path>
                    <path d="M22.4995806,9 C22.4245836,9 22.3485866,8.98300113 22.2765895,8.94700354 C22.0295995,8.82301181 21.9296035,8.52303183 22.0525986,8.27604832 L26.0524375,0.276582214 C26.1764325,0.0295986985 26.4754205,-0.0703946278 26.7234105,0.0525971635 C26.9704005,0.176588888 27.0703965,0.476568867 26.9474014,0.723552383 L22.9475625,8.72301849 C22.8585661,8.89900674 22.6825732,9 22.4995806,9 Z" id="Path"></path>
                </g>
            </g>
        </g>
    </g>
</svg>