<?xml version="1.0" encoding="UTF-8"?>
<svg width="28px" height="29px" viewBox="0 0 28 29" version="1.1" xmlns="http://www.w3.org/2000/svg" xmlns:xlink="http://www.w3.org/1999/xlink">
    <!-- Generator: sketchtool 58 (101010) - https://sketch.com -->
    <title>04B0C0AA-DD5A-46F8-B735-6E582C82ADE5</title>
    <desc>Created with sketchtool.</desc>
    <g id="Design" stroke="none" stroke-width="1" fill="none" fill-rule="evenodd">
        <g id="UI-Kit-module-6" transform="translate(-136.000000, -190.000000)" fill="#5A5A5A" fill-rule="nonzero">
            <g id="atom/icons/40px/a-icon-home" transform="translate(130.000000, 185.000000)">
                <path d="M33.8459047,18.2327251 L29.6550329,14.2274308 L29.6550329,7.66572432 L24.8273958,7.66572432 L24.8273958,9.61396385 L19.9997586,5 L6.15409525,18.2327251 C5.95905871,18.4195494 5.94747238,18.7340701 6.12899154,18.9353037 C6.31002793,19.1360404 6.61561737,19.1474685 6.81161943,18.9611411 L8.41391221,17.4297781 L8.41391221,34 L16.1381317,34 L23.8623511,34 L31.5865706,34 L31.5865706,17.4292812 L33.1888633,18.9606442 C33.281554,19.0495845 33.3998311,19.0933093 33.5176254,19.0933093 C33.6474889,19.0933093 33.7763868,19.0401439 33.8710085,18.9348068 C34.0525276,18.7340701 34.0409413,18.4195494 33.8459047,18.2327251 Z M25.7929232,8.65947057 L28.6895055,8.65947057 L28.6895055,13.3047374 L25.7929232,10.5366572 L25.7929232,8.65947057 Z M17.1031763,33.0062537 L17.1031763,22.5406151 C17.1031763,22.2837317 17.3059371,22.075045 17.5555259,22.075045 L22.4439913,22.075045 C22.6935802,22.075045 22.8963409,22.2837317 22.8963409,22.5406151 L22.8963409,33.0062537 L17.1031763,33.0062537 L17.1031763,33.0062537 Z M30.6205604,33.0062537 L23.8618683,33.0062537 L23.8618683,22.5406151 C23.8618683,21.7356806 23.2260685,21.0812987 22.4439913,21.0812987 L17.5555259,21.0812987 C16.7734487,21.0812987 16.1376489,21.7356806 16.1376489,22.5406151 L16.1376489,33.0062537 L9.37895687,33.0062537 L9.37895687,16.5065879 L19.9997586,6.35596676 L26.8936245,12.9445044 L29.6550329,15.5833976 L29.6550329,15.5833976 L30.6205604,16.506091 L30.6205604,33.0062537 Z" id="Shape"></path>
            </g>
        </g>
    </g>
</svg>