<?xml version="1.0" encoding="UTF-8"?>
<svg width="22px" height="50px" viewBox="0 0 22 50" version="1.1" xmlns="http://www.w3.org/2000/svg" xmlns:xlink="http://www.w3.org/1999/xlink">
    <!-- Generator: sketchtool 58 (101010) - https://sketch.com -->
    <title>05E242C5-4BE7-4C48-95A1-4E24DEE6312D</title>
    <desc>Created with sketchtool.</desc>
    <g id="Design" stroke="none" stroke-width="1" fill="none" fill-rule="evenodd">
        <g id="UI-Kit-module-6" transform="translate(-554.000000, -354.000000)" fill="#FFFFFF" fill-rule="nonzero">
            <g id="atom/icons/70px/a-icon-pepper" transform="translate(530.000000, 344.000000)">
                <g id="002-pepper" transform="translate(24.000000, 10.000000)">
                    <path d="M8.77773255,26.5453183 L11.4445348,26.5453183 C13.4049641,26.5453183 15,25.077528 15,23.2726592 C15,21.4677903 13.4049641,20 11.4445348,20 L7,20 L7,29 L8.77773255,29 L8.77773255,26.5453183 Z M8.77773255,21.6363297 L11.4445348,21.6363297 C12.4247495,21.6363297 13.2222675,22.3700374 13.2222675,23.2726592 C13.2222675,24.1752809 12.4247495,24.9089888 11.4445348,24.9089888 L8.77773255,24.9089888 L8.77773255,21.6363297 Z" id="Shape"></path>
                    <path d="M21.3461506,41.3700104 C21.1083393,41.0491943 21.1083393,40.6181336 21.3461506,40.2973175 C21.9131797,39.5347596 22.1211678,38.6009217 21.9317708,37.6682281 C21.9112431,37.569046 21.8740609,37.4774933 21.8453996,37.3817443 C21.936806,37.1383667 21.9991637,36.900711 21.9991637,36.6664887 L21.9991637,36.3723755 C21.9991637,34.9090576 21.6695586,33.4339142 21.0196442,31.9866181 C18.9339531,27.3441314 18.9409248,23.5290527 21.0417211,18.8182831 C21.6769176,17.3931122 21.999551,15.9351349 21.999551,14.484024 L21.999551,13.3331299 C21.999551,12.65831 21.6881497,12.027359 21.0746429,11.4498139 C21.6567772,10.5472564 21.999551,9.4799042 21.999551,8.33320615 C21.999551,5.11741641 19.3417957,2.49977109 16.0767307,2.49977109 L13.5382685,2.49977109 L13.5382685,0 L8.46173151,0 L8.46173151,2.50015254 L5.92326927,2.50015254 C2.65820429,2.50015254 0.000836385524,5.11741641 0.000836385524,8.3335877 C0.000836385524,9.48028564 0.343222852,10.546875 0.925357148,11.4501953 C0.312237655,12.0265961 0.000836385524,12.65831 0.000836385524,13.3335113 L0.000836385524,14.4790649 C0.000836385524,15.9332275 0.325019024,17.3950195 0.963314063,18.8232422 C3.06101184,23.5183716 3.06333568,27.3334503 0.976095431,31.99234 C0.328892124,33.4358215 0.000836385524,34.9082947 0.000836385524,36.3666534 L0.000836385524,36.6668701 C0.000836385524,36.8999481 0.0631941174,37.1383667 0.154600446,37.3809814 C0.12593909,37.4759674 0.0887568545,37.5675201 0.0682291869,37.6667022 C-0.121167799,38.6001587 0.0868203046,39.534378 0.653849392,40.296936 C0.891660822,40.6177521 0.891660822,41.0484314 0.653849392,41.3692475 C0.12012944,42.086792 -0.0820490139,42.9576874 0.0515746193,43.8377381 C0.0236879428,43.9594269 0.000836385524,44.0883637 0.000836385524,44.2367554 L0.000836385524,50 L21.9991637,50 L21.9991637,44.2367554 C21.9991637,44.089508 21.9755374,43.9594269 21.9476507,43.8377381 C22.0824364,42.9584503 21.8802579,42.0875549 21.3461506,41.3700104 L21.3461506,41.3700104 Z M1.95174182,44.2066192 C1.85375106,44.0517426 1.78016127,43.8800812 1.73794396,43.6950684 L1.72245137,43.6275482 C1.64460109,43.1732178 1.74646484,42.7223205 2.01952196,42.3542022 C2.17870833,42.1398163 2.29722675,41.9075012 2.38166136,41.6667938 L5.07737342,41.6667938 C5.54524988,41.6667938 5.92365666,41.2940979 5.92365666,40.8332824 C5.92365666,40.372467 5.54524988,40.0001525 5.07737342,40.0001525 L2.38088678,40.0001525 C2.29722675,39.7590637 2.17793375,39.5267486 2.01874728,39.3127441 C1.73523273,38.9316559 1.63181962,38.4624481 1.72671176,37.9917145 C1.74452829,37.9051209 1.77164039,37.8219604 1.80456214,37.7399444 L1.82663906,37.689209 C1.82935029,37.6834869 1.83361078,37.6777648 1.83593462,37.6716613 C1.88589823,37.5591278 1.95600221,37.461853 2.02726816,37.3649598 C2.29025503,37.0300293 2.68802751,36.7866516 3.14157335,36.7015839 C3.17565706,36.6966248 3.20780413,36.6901397 3.24227523,36.6867065 C3.32709723,36.6767883 3.41075726,36.6664887 3.49712842,36.6664887 L18.5032589,36.6664887 C18.5896301,36.6664887 18.6732902,36.6767883 18.7573375,36.6874695 C18.7910339,36.6909027 18.8239556,36.6973877 18.8580394,36.7023468 C19.3115852,36.7874146 19.7093577,37.0307922 19.9731191,37.3664855 C20.0432231,37.462616 20.1125525,37.5583648 20.1617415,37.6689911 C20.1652273,37.6773834 20.1702624,37.6842499 20.1745229,37.6926422 L20.1950506,37.7391815 C20.2279723,37.820816 20.255859,37.9047394 20.272901,37.9924774 C20.3677931,38.4624481 20.26438,38.9316559 19.9808654,39.3123627 C19.821679,39.5267486 19.7031606,39.7590637 19.6187259,39.9997711 L11.8464768,39.9997711 C11.3786003,39.9997711 11.0001936,40.372467 11.0001936,40.8332824 C11.0001936,41.2940979 11.3786003,41.6664123 11.8464768,41.6664123 L19.6195006,41.6664123 C19.7031606,41.9075012 19.8228409,42.1398163 19.9816401,42.3542022 C20.255859,42.7223205 20.3573356,43.1739807 20.2787106,43.6271668 L20.2636054,43.6939239 C20.221388,43.8781738 20.1474108,44.0498352 20.0494202,44.2047119 C19.7294981,44.681549 19.1442651,44.9996952 18.5044208,44.9996952 L3.49596645,44.9996952 C2.85612225,45.0000763 2.27088934,44.681549 1.95174182,44.2066192 L1.95174182,44.2066192 Z M10.1539105,1.66664121 L11.8460895,1.66664121 L11.8460895,2.50015254 L10.1539105,2.50015254 L10.1539105,1.66664121 Z M5.92326927,4.16679385 L16.0767307,4.16679385 C18.4095287,4.16679385 20.307372,6.03561406 20.307372,8.33320615 C20.307372,9.41810605 19.8731919,10.4000092 19.1802854,11.1423492 C19.1125053,11.2148285 19.0458872,11.2865448 18.9738466,11.3540649 C18.837899,11.4807129 18.6938178,11.5974426 18.5416031,11.7057801 C18.4687879,11.7572784 18.3940361,11.8068695 18.3181224,11.8534088 C18.1488657,11.958313 17.974574,12.0548248 17.7909867,12.1356964 C17.7301782,12.1623993 17.6666586,12.1849061 17.6043009,12.2089386 C17.3951508,12.2890473 17.1809657,12.3600006 16.957485,12.4073028 C16.9253378,12.4141693 16.8916414,12.4176025 16.8587196,12.4233246 C16.6058029,12.469101 16.34514,12.5 16.0767307,12.5 L5.92365666,12.5 C5.65563462,12.5 5.39497168,12.469101 5.14128036,12.4214172 C5.10797133,12.4156952 5.07504958,12.4122619 5.04212773,12.405777 C4.81864703,12.3592377 4.60484918,12.2882843 4.39569911,12.2074127 C4.33295413,12.1833801 4.26943448,12.1616363 4.20862596,12.1341705 C4.02503872,12.0532989 3.85074704,11.9567871 3.68149034,11.8515015 C3.60635129,11.8041992 3.53121214,11.7557525 3.45839693,11.7042541 C3.30695675,11.5959168 3.16210101,11.479187 3.02576615,11.3525391 C2.95411291,11.2857818 2.88633277,11.2133026 2.81932731,11.1408233 C2.12719546,10.4000092 1.69340266,9.41810605 1.69340266,8.33320615 C1.69301543,6.03599551 3.59085869,4.16679385 5.92326927,4.16679385 Z M2.52380597,32.6648712 C4.82600604,27.5291443 4.82252023,23.3242035 2.51102461,18.151474 C1.96762171,16.93573 1.69301543,15.7009125 1.69301543,14.4790649 L1.69301543,13.3335113 C1.69301543,13.1542206 1.81153376,12.940979 2.03075407,12.7182007 C2.29374084,12.9447937 2.57725549,13.1484985 2.8774245,13.3266449 C2.88594548,13.331604 2.89330449,13.3369445 2.90182537,13.3407593 C3.04009678,13.4216309 3.18107942,13.4967804 3.32593526,13.5665894 C3.34801219,13.577652 3.3708638,13.5875702 3.39255343,13.5986328 C3.52540249,13.6611938 3.66096267,13.7184143 3.79962137,13.7718201 C3.83757829,13.7859345 3.87669707,13.7992859 3.91465399,13.8134003 C4.04091861,13.8584137 4.16757062,13.9007568 4.29693387,13.9377594 C4.35541835,13.9541626 4.41467761,13.9675141 4.47393678,13.9827729 C4.58742003,14.0110016 4.69974142,14.0392304 4.8159358,14.0609741 C4.90618026,14.0785217 4.99836117,14.0892029 5.09092947,14.1025543 C5.18039925,14.1151428 5.26831967,14.1307831 5.35895141,14.1391754 C5.54524988,14.156723 5.73387229,14.1666412 5.92326927,14.1666412 L16.0767307,14.1666412 C16.2661277,14.1666412 16.4547501,14.156723 16.6418233,14.1384125 C16.7320676,14.1300201 16.8203754,14.1143799 16.9098452,14.1017914 C17.0012515,14.0884399 17.0938198,14.0773773 17.1840642,14.0602111 C17.2998713,14.0384674 17.4133546,14.0102387 17.5268379,13.9816284 C17.5860971,13.9667511 17.6453563,13.9533996 17.7038408,13.936615 C17.8332041,13.8999939 17.9602434,13.8576508 18.0861207,13.8126373 C18.1240775,13.7992859 18.1631964,13.7859345 18.2011532,13.7710571 C18.339812,13.7184143 18.4745976,13.6600494 18.6082212,13.5974884 C18.6302982,13.5868072 18.6527625,13.5768891 18.6748394,13.5658264 C18.8196953,13.4956359 18.9606778,13.420868 19.0989493,13.3399963 C19.1063082,13.3350372 19.1148292,13.330841 19.1225755,13.3258819 C19.4235192,13.1465912 19.7070337,12.9444122 19.9704079,12.7174377 C20.1884662,12.940979 20.3069847,13.1542206 20.3069847,13.3331299 L20.3069847,14.484024 C20.3069847,15.7024384 20.0327656,16.93573 19.4912993,18.1484223 C17.1782544,23.336792 17.1724447,27.5405884 19.4727082,32.660675 C19.8832621,33.5758209 20.143925,34.4989776 20.2512113,35.4167938 C19.7604832,35.1490021 19.1996512,35.0002289 18.6148056,35.0002289 L3.38519442,35.0002289 C2.8003489,35.0002289 2.23951685,35.1490021 1.74762681,35.4175567 C1.85452574,34.500885 2.1144141,33.5792541 2.52380597,32.6648712 Z M20.307372,48.3333588 L1.69301543,48.3333588 L1.69301543,46.2116241 C2.19652487,46.5015411 2.77672261,46.6667176 3.38519442,46.6667176 L18.6148056,46.6667176 C19.2232774,46.6667176 19.8038625,46.5015411 20.307372,46.2116241 L20.307372,48.3333588 Z" id="Shape"></path>
                </g>
            </g>
        </g>
    </g>
</svg>