<?xml version="1.0" encoding="UTF-8"?>
<svg width="31px" height="71px" viewBox="0 0 31 71" version="1.1" xmlns="http://www.w3.org/2000/svg" xmlns:xlink="http://www.w3.org/1999/xlink">
    <!-- Generator: sketchtool 58 (101010) - https://sketch.com -->
    <title>962CA266-A4F3-477C-990D-2459FB667FC8</title>
    <desc>Created with sketchtool.</desc>
    <g id="Design" stroke="none" stroke-width="1" fill="none" fill-rule="evenodd">
        <g id="UI-Kit-module-6" transform="translate(-160.000000, -542.000000)" fill="#C5C1C1" fill-rule="nonzero">
            <g id="atom/icons/90px/a-icon-pepper" transform="translate(130.000000, 533.000000)">
                <g id="002-pepper" transform="translate(30.000000, 9.000000)">
                    <path d="M13.4443823,37.4543487 L17.1112354,37.4543487 C19.8068257,37.4543487 22,35.3342072 22,32.7271744 C22,30.1201415 19.8068257,28 17.1112354,28 L11,28 L11,41 L13.4443823,41 L13.4443823,37.4543487 Z M13.4443823,30.3635873 L17.1112354,30.3635873 C18.4590306,30.3635873 19.5556177,31.4233874 19.5556177,32.7271744 C19.5556177,34.0309613 18.4590306,35.0907615 17.1112354,35.0907615 L13.4443823,35.0907615 L13.4443823,30.3635873 Z" id="Shape"></path>
                    <path d="M30.0786668,58.7454147 C29.743569,58.289856 29.743569,57.6777497 30.0786668,57.2221908 C30.8776623,56.1393586 31.1707364,54.8133088 30.9038589,53.4888839 C30.8749335,53.3480453 30.8225404,53.2180404 30.7821539,53.082077 C30.9109539,52.7364807 30.9988215,52.3990097 30.9988215,52.0664139 L30.9988215,51.6487732 C30.9988215,49.5708618 30.5343781,47.4761581 29.6185895,45.4209977 C26.6796612,38.8286667 26.689485,33.4112549 29.6496979,26.721962 C30.5447476,24.6982193 30.9993673,22.6278915 30.9993673,20.5673141 L30.9993673,18.9330444 C30.9993673,17.9748001 30.5605746,17.0788498 29.6960877,16.2587357 C30.5163679,14.9771042 30.9993673,13.461464 30.9993673,11.8331527 C30.9993673,7.2667313 27.2543485,3.54967495 22.6535751,3.54967495 L19.0766511,3.54967495 L19.0766511,0 L11.9233489,0 L11.9233489,3.55021661 L8.34642488,3.55021661 C3.7456515,3.55021661 0.00117854324,7.2667313 0.00117854324,11.8336945 C0.00117854324,13.4620056 0.4836322,14.9765625 1.30391234,16.2592773 C0.439971242,17.0777665 0.00117854324,17.9748001 0.00117854324,18.9335861 L0.00117854324,20.5602722 C0.00117854324,22.6251831 0.457981352,24.7009277 1.35739709,26.7290039 C4.31324395,33.3960876 4.31651845,38.8134994 1.3754072,45.4291229 C0.463438902,47.4788665 0.00117854324,49.5697785 0.00117854324,51.6406479 L0.00117854324,52.0669556 C0.00117854324,52.3979264 0.0890462563,52.7364807 0.217846083,53.0809937 C0.177459627,53.2158737 0.125066477,53.3458786 0.0961411271,53.4867172 C-0.170736444,54.8122253 0.122337702,56.1388168 0.921333235,57.2216492 C1.25643116,57.6772079 1.25643116,58.2887727 0.921333235,58.7443314 C0.169273302,59.7632446 -0.11561452,60.9999161 0.0726733272,62.2495881 C0.0333784649,62.4223861 0.00117854324,62.6054764 0.00117854324,62.8161926 L0.00117854324,71 L30.9988215,71 L30.9988215,62.8161926 C30.9988215,62.6071014 30.9655299,62.4223861 30.9262351,62.2495881 C31.1161604,61.0009994 30.8312726,59.7643279 30.0786668,58.7454147 L30.0786668,58.7454147 Z M2.75018165,62.7733993 C2.61210377,62.5534745 2.50840906,62.3097152 2.44892104,62.0469971 L2.42709056,61.9511185 C2.31739244,61.3059692 2.46092773,60.6656951 2.84569003,60.1429672 C3.0699981,59.8385392 3.23700133,59.5086517 3.35597737,59.1668473 L7.15448073,59.1668473 C7.81376119,59.1668473 8.34697075,58.6376189 8.34697075,57.983261 C8.34697075,57.3289031 7.81376119,56.8002166 7.15448073,56.8002166 L3.35488592,56.8002166 C3.23700133,56.4578704 3.06890665,56.1279831 2.84459844,55.8240967 C2.44510067,55.2829513 2.29938219,54.6166764 2.43309384,53.9482345 C2.45819896,53.8252717 2.49640237,53.7071838 2.5427921,53.5907211 L2.5739005,53.5186768 C2.57772087,53.5105514 2.58372428,53.5024261 2.58699879,53.4937591 C2.65740205,53.3339615 2.75618493,53.1958313 2.85660513,53.0582429 C3.22717755,52.5826416 3.78767513,52.2370452 4.42676244,52.1162491 C4.4747895,52.1092072 4.52008763,52.0999984 4.56866055,52.0951233 C4.68818246,52.0810394 4.80606705,52.0664139 4.92777187,52.0664139 L26.0727739,52.0664139 C26.1944788,52.0664139 26.3123634,52.0810394 26.4307937,52.0962067 C26.478275,52.1010819 26.5246648,52.1102905 26.5726918,52.1173324 C27.2117791,52.2381287 27.7722767,52.5837249 28.1439406,53.0604095 C28.2427235,53.1969147 28.3404149,53.3328781 28.4097267,53.4899674 C28.4146385,53.5018844 28.4217334,53.5116349 28.4277368,53.5235519 L28.4566622,53.5896378 C28.5030519,53.7055587 28.5423468,53.8247299 28.5663604,53.949318 C28.7000721,54.6166764 28.5543536,55.2829513 28.1548558,55.823555 C27.9305476,56.1279831 27.7635445,56.4578704 27.6445684,56.799675 L16.6927627,56.799675 C16.0334823,56.799675 15.5002729,57.3289031 15.5002729,57.983261 C15.5002729,58.6376189 16.0334823,59.1663055 16.6927627,59.1663055 L27.6456599,59.1663055 C27.7635445,59.5086517 27.9321849,59.8385392 28.1559474,60.1429672 C28.5423468,60.6656951 28.6853365,61.3070525 28.5745468,61.9505769 L28.5532621,62.045372 C28.493774,62.3070068 28.3895334,62.5507659 28.2514557,62.7706909 C27.8006563,63.4477996 26.97601,63.8995671 26.0744112,63.8995671 L4.92613454,63.8995671 C4.0245359,63.9001083 3.19988952,63.4477996 2.75018165,62.7733993 L2.75018165,62.7733993 Z M14.307783,2.36663052 L16.692217,2.36663052 L16.692217,3.55021661 L14.307783,3.55021661 L14.307783,2.36663052 Z M8.34642488,5.91684726 L22.6535751,5.91684726 C25.9406995,5.91684726 28.6149332,8.57057197 28.6149332,11.8331527 C28.6149332,13.3737106 28.0031341,14.768013 27.0267658,15.8221359 C26.9312574,15.9250565 26.8373865,16.0268937 26.7358747,16.1227722 C26.5443122,16.3026123 26.3412888,16.4683685 26.1268043,16.6222077 C26.0242011,16.6953354 25.9188691,16.7657547 25.8118997,16.8318405 C25.5734016,16.9808044 25.3278088,17.1178512 25.0691177,17.2326889 C24.983433,17.270607 24.893928,17.3025666 24.8060604,17.3366928 C24.5113489,17.4504471 24.2095425,17.5512008 23.8946379,17.61837 C23.8493396,17.6281205 23.8018583,17.6329956 23.7554686,17.6411209 C23.3990859,17.7061234 23.0317881,17.75 22.6535751,17.75 L8.34697075,17.75 C7.96930332,17.75 7.60200555,17.7061234 7.24453142,17.6384124 C7.19759596,17.6302872 7.15120623,17.6254119 7.10481635,17.6162033 C6.78991173,17.5501175 6.48865112,17.4493637 6.19393965,17.334526 C6.10552628,17.3003997 6.01602132,17.2695236 5.93033658,17.2305221 C5.67164547,17.1156845 5.42605265,16.9786377 5.18755457,16.8291321 C5.08167681,16.7619629 4.97579892,16.6931686 4.87319567,16.6200408 C4.6598027,16.4662019 4.45568779,16.3004456 4.26357958,16.1206055 C4.16261364,16.0258102 4.06710526,15.9228897 3.97268848,15.8199691 C2.99741179,14.768013 2.38615829,13.3737106 2.38615829,11.8331527 C2.38561265,8.57111362 5.05984633,5.91684726 8.34642488,5.91684726 Z M3.55627205,46.3841171 C6.80028124,39.091385 6.79536942,33.120369 3.53826194,25.7750931 C2.77255786,24.0487366 2.38561265,22.2952958 2.38561265,20.5602722 L2.38561265,18.9335861 C2.38561265,18.6789933 2.55261575,18.3761902 2.86151709,18.059845 C3.23208937,18.3816071 3.63158728,18.6708679 4.0545527,18.9238358 C4.06655954,18.9308777 4.07692905,18.9384612 4.08893574,18.9438782 C4.28377273,19.0587158 4.48243009,19.1654281 4.68654514,19.2645569 C4.71765354,19.2802658 4.74985353,19.2943497 4.7804162,19.3100586 C4.96761259,19.3988953 5.15862922,19.4801482 5.35401193,19.5559846 C5.40749668,19.576027 5.4626186,19.594986 5.51610335,19.6150284 C5.69402168,19.6789474 5.87248588,19.7390747 6.05477045,19.7916183 C6.1371804,19.8149109 6.22068209,19.83387 6.30418364,19.8555374 C6.46409186,19.8956222 6.62236291,19.9357071 6.78609136,19.9665833 C6.913254,19.9915008 7.04314528,20.0066682 7.17358243,20.0256271 C7.29965348,20.0435027 7.42354135,20.065712 7.55124972,20.0776291 C7.81376119,20.1025467 8.07954731,20.1166305 8.34642488,20.1166305 L22.6535751,20.1166305 C22.9204527,20.1166305 23.1862388,20.1025467 23.4498419,20.0765458 C23.5770044,20.0646286 23.7014381,20.0424194 23.8275092,20.0245438 C23.956309,20.0055847 24.0867461,19.9898758 24.2139086,19.9654998 C24.3770914,19.9346237 24.5369997,19.8945389 24.696908,19.8539124 C24.7804095,19.8327865 24.8639112,19.8138274 24.9463211,19.7899934 C25.1286057,19.7379914 25.3076156,19.6778641 25.4849882,19.613945 C25.5384729,19.594986 25.5935949,19.576027 25.6470795,19.5549011 C25.8424624,19.4801482 26.0323875,19.3972702 26.2206754,19.3084335 C26.2517838,19.2932663 26.2834381,19.2791825 26.3145465,19.2634734 C26.5186615,19.163803 26.7173187,19.0576325 26.9121559,18.9427947 C26.9225252,18.9357528 26.9345321,18.9297942 26.9454473,18.9227523 C27.3695043,18.6681595 27.7690021,18.3810653 28.1401202,18.0587615 C28.4473843,18.3761902 28.6143875,18.6789933 28.6143875,18.9330444 L28.6143875,20.5673141 C28.6143875,22.2974625 28.2279879,24.0487366 27.4650127,25.7707596 C24.2057222,33.1382446 24.1975357,39.1076355 27.4388161,46.3781585 C28.0173238,47.6776657 28.3846216,48.9885482 28.5357978,50.2918473 C27.8443173,49.9115829 27.054054,49.700325 26.2299533,49.700325 L4.77004669,49.700325 C3.94594618,49.700325 3.15568283,49.9115829 2.46256505,50.2929306 C2.61319536,48.9912566 2.97940168,47.6825408 3.55627205,46.3841171 Z M28.6149332,68.6333695 L2.38561265,68.6333695 L2.38561265,65.6205063 C3.09510322,66.0321884 3.91265459,66.266739 4.77004669,66.266739 L26.2299533,66.266739 C27.0873454,66.266739 27.9054426,66.0321884 28.6149332,65.6205063 L28.6149332,68.6333695 Z" id="Shape"></path>
                </g>
            </g>
        </g>
    </g>
</svg>