<?xml version="1.0" encoding="UTF-8"?>
<svg width="35px" height="35px" viewBox="0 0 35 35" version="1.1" xmlns="http://www.w3.org/2000/svg" xmlns:xlink="http://www.w3.org/1999/xlink">
    <!-- Generator: sketchtool 58 (101010) - https://sketch.com -->
    <title>2939B414-8A78-40DF-94EA-0E63DD74E012</title>
    <desc>Created with sketchtool.</desc>
    <g id="Design" stroke="none" stroke-width="1" fill="none" fill-rule="evenodd">
        <g id="UI-Kit-module-6" transform="translate(-413.000000, -188.000000)" fill="#e9eae2" fill-rule="nonzero">
            <g id="atom/icons/40px/a-icon-close" transform="translate(410.000000, 185.000000)">
                <g id="cancel" transform="translate(3.000000, 3.000000)">
                    <path d="M15.8262237,17.5053695 L0.333743506,33.1060839 C-0.0966639322,33.5394982 -0.0966639322,34.2416625 0.333743506,34.6750769 C0.548673776,34.8920594 0.8308723,35 1.11252393,35 C1.39472245,35 1.67637408,34.8920594 1.89130435,34.6750769 L17.5002734,18.9570598 L33.1092425,34.6750769 C33.3247197,34.8920594 33.6063713,35 33.888023,35 C34.1696746,35 34.4518731,34.8920594 34.6668034,34.6750769 C35.0972108,34.2416625 35.0972108,33.5394982 34.6668034,33.1060839 L19.1748701,17.5053695 L34.6771944,1.89364079 C35.1076019,1.46022642 35.1076019,0.758062105 34.6771944,0.324647738 C34.246787,-0.108215913 33.5494941,-0.108215913 33.1196336,0.324647738 L17.5008203,16.0536792 L1.88036642,0.325198455 C1.44995898,-0.107665195 0.753213016,-0.107665195 0.322805578,0.325198455 C-0.107601859,0.758612822 -0.107601859,1.46077714 0.322805578,1.89419151 L15.8262237,17.5053695 Z" id="Path"></path>
                </g>
            </g>
        </g>
    </g>
</svg>