<?xml version="1.0" encoding="UTF-8"?>
<svg width="71px" height="71px" viewBox="0 0 71 71" version="1.1" xmlns="http://www.w3.org/2000/svg" xmlns:xlink="http://www.w3.org/1999/xlink">
    <!-- Generator: sketchtool 58 (101010) - https://sketch.com -->
    <title>50E9FBED-25F2-4102-8E6C-B46F6CA213DD</title>
    <desc>Created with sketchtool.</desc>
    <g id="Design" stroke="none" stroke-width="1" fill="none" fill-rule="evenodd">
        <g id="UI-Kit-module-6" transform="translate(-240.000000, -542.000000)" fill="#C5C1C1" fill-rule="nonzero">
            <g id="atom/icons/90px/a-icon-plate" transform="translate(230.000000, 533.000000)">
                <g id="005-dish" transform="translate(10.000000, 9.000000)">
                    <path d="M35.5,0 C15.9261398,0 0,15.9261398 0,35.5 C0,55.0738602 15.9261398,71 35.5,71 C55.0738602,71 71,55.0738602 71,35.5 C71,15.9261398 55.0744019,0 35.5,0 Z M35.5,68.4183196 C17.34861,68.4183196 2.58168037,53.65139 2.58168037,35.5 C2.58168037,17.34861 17.34861,2.58168037 35.5,2.58168037 C53.65139,2.58168037 68.4183196,17.34861 68.4183196,35.5 C68.4183196,53.6519318 53.65139,68.4183196 35.5,68.4183196 Z" id="Shape"></path>
                    <path d="M40.7905988,35.2966014 L31.4936783,42.6806484 C30.9168393,43.1395781 30.8340285,43.9624676 31.3059361,44.5224058 C31.573653,44.8369592 31.9616155,45 32.3518468,45 C32.6535954,45 32.9564784,44.9033832 33.208881,44.7035622 L42.5058016,37.3195151 C43.0832077,36.8605856 43.1660183,36.0376961 42.6941107,35.4777579 C42.2193671,34.9200156 41.3691393,34.8387697 40.7905988,35.2966014 L40.7905988,35.2966014 Z" id="Path"></path>
                    <path d="M42.5063312,42.3195505 C43.0831591,41.8605573 43.1659683,41.0375539 42.6940697,40.4769893 C42.2193351,39.921366 41.3708251,39.8384616 40.7905939,40.2952587 L31.4938512,47.6803275 C30.916456,48.1393207 30.8342141,48.9623241 31.3061127,49.5223397 C31.5738244,49.8363877 31.9617795,50 32.3520033,50 C32.6537462,50 32.9566235,49.9033699 33.2090211,49.7029721 L42.5063312,42.3195505 Z" id="Path"></path>
                    <path d="M45.9303654,39.2978774 L38.4625571,45.6659578 C37.9220817,46.1282373 37.8444913,46.956143 38.2866501,47.5194944 C38.5374903,47.8354131 38.900996,48 39.2671588,48 C39.5493538,48 39.8331434,47.902242 40.0696346,47.7012029 L47.5374429,41.3331226 C48.0779183,40.8713952 48.1555087,40.0434896 47.7133499,39.4801382 C47.2674709,38.9206529 46.4724352,38.8372548 45.9303654,39.2978774 L45.9303654,39.2978774 Z" id="Path"></path>
                    <path d="M45.7909081,46.2969687 L36.4938671,53.6801873 C35.9164533,54.1396485 35.8342087,54.9625069 36.3061225,55.5224239 C36.5732756,55.8364165 36.9618103,56 37.3520467,56 C37.6537992,56 37.9561189,55.9033869 38.209092,55.7030245 L47.5061331,48.3198058 C48.0835467,47.8603446 48.1657912,47.0374862 47.6938775,46.4775694 C47.2196949,45.921495 46.3711577,45.8375074 45.7909081,46.2969687 L45.7909081,46.2969687 Z" id="Path"></path>
                    <path d="M9.43087455,30.7033871 C9.30090328,31.4090745 9.76945535,32.0864037 10.4761063,32.2161977 C10.5558366,32.2320131 10.6350208,32.2385573 10.7131128,32.2385573 C11.0293036,32.2385573 11.3192817,32.1098539 11.5508273,31.9135266 C12.4502507,32.8804384 13.5200569,33.6172111 14.6799692,34.0927594 C14.7176499,34.1123922 14.7433166,34.1434773 14.7826356,34.1592925 C14.8629121,34.1914684 14.9475572,34.2018301 15.0283798,34.2307338 C15.2042233,34.2945402 15.3800668,34.352893 15.5580949,34.4036109 C13.5905035,36.7884419 13.0569657,40.3506915 14.484466,43.5830019 C15.9720373,46.9516509 19.1596117,49.0010895 22.3843208,49 C23.3967865,49 24.4141672,48.798218 25.3823992,48.3722969 C29.4366313,46.5851733 31.1453721,41.5308364 29.1908871,37.1069284 C28.2537828,34.9860485 26.6214957,33.3156305 24.5938335,32.4059809 C24.2203025,32.2385573 23.8418565,32.1109445 23.4606801,32.0018738 C23.6086727,31.8224525 23.7506581,31.636487 23.8833599,31.4428865 C23.922679,31.3856244 23.9576293,31.3261807 23.9964023,31.2672827 C24.1422105,31.0398702 24.2776428,30.8031868 24.4026992,30.5588684 C24.4442027,30.4759747 24.4884366,30.3952623 24.5272096,30.3107325 C24.6653724,30.0129694 24.7926133,29.7092075 24.8969179,29.3896304 C24.8969179,29.3879943 24.8985563,29.3852676 24.8985563,29.3830861 C24.9176697,29.3247333 24.9296838,29.2631084 24.947705,29.2063916 C25.0323503,28.9304426 25.1017048,28.6512216 25.1574067,28.3692738 C25.1666905,28.3212827 25.1847117,28.275473 25.192357,28.2274819 C25.1967257,28.2094853 25.1885344,28.1925793 25.1912648,28.1740373 C25.4413777,26.7577541 25.3436262,25.2836634 24.902379,23.868471 C24.8996484,23.8564732 24.902379,23.8461115 24.8985563,23.8357498 C24.8903648,23.8112089 24.8788967,23.7877587 24.8707052,23.7632178 C24.7691311,23.4485487 24.6549965,23.1366065 24.5195641,22.8284817 C24.2880186,22.3049423 24.0133313,21.8097613 23.699871,21.3429387 C23.4590418,20.9840961 23.176163,20.6645188 22.8927381,20.3476685 C22.8091851,20.2538677 22.7441994,20.1458876 22.6557315,20.0564496 C22.6546393,20.0564496 22.6546393,20.0548136 22.6535471,20.0548136 C21.8688042,19.2465996 20.9469906,18.5905392 19.9219646,18.1291702 C19.6511,18.007011 19.3764126,17.9028485 19.1006331,17.8117744 C19.3026893,17.3400436 19.2164059,16.7761479 18.8352294,16.388947 C18.331727,15.8757693 17.5065728,15.8703157 16.9948789,16.3731318 C16.6475606,16.7139777 16.3209939,17.0760925 15.9916967,17.4376619 C15.179649,17.5074672 14.3817997,17.7065212 13.6216312,18.0419136 C11.6343803,18.9177514 10.1473552,20.58926 9.4363356,22.7477694 C8.75589734,24.8184768 8.87549285,27.0980547 9.76563263,29.1862135 C9.64603726,29.6873934 9.52480342,30.1902094 9.43087455,30.7033871 L9.43087455,30.7033871 Z M26.8088072,38.1545527 C28.1844283,41.2685214 27.0731189,44.7849611 24.3338909,45.992374 C21.5941168,47.2003321 18.2416207,45.6482558 16.8676381,42.534287 C15.4931092,39.4203182 16.6033265,35.9022424 19.3425544,34.6959204 C19.9661985,34.4216077 20.6297077,34.2852692 21.3068693,34.2852692 C22.0446478,34.2852692 22.798263,34.4494206 23.5267579,34.7766327 C24.9662724,35.4228766 26.1321918,36.6237452 26.8088072,38.1545527 Z M11.9101598,23.5565288 C12.3863573,22.1080697 13.3676955,20.9911857 14.6717777,20.418019 C15.2670247,20.1567947 15.8994061,20.0280912 16.5432558,20.0166388 L16.5820288,20.0166388 C16.7125461,20.0182749 16.8283191,20.0346355 16.9517372,20.0428158 C17.1428716,20.0542682 17.3345519,20.0728103 17.5256863,20.1066221 C17.6660334,20.131163 17.8080189,20.1622483 17.9500044,20.198787 C18.2530889,20.2778632 18.5550811,20.3651198 18.8532506,20.4987314 C19.5730079,20.8226714 20.2234107,21.2840405 20.7793385,21.8544802 C20.7815229,21.8572071 20.7831612,21.8621152 20.7858917,21.864842 C21.0654939,22.1533341 21.3194296,22.466367 21.5444219,22.8006687 C21.7694144,23.1371518 21.9671018,23.4959945 22.1353,23.8755606 C22.8108233,25.4036413 22.9123976,27.0675149 22.4241859,28.5617836 C22.4176327,28.5841432 22.4061647,28.6037758 22.3996115,28.6255899 C22.2980373,28.9244438 22.1707964,29.2053008 22.0271727,29.4730694 C21.984577,29.5537818 21.9403431,29.6317674 21.8933786,29.7081169 C21.7503009,29.947527 21.5913864,30.1733034 21.4155429,30.3827192 C21.3855074,30.4181671 21.3609329,30.4585233 21.3308976,30.4923352 C20.8661681,31.0131479 20.3042332,31.4303433 19.6614757,31.7139272 C19.3349091,31.8579005 18.9990588,31.9566096 18.6593859,32.0242333 C18.5965845,32.0373218 18.5332372,32.0400486 18.4704359,32.0504103 C18.2115854,32.0907665 17.9500044,32.1103992 17.6884234,32.1088575 C17.5972252,32.1088575 17.5049345,32.1088575 17.4126439,32.1033097 C17.101368,32.0853129 16.7900921,32.0476835 16.4842772,31.9751515 C16.4285751,31.9620631 16.3739655,31.9369767 16.3177173,31.921707 C15.0398479,31.573226 13.855361,30.7519235 12.9837887,29.5745053 C12.8991434,29.461617 12.8117677,29.3509102 12.735314,29.2314778 C12.5518251,28.9478939 12.3836268,28.6490402 12.2378186,28.3321898 L12.1804784,28.2138481 C11.521338,26.6955838 11.4224942,25.0426172 11.9101598,23.5565288 Z" id="Shape"></path>
                    <path d="M38.4707301,59.0075805 C37.1453108,59.1275197 35.8016057,59.1444808 34.4938823,59.0608868 C33.6999285,59.0178784 33.0516705,59.6181795 33.0027119,60.4117158 C32.9549331,61.2088866 33.544205,61.8933875 34.3181036,61.9436649 C34.9215322,61.9794043 35.5284998,62 36.1401864,62 C36.9960758,62 37.8649421,61.9606259 38.718472,61.8824839 C39.4929604,61.8122165 40.0633567,61.1119662 39.9943429,60.3178241 C39.9259188,59.5242879 39.2357807,58.9251981 38.4707301,59.0075805 L38.4707301,59.0075805 Z" id="Path"></path>
                    <path d="M56.4313032,24.3139653 C56.682807,24.7529826 57.1489813,25 57.6301191,25 C57.8563,25 58.0853584,24.9455439 58.2965757,24.8304563 C58.9578525,24.4705968 59.1949683,23.6554393 58.8260576,23.0109484 C58.1279473,21.7910192 57.3296957,20.6131951 56.453173,19.5162131 C55.9869988,18.9329152 55.1254396,18.8284942 54.5291971,19.282108 C53.9312279,19.7368447 53.8241804,20.5772653 54.2892036,21.1588791 C55.0805488,22.1503173 55.8005291,23.2113693 56.4313032,24.3139653 Z" id="Path"></path>
                    <path d="M58.0894927,27.662666 C58.5522409,28.7486794 58.9226775,29.8760452 59.1894872,31.013232 C59.3252743,31.5973324 59.9172583,32 60.5789226,32 C60.6712341,32 60.7677144,31.9912125 60.8630036,31.9741548 C61.6306771,31.83976 62.1273719,31.1879452 61.9713359,30.5216571 C61.6747483,29.2614473 61.2644092,28.0100249 60.7504432,26.8051237 C60.4782735,26.1667484 59.659382,25.8390318 58.9268465,26.078358 C58.1919286,26.3145827 57.8155363,27.0258414 58.0894927,27.662666 L58.0894927,27.662666 Z" id="Path"></path>
                    <path d="M45.2786718,57.1079891 C44.2042501,57.6010609 43.0818909,58.0084309 41.9444212,58.3163864 C41.27903,58.4957893 40.8715626,59.2339687 41.036738,59.9635779 C41.1758606,60.5846313 41.6838921,61 42.2414243,61 C42.3393832,61 42.4399474,60.9874305 42.5394695,60.9605771 C43.8019932,60.6200547 45.0462799,60.1692625 46.2384608,59.6207701 C46.8705042,59.3305262 47.1685494,58.5329267 46.9028097,57.8381696 C46.6396754,57.1451266 45.9107152,56.812603 45.2786718,57.1079891 L45.2786718,57.1079891 Z" id="Path"></path>
                    <path d="M59.9981346,41.0420136 C59.2793387,40.8648109 58.5458848,41.2646933 58.3575885,41.9301185 C58.0368081,43.0649481 57.6162421,44.1846188 57.1122392,45.2572445 C56.8157007,45.8876474 57.1268971,46.6225946 57.8084847,46.896501 C57.982687,46.9675912 58.1659096,47 58.3429307,47 C58.8615913,47 59.3560103,46.719821 59.5764409,46.251462 C60.1351286,45.0617465 60.6002319,43.8208042 60.9548379,42.5615667 C61.1453893,41.8977098 60.7152392,41.2160802 59.9981346,41.0420136 L59.9981346,41.0420136 Z" id="Path"></path>
                    <path d="M35.4076251,11.7261292 L35.4359724,11.7261292 L35.6220012,11.7249857 L35.6485767,11.7249857 C36.8982178,11.7249857 38.1561269,11.8124643 39.3904132,11.9851344 C39.4595096,11.9959977 39.5268344,12 39.5947495,12 C40.2827609,12 40.8839587,11.5122928 40.9849458,10.8341909 C41.0977442,10.0886221 40.5644616,9.39794168 39.7943615,9.28987996 C38.4266068,9.09662675 37.0316862,9 35.6497578,9 C35.6397182,9 35.6296786,9 35.6202295,9 L35.3792779,9.00114358 C34.6009097,9.01658101 33.9843572,9.63922248 34.0003024,10.3910807 C34.0144761,11.1337909 34.6422495,11.7261292 35.4076251,11.7261292 Z" id="Path"></path>
                    <path d="M52.0430833,17.6477173 C52.2667424,17.8836548 52.5531233,18 52.8404767,18 C53.1472786,18 53.4545668,17.8657971 53.682602,17.5963091 C54.1231132,17.0789785 54.102206,16.2629382 53.6378702,15.7726646 C52.7592787,14.8483962 51.8116447,13.9933938 50.8173339,13.229303 C50.2902764,12.8245297 49.5682463,12.9690143 49.2055296,13.5572344 C48.8418404,14.1427486 48.9736047,14.9463426 49.4996899,15.3511161 C50.395299,16.0421528 51.2520106,16.8132783 52.0430833,17.6477173 L52.0430833,17.6477173 Z" id="Path"></path>
                    <path d="M42.8888397,12.5298919 C44.0161601,12.885607 45.1292439,13.3374467 46.1948727,13.8691186 C46.3720381,13.9570971 46.5581672,14 46.7427144,14 C47.2088283,14 47.6575418,13.7322633 47.8737258,13.2717344 C48.1763833,12.6298179 47.9164353,11.8543048 47.2921381,11.5425789 C46.1120901,10.9506255 44.877205,10.4515382 43.625447,10.0567215 C42.9631858,9.84818016 42.2597971,10.2326783 42.0562677,10.9147824 C41.8511566,11.5963435 42.2244694,12.3186351 42.8888397,12.5298919 Z" id="Path"></path>
                    <path d="M61.9677092,34.3395972 C61.9318306,33.5875116 61.3003679,33 60.545124,33 C60.522401,33 60.5008739,33 60.4769548,33.0011798 C59.6900183,33.0365719 59.0830725,33.6960479 59.1201471,34.4717284 C59.1386842,34.8905367 59.1500458,35.3140642 59.1500458,35.7393612 C59.1500458,36.6477627 59.1034036,37.5585236 59.0077274,38.448639 C58.9264027,39.2213702 59.496274,39.9115193 60.2790247,39.9935114 C60.3286568,39.9976405 60.3782888,40 60.4267248,40 C61.1478839,40 61.7661913,39.4620376 61.8433302,38.7406252 C61.9473781,37.7543608 62,36.7445015 62,35.7393612 C62,35.2698239 61.9886384,34.8032358 61.9677092,34.3395972 L61.9677092,34.3395972 Z" id="Path"></path>
                    <path d="M57.3830099,48.1749671 C56.7658184,47.8407718 55.9493719,47.9995026 55.5580769,48.5301988 C54.8953732,49.4338168 54.143865,50.3030112 53.3251983,51.1129206 C52.8450987,51.5872005 52.9033768,52.3072263 53.4550748,52.7198306 C53.7053926,52.9077258 54.0145433,53 54.322584,53 C54.6905678,53 55.0596616,52.8680431 55.3199698,52.6079541 C56.2274411,51.7124639 57.0583184,50.7500391 57.7948409,49.7474535 C58.1861358,49.2162791 58.0007564,48.5120309 57.3830099,48.1749671 L57.3830099,48.1749671 Z" id="Path"></path>
                    <path d="M15.3827038,49.5113258 C14.9809852,48.9818256 14.1715439,48.8407543 13.5771531,49.195848 C12.9800332,49.5504586 12.8201099,50.2654772 13.2207368,50.793528 C13.975051,51.7897229 14.823245,52.7438863 15.7413032,53.6284801 C15.9978354,53.8758379 16.3487935,54 16.69866,54 C17.0135943,54 17.3296202,53.899994 17.579057,53.696117 C18.1074044,53.2656566 18.1439739,52.5371105 17.6571082,52.0694497 C16.8274718,51.2703681 16.0627873,50.4104134 15.3827038,49.5113258 L15.3827038,49.5113258 Z" id="Path"></path>
                    <path d="M23.438493,56.465564 C22.5274353,55.8272531 21.6450686,55.0994647 20.8214949,54.2992966 C20.3360992,53.8268325 19.6319932,53.9259987 19.2463105,54.510167 C18.8587464,55.0954753 18.937294,55.9509258 19.4203381,56.4182605 C20.3328067,57.3039169 21.3087721,58.112064 22.3176616,58.8181954 C22.4935704,58.941868 22.6864118,59 22.8769014,59 C23.2649358,59 23.6416819,58.755504 23.849104,58.3212248 C24.1595314,57.6715155 23.9756267,56.8405715 23.438493,56.465564 L23.438493,56.465564 Z" id="Path" transform="translate(21.500000, 56.500000) rotate(-15.000000) translate(-21.500000, -56.500000) "></path>
                    <path d="M31.0279671,58.2356764 C29.8896947,57.9527279 28.7638681,57.5682235 27.6826391,57.0950774 C27.0437546,56.8150641 26.3296766,57.1749134 26.0833535,57.894025 C25.8375488,58.6131365 26.1538797,59.4255858 26.7891342,59.7044251 C27.9891169,60.2304038 29.2362901,60.6554134 30.4990204,60.9677133 C30.5882154,60.9900205 30.6768917,61 30.7650495,61 C31.3334078,61 31.8452415,60.5550314 31.9712551,59.899906 C32.1169747,59.1473338 31.6943361,58.4000448 31.0279671,58.2356764 Z" id="Path"></path>
                    <path d="M13.8762258,45.2168286 C13.3532852,44.149763 12.9144767,43.0359376 12.568599,41.9037236 C12.3667911,41.239106 11.6376435,40.8555718 10.9447882,41.0510167 C10.2502832,41.2438346 9.85051664,41.9389247 10.0523245,42.6024913 C10.4350446,43.8581718 10.9222429,45.0938875 11.5001721,46.2786404 C11.7228757,46.7331022 12.1946771,47 12.6890239,47 C12.874885,47 13.0634956,46.962172 13.2427581,46.8823128 C13.8998709,46.5891455 14.1830618,45.8425673 13.8762258,45.2168286 Z" id="Path"></path>
                    <path d="M51.1358923,53.3146228 C50.3249911,54.1248213 49.4523341,54.8695095 48.5407234,55.5274109 C48.0077234,55.913193 47.8400326,56.7334699 48.1673384,57.3622556 C48.3801584,57.7732339 48.7540186,58 49.1340543,58 C49.3354732,58 49.5392673,57.9356096 49.7240597,57.8034694 C50.7340046,57.0750187 51.7007203,56.2508224 52.5995048,55.3538368 C53.0759746,54.8773484 53.1363053,54.0357946 52.7320423,53.472519 C52.3277793,52.9103633 51.6156875,52.839814 51.1358923,53.3146228 L51.1358923,53.3146228 Z" id="Path"></path>
                    <path d="M20.3213949,16 C20.5865304,16 20.856094,15.9136785 21.0880184,15.7351232 C22.1026181,14.9600036 23.1747839,14.2641107 24.2790537,13.6651816 C24.9277776,13.3128006 25.1862709,12.4643671 24.8569272,11.7696566 C24.5270301,11.0779024 23.7343913,10.8006093 23.0823463,11.1529901 C21.8596234,11.8163648 20.6723258,12.5873456 19.5514504,13.4452391 C18.9591854,13.89754 18.8219127,14.778492 19.2475687,15.411122 C19.5066153,15.7942474 19.9101306,16 20.3213949,16 Z" id="Path"></path>
                    <path d="M10.792781,39.9876033 C11.5527198,39.8878395 12.088052,39.1829988 11.9879682,38.4120426 C11.8465708,37.29634 11.7732535,36.1540733 11.7732535,35.0171192 L11.780236,34.4362456 C11.7953651,33.6582053 11.1867156,33.0165289 10.4227035,33 C9.70407825,33.0070838 9.02327531,33.6033057 9.00698274,34.3772137 L9,35.0171192 C9,36.2762691 9.0802999,37.5395513 9.23973586,38.7744982 C9.32992758,39.4834712 9.9263574,40 10.6123973,40 C10.6723312,40 10.7316832,39.9958677 10.792781,39.9876033 Z" id="Path"></path>
                    <path d="M28.2247847,13 C28.3512372,13 28.4782038,12.9764026 28.6056844,12.926103 C29.6995501,12.4957619 30.8314543,12.1629151 31.9710693,11.9406031 C32.6388003,11.8089547 33.0916648,11.0482507 32.9842316,10.2434569 C32.8747421,9.43680006 32.2537882,8.88785118 31.5788608,9.01949955 C30.3158777,9.26789271 29.0590629,9.63489364 27.8449131,10.1142924 C27.2033979,10.3676535 26.850256,11.2022545 27.0610103,11.980346 C27.2301277,12.6050549 27.710236,13 28.2247847,13 Z" id="Path"></path>
                    <path d="M29.5377472,14.6307132 C25.5532914,16.3983181 23.8748065,21.400505 25.7948387,25.7798473 C27.2634459,29.1293912 30.4180526,31.1603826 33.5533357,31.1603826 C34.182432,31.1603826 34.8104547,31.0691688 35.4245215,30.899155 C37.0530866,33.4741909 39.7675407,35.0010778 42.514201,35 C43.5093757,35 44.5093813,34.8002993 45.4610773,34.3787728 C49.4471435,32.6100885 51.1256282,27.6079016 49.2045225,23.2296387 C48.2834226,21.1301019 46.6790121,19.4774588 44.6859791,18.5771947 C43.0155458,17.8221171 41.2361478,17.674232 39.5705456,18.1205859 C37.3450904,14.5681049 33.1405583,13.0336619 29.5377472,14.6307132 Z M28.1362364,24.741953 C26.7841087,21.6601135 27.876439,18.1783367 30.5688854,16.9850009 C31.1985185,16.7054226 31.8571373,16.5731896 32.5146825,16.5731896 C34.295154,16.5731896 36.0681107,17.5441579 37.2307581,19.212453 C37.2307581,19.212453 37.2296845,19.2140722 37.228611,19.2151517 C36.8893713,19.4553301 36.5758967,19.7268125 36.2817458,20.0198841 C36.2758413,20.0263608 36.2694001,20.0328376 36.2629588,20.0393143 C35.4250583,20.8856057 34.7761013,21.9353742 34.379964,23.1470606 C33.8297731,24.8293886 33.817964,26.6520456 34.3117939,28.3948232 C34.3219926,28.4320643 34.3246764,28.468226 34.3364855,28.5054671 C31.9006158,28.8994675 29.3015677,27.399567 28.1362364,24.741953 L28.1362364,24.741953 Z M43.6360538,20.9233867 C45.0509838,21.562423 46.1980647,22.7509011 46.8620513,24.2675332 C48.2152525,27.3493725 47.1229223,30.83007 44.4288655,32.0250248 C41.736419,33.2199796 38.4422516,31.6839175 37.0906606,28.6020782 C36.4610275,27.1680243 36.3815853,25.6524718 36.7294133,24.3139496 C36.7551783,24.2162591 36.765377,24.1142508 36.795973,24.0181794 C36.8829301,23.7429189 37.0020933,23.4854693 37.1260876,23.2307183 C37.1609777,23.1616332 37.1835222,23.0828331 37.2210961,23.015907 C37.3628038,22.755219 37.534034,22.51612 37.7159996,22.2845773 C37.7530368,22.2365416 37.780949,22.1814896 37.82067,22.1361524 C38.0139078,21.9073083 38.236668,21.7054506 38.4690901,21.5165463 C38.5114951,21.4830832 38.544775,21.4393654 38.5882535,21.4069818 C38.8684482,21.19325 39.1727977,21.0097429 39.5039858,20.8602387 L39.552832,20.8386496 C40.1577737,20.5736438 40.8024364,20.4397584 41.4572978,20.4397584 C42.1819395,20.4370929 42.921074,20.5990108 43.6360538,20.9233867 Z" id="Shape"></path>
                </g>
                <g id="005-dish" transform="translate(10.000000, 9.000000)">
                    <path d="M35.5,0 C15.9261398,0 0,15.9261398 0,35.5 C0,55.0738602 15.9261398,71 35.5,71 C55.0738602,71 71,55.0738602 71,35.5 C71,15.9261398 55.0744019,0 35.5,0 Z M35.5,68.4183196 C17.34861,68.4183196 2.58168037,53.65139 2.58168037,35.5 C2.58168037,17.34861 17.34861,2.58168037 35.5,2.58168037 C53.65139,2.58168037 68.4183196,17.34861 68.4183196,35.5 C68.4183196,53.6519318 53.65139,68.4183196 35.5,68.4183196 Z" id="Shape"></path>
                    <path d="M40.7905988,35.2966014 L31.4936783,42.6806484 C30.9168393,43.1395781 30.8340285,43.9624676 31.3059361,44.5224058 C31.573653,44.8369592 31.9616155,45 32.3518468,45 C32.6535954,45 32.9564784,44.9033832 33.208881,44.7035622 L42.5058016,37.3195151 C43.0832077,36.8605856 43.1660183,36.0376961 42.6941107,35.4777579 C42.2193671,34.9200156 41.3691393,34.8387697 40.7905988,35.2966014 L40.7905988,35.2966014 Z" id="Path"></path>
                    <path d="M42.5063312,42.3195505 C43.0831591,41.8605573 43.1659683,41.0375539 42.6940697,40.4769893 C42.2193351,39.921366 41.3708251,39.8384616 40.7905939,40.2952587 L31.4938512,47.6803275 C30.916456,48.1393207 30.8342141,48.9623241 31.3061127,49.5223397 C31.5738244,49.8363877 31.9617795,50 32.3520033,50 C32.6537462,50 32.9566235,49.9033699 33.2090211,49.7029721 L42.5063312,42.3195505 Z" id="Path"></path>
                    <path d="M45.9303654,39.2978774 L38.4625571,45.6659578 C37.9220817,46.1282373 37.8444913,46.956143 38.2866501,47.5194944 C38.5374903,47.8354131 38.900996,48 39.2671588,48 C39.5493538,48 39.8331434,47.902242 40.0696346,47.7012029 L47.5374429,41.3331226 C48.0779183,40.8713952 48.1555087,40.0434896 47.7133499,39.4801382 C47.2674709,38.9206529 46.4724352,38.8372548 45.9303654,39.2978774 L45.9303654,39.2978774 Z" id="Path"></path>
                    <path d="M45.7909081,46.2969687 L36.4938671,53.6801873 C35.9164533,54.1396485 35.8342087,54.9625069 36.3061225,55.5224239 C36.5732756,55.8364165 36.9618103,56 37.3520467,56 C37.6537992,56 37.9561189,55.9033869 38.209092,55.7030245 L47.5061331,48.3198058 C48.0835467,47.8603446 48.1657912,47.0374862 47.6938775,46.4775694 C47.2196949,45.921495 46.3711577,45.8375074 45.7909081,46.2969687 L45.7909081,46.2969687 Z" id="Path"></path>
                    <path d="M9.43087455,30.7033871 C9.30090328,31.4090745 9.76945535,32.0864037 10.4761063,32.2161977 C10.5558366,32.2320131 10.6350208,32.2385573 10.7131128,32.2385573 C11.0293036,32.2385573 11.3192817,32.1098539 11.5508273,31.9135266 C12.4502507,32.8804384 13.5200569,33.6172111 14.6799692,34.0927594 C14.7176499,34.1123922 14.7433166,34.1434773 14.7826356,34.1592925 C14.8629121,34.1914684 14.9475572,34.2018301 15.0283798,34.2307338 C15.2042233,34.2945402 15.3800668,34.352893 15.5580949,34.4036109 C13.5905035,36.7884419 13.0569657,40.3506915 14.484466,43.5830019 C15.9720373,46.9516509 19.1596117,49.0010895 22.3843208,49 C23.3967865,49 24.4141672,48.798218 25.3823992,48.3722969 C29.4366313,46.5851733 31.1453721,41.5308364 29.1908871,37.1069284 C28.2537828,34.9860485 26.6214957,33.3156305 24.5938335,32.4059809 C24.2203025,32.2385573 23.8418565,32.1109445 23.4606801,32.0018738 C23.6086727,31.8224525 23.7506581,31.636487 23.8833599,31.4428865 C23.922679,31.3856244 23.9576293,31.3261807 23.9964023,31.2672827 C24.1422105,31.0398702 24.2776428,30.8031868 24.4026992,30.5588684 C24.4442027,30.4759747 24.4884366,30.3952623 24.5272096,30.3107325 C24.6653724,30.0129694 24.7926133,29.7092075 24.8969179,29.3896304 C24.8969179,29.3879943 24.8985563,29.3852676 24.8985563,29.3830861 C24.9176697,29.3247333 24.9296838,29.2631084 24.947705,29.2063916 C25.0323503,28.9304426 25.1017048,28.6512216 25.1574067,28.3692738 C25.1666905,28.3212827 25.1847117,28.275473 25.192357,28.2274819 C25.1967257,28.2094853 25.1885344,28.1925793 25.1912648,28.1740373 C25.4413777,26.7577541 25.3436262,25.2836634 24.902379,23.868471 C24.8996484,23.8564732 24.902379,23.8461115 24.8985563,23.8357498 C24.8903648,23.8112089 24.8788967,23.7877587 24.8707052,23.7632178 C24.7691311,23.4485487 24.6549965,23.1366065 24.5195641,22.8284817 C24.2880186,22.3049423 24.0133313,21.8097613 23.699871,21.3429387 C23.4590418,20.9840961 23.176163,20.6645188 22.8927381,20.3476685 C22.8091851,20.2538677 22.7441994,20.1458876 22.6557315,20.0564496 C22.6546393,20.0564496 22.6546393,20.0548136 22.6535471,20.0548136 C21.8688042,19.2465996 20.9469906,18.5905392 19.9219646,18.1291702 C19.6511,18.007011 19.3764126,17.9028485 19.1006331,17.8117744 C19.3026893,17.3400436 19.2164059,16.7761479 18.8352294,16.388947 C18.331727,15.8757693 17.5065728,15.8703157 16.9948789,16.3731318 C16.6475606,16.7139777 16.3209939,17.0760925 15.9916967,17.4376619 C15.179649,17.5074672 14.3817997,17.7065212 13.6216312,18.0419136 C11.6343803,18.9177514 10.1473552,20.58926 9.4363356,22.7477694 C8.75589734,24.8184768 8.87549285,27.0980547 9.76563263,29.1862135 C9.64603726,29.6873934 9.52480342,30.1902094 9.43087455,30.7033871 L9.43087455,30.7033871 Z M26.8088072,38.1545527 C28.1844283,41.2685214 27.0731189,44.7849611 24.3338909,45.992374 C21.5941168,47.2003321 18.2416207,45.6482558 16.8676381,42.534287 C15.4931092,39.4203182 16.6033265,35.9022424 19.3425544,34.6959204 C19.9661985,34.4216077 20.6297077,34.2852692 21.3068693,34.2852692 C22.0446478,34.2852692 22.798263,34.4494206 23.5267579,34.7766327 C24.9662724,35.4228766 26.1321918,36.6237452 26.8088072,38.1545527 Z M11.9101598,23.5565288 C12.3863573,22.1080697 13.3676955,20.9911857 14.6717777,20.418019 C15.2670247,20.1567947 15.8994061,20.0280912 16.5432558,20.0166388 L16.5820288,20.0166388 C16.7125461,20.0182749 16.8283191,20.0346355 16.9517372,20.0428158 C17.1428716,20.0542682 17.3345519,20.0728103 17.5256863,20.1066221 C17.6660334,20.131163 17.8080189,20.1622483 17.9500044,20.198787 C18.2530889,20.2778632 18.5550811,20.3651198 18.8532506,20.4987314 C19.5730079,20.8226714 20.2234107,21.2840405 20.7793385,21.8544802 C20.7815229,21.8572071 20.7831612,21.8621152 20.7858917,21.864842 C21.0654939,22.1533341 21.3194296,22.466367 21.5444219,22.8006687 C21.7694144,23.1371518 21.9671018,23.4959945 22.1353,23.8755606 C22.8108233,25.4036413 22.9123976,27.0675149 22.4241859,28.5617836 C22.4176327,28.5841432 22.4061647,28.6037758 22.3996115,28.6255899 C22.2980373,28.9244438 22.1707964,29.2053008 22.0271727,29.4730694 C21.984577,29.5537818 21.9403431,29.6317674 21.8933786,29.7081169 C21.7503009,29.947527 21.5913864,30.1733034 21.4155429,30.3827192 C21.3855074,30.4181671 21.3609329,30.4585233 21.3308976,30.4923352 C20.8661681,31.0131479 20.3042332,31.4303433 19.6614757,31.7139272 C19.3349091,31.8579005 18.9990588,31.9566096 18.6593859,32.0242333 C18.5965845,32.0373218 18.5332372,32.0400486 18.4704359,32.0504103 C18.2115854,32.0907665 17.9500044,32.1103992 17.6884234,32.1088575 C17.5972252,32.1088575 17.5049345,32.1088575 17.4126439,32.1033097 C17.101368,32.0853129 16.7900921,32.0476835 16.4842772,31.9751515 C16.4285751,31.9620631 16.3739655,31.9369767 16.3177173,31.921707 C15.0398479,31.573226 13.855361,30.7519235 12.9837887,29.5745053 C12.8991434,29.461617 12.8117677,29.3509102 12.735314,29.2314778 C12.5518251,28.9478939 12.3836268,28.6490402 12.2378186,28.3321898 L12.1804784,28.2138481 C11.521338,26.6955838 11.4224942,25.0426172 11.9101598,23.5565288 Z" id="Shape"></path>
                    <path d="M38.4707301,59.0075805 C37.1453108,59.1275197 35.8016057,59.1444808 34.4938823,59.0608868 C33.6999285,59.0178784 33.0516705,59.6181795 33.0027119,60.4117158 C32.9549331,61.2088866 33.544205,61.8933875 34.3181036,61.9436649 C34.9215322,61.9794043 35.5284998,62 36.1401864,62 C36.9960758,62 37.8649421,61.9606259 38.718472,61.8824839 C39.4929604,61.8122165 40.0633567,61.1119662 39.9943429,60.3178241 C39.9259188,59.5242879 39.2357807,58.9251981 38.4707301,59.0075805 L38.4707301,59.0075805 Z" id="Path"></path>
                    <path d="M56.4313032,24.3139653 C56.682807,24.7529826 57.1489813,25 57.6301191,25 C57.8563,25 58.0853584,24.9455439 58.2965757,24.8304563 C58.9578525,24.4705968 59.1949683,23.6554393 58.8260576,23.0109484 C58.1279473,21.7910192 57.3296957,20.6131951 56.453173,19.5162131 C55.9869988,18.9329152 55.1254396,18.8284942 54.5291971,19.282108 C53.9312279,19.7368447 53.8241804,20.5772653 54.2892036,21.1588791 C55.0805488,22.1503173 55.8005291,23.2113693 56.4313032,24.3139653 Z" id="Path"></path>
                    <path d="M58.0894927,27.662666 C58.5522409,28.7486794 58.9226775,29.8760452 59.1894872,31.013232 C59.3252743,31.5973324 59.9172583,32 60.5789226,32 C60.6712341,32 60.7677144,31.9912125 60.8630036,31.9741548 C61.6306771,31.83976 62.1273719,31.1879452 61.9713359,30.5216571 C61.6747483,29.2614473 61.2644092,28.0100249 60.7504432,26.8051237 C60.4782735,26.1667484 59.659382,25.8390318 58.9268465,26.078358 C58.1919286,26.3145827 57.8155363,27.0258414 58.0894927,27.662666 L58.0894927,27.662666 Z" id="Path"></path>
                    <path d="M45.2786718,57.1079891 C44.2042501,57.6010609 43.0818909,58.0084309 41.9444212,58.3163864 C41.27903,58.4957893 40.8715626,59.2339687 41.036738,59.9635779 C41.1758606,60.5846313 41.6838921,61 42.2414243,61 C42.3393832,61 42.4399474,60.9874305 42.5394695,60.9605771 C43.8019932,60.6200547 45.0462799,60.1692625 46.2384608,59.6207701 C46.8705042,59.3305262 47.1685494,58.5329267 46.9028097,57.8381696 C46.6396754,57.1451266 45.9107152,56.812603 45.2786718,57.1079891 L45.2786718,57.1079891 Z" id="Path"></path>
                    <path d="M59.9981346,41.0420136 C59.2793387,40.8648109 58.5458848,41.2646933 58.3575885,41.9301185 C58.0368081,43.0649481 57.6162421,44.1846188 57.1122392,45.2572445 C56.8157007,45.8876474 57.1268971,46.6225946 57.8084847,46.896501 C57.982687,46.9675912 58.1659096,47 58.3429307,47 C58.8615913,47 59.3560103,46.719821 59.5764409,46.251462 C60.1351286,45.0617465 60.6002319,43.8208042 60.9548379,42.5615667 C61.1453893,41.8977098 60.7152392,41.2160802 59.9981346,41.0420136 L59.9981346,41.0420136 Z" id="Path"></path>
                    <path d="M35.4076251,11.7261292 L35.4359724,11.7261292 L35.6220012,11.7249857 L35.6485767,11.7249857 C36.8982178,11.7249857 38.1561269,11.8124643 39.3904132,11.9851344 C39.4595096,11.9959977 39.5268344,12 39.5947495,12 C40.2827609,12 40.8839587,11.5122928 40.9849458,10.8341909 C41.0977442,10.0886221 40.5644616,9.39794168 39.7943615,9.28987996 C38.4266068,9.09662675 37.0316862,9 35.6497578,9 C35.6397182,9 35.6296786,9 35.6202295,9 L35.3792779,9.00114358 C34.6009097,9.01658101 33.9843572,9.63922248 34.0003024,10.3910807 C34.0144761,11.1337909 34.6422495,11.7261292 35.4076251,11.7261292 Z" id="Path"></path>
                    <path d="M52.0430833,17.6477173 C52.2667424,17.8836548 52.5531233,18 52.8404767,18 C53.1472786,18 53.4545668,17.8657971 53.682602,17.5963091 C54.1231132,17.0789785 54.102206,16.2629382 53.6378702,15.7726646 C52.7592787,14.8483962 51.8116447,13.9933938 50.8173339,13.229303 C50.2902764,12.8245297 49.5682463,12.9690143 49.2055296,13.5572344 C48.8418404,14.1427486 48.9736047,14.9463426 49.4996899,15.3511161 C50.395299,16.0421528 51.2520106,16.8132783 52.0430833,17.6477173 L52.0430833,17.6477173 Z" id="Path"></path>
                    <path d="M42.8888397,12.5298919 C44.0161601,12.885607 45.1292439,13.3374467 46.1948727,13.8691186 C46.3720381,13.9570971 46.5581672,14 46.7427144,14 C47.2088283,14 47.6575418,13.7322633 47.8737258,13.2717344 C48.1763833,12.6298179 47.9164353,11.8543048 47.2921381,11.5425789 C46.1120901,10.9506255 44.877205,10.4515382 43.625447,10.0567215 C42.9631858,9.84818016 42.2597971,10.2326783 42.0562677,10.9147824 C41.8511566,11.5963435 42.2244694,12.3186351 42.8888397,12.5298919 Z" id="Path"></path>
                    <path d="M61.9677092,34.3395972 C61.9318306,33.5875116 61.3003679,33 60.545124,33 C60.522401,33 60.5008739,33 60.4769548,33.0011798 C59.6900183,33.0365719 59.0830725,33.6960479 59.1201471,34.4717284 C59.1386842,34.8905367 59.1500458,35.3140642 59.1500458,35.7393612 C59.1500458,36.6477627 59.1034036,37.5585236 59.0077274,38.448639 C58.9264027,39.2213702 59.496274,39.9115193 60.2790247,39.9935114 C60.3286568,39.9976405 60.3782888,40 60.4267248,40 C61.1478839,40 61.7661913,39.4620376 61.8433302,38.7406252 C61.9473781,37.7543608 62,36.7445015 62,35.7393612 C62,35.2698239 61.9886384,34.8032358 61.9677092,34.3395972 L61.9677092,34.3395972 Z" id="Path"></path>
                    <path d="M57.3830099,48.1749671 C56.7658184,47.8407718 55.9493719,47.9995026 55.5580769,48.5301988 C54.8953732,49.4338168 54.143865,50.3030112 53.3251983,51.1129206 C52.8450987,51.5872005 52.9033768,52.3072263 53.4550748,52.7198306 C53.7053926,52.9077258 54.0145433,53 54.322584,53 C54.6905678,53 55.0596616,52.8680431 55.3199698,52.6079541 C56.2274411,51.7124639 57.0583184,50.7500391 57.7948409,49.7474535 C58.1861358,49.2162791 58.0007564,48.5120309 57.3830099,48.1749671 L57.3830099,48.1749671 Z" id="Path"></path>
                    <path d="M15.3827038,49.5113258 C14.9809852,48.9818256 14.1715439,48.8407543 13.5771531,49.195848 C12.9800332,49.5504586 12.8201099,50.2654772 13.2207368,50.793528 C13.975051,51.7897229 14.823245,52.7438863 15.7413032,53.6284801 C15.9978354,53.8758379 16.3487935,54 16.69866,54 C17.0135943,54 17.3296202,53.899994 17.579057,53.696117 C18.1074044,53.2656566 18.1439739,52.5371105 17.6571082,52.0694497 C16.8274718,51.2703681 16.0627873,50.4104134 15.3827038,49.5113258 L15.3827038,49.5113258 Z" id="Path"></path>
                    <path d="M23.438493,56.465564 C22.5274353,55.8272531 21.6450686,55.0994647 20.8214949,54.2992966 C20.3360992,53.8268325 19.6319932,53.9259987 19.2463105,54.510167 C18.8587464,55.0954753 18.937294,55.9509258 19.4203381,56.4182605 C20.3328067,57.3039169 21.3087721,58.112064 22.3176616,58.8181954 C22.4935704,58.941868 22.6864118,59 22.8769014,59 C23.2649358,59 23.6416819,58.755504 23.849104,58.3212248 C24.1595314,57.6715155 23.9756267,56.8405715 23.438493,56.465564 L23.438493,56.465564 Z" id="Path" transform="translate(21.500000, 56.500000) rotate(-15.000000) translate(-21.500000, -56.500000) "></path>
                    <path d="M31.0279671,58.2356764 C29.8896947,57.9527279 28.7638681,57.5682235 27.6826391,57.0950774 C27.0437546,56.8150641 26.3296766,57.1749134 26.0833535,57.894025 C25.8375488,58.6131365 26.1538797,59.4255858 26.7891342,59.7044251 C27.9891169,60.2304038 29.2362901,60.6554134 30.4990204,60.9677133 C30.5882154,60.9900205 30.6768917,61 30.7650495,61 C31.3334078,61 31.8452415,60.5550314 31.9712551,59.899906 C32.1169747,59.1473338 31.6943361,58.4000448 31.0279671,58.2356764 Z" id="Path"></path>
                    <path d="M13.8762258,45.2168286 C13.3532852,44.149763 12.9144767,43.0359376 12.568599,41.9037236 C12.3667911,41.239106 11.6376435,40.8555718 10.9447882,41.0510167 C10.2502832,41.2438346 9.85051664,41.9389247 10.0523245,42.6024913 C10.4350446,43.8581718 10.9222429,45.0938875 11.5001721,46.2786404 C11.7228757,46.7331022 12.1946771,47 12.6890239,47 C12.874885,47 13.0634956,46.962172 13.2427581,46.8823128 C13.8998709,46.5891455 14.1830618,45.8425673 13.8762258,45.2168286 Z" id="Path"></path>
                    <path d="M51.1358923,53.3146228 C50.3249911,54.1248213 49.4523341,54.8695095 48.5407234,55.5274109 C48.0077234,55.913193 47.8400326,56.7334699 48.1673384,57.3622556 C48.3801584,57.7732339 48.7540186,58 49.1340543,58 C49.3354732,58 49.5392673,57.9356096 49.7240597,57.8034694 C50.7340046,57.0750187 51.7007203,56.2508224 52.5995048,55.3538368 C53.0759746,54.8773484 53.1363053,54.0357946 52.7320423,53.472519 C52.3277793,52.9103633 51.6156875,52.839814 51.1358923,53.3146228 L51.1358923,53.3146228 Z" id="Path"></path>
                    <path d="M20.3213949,16 C20.5865304,16 20.856094,15.9136785 21.0880184,15.7351232 C22.1026181,14.9600036 23.1747839,14.2641107 24.2790537,13.6651816 C24.9277776,13.3128006 25.1862709,12.4643671 24.8569272,11.7696566 C24.5270301,11.0779024 23.7343913,10.8006093 23.0823463,11.1529901 C21.8596234,11.8163648 20.6723258,12.5873456 19.5514504,13.4452391 C18.9591854,13.89754 18.8219127,14.778492 19.2475687,15.411122 C19.5066153,15.7942474 19.9101306,16 20.3213949,16 Z" id="Path"></path>
                    <path d="M10.792781,39.9876033 C11.5527198,39.8878395 12.088052,39.1829988 11.9879682,38.4120426 C11.8465708,37.29634 11.7732535,36.1540733 11.7732535,35.0171192 L11.780236,34.4362456 C11.7953651,33.6582053 11.1867156,33.0165289 10.4227035,33 C9.70407825,33.0070838 9.02327531,33.6033057 9.00698274,34.3772137 L9,35.0171192 C9,36.2762691 9.0802999,37.5395513 9.23973586,38.7744982 C9.32992758,39.4834712 9.9263574,40 10.6123973,40 C10.6723312,40 10.7316832,39.9958677 10.792781,39.9876033 Z" id="Path"></path>
                    <path d="M28.2247847,13 C28.3512372,13 28.4782038,12.9764026 28.6056844,12.926103 C29.6995501,12.4957619 30.8314543,12.1629151 31.9710693,11.9406031 C32.6388003,11.8089547 33.0916648,11.0482507 32.9842316,10.2434569 C32.8747421,9.43680006 32.2537882,8.88785118 31.5788608,9.01949955 C30.3158777,9.26789271 29.0590629,9.63489364 27.8449131,10.1142924 C27.2033979,10.3676535 26.850256,11.2022545 27.0610103,11.980346 C27.2301277,12.6050549 27.710236,13 28.2247847,13 Z" id="Path"></path>
                    <path d="M29.5377472,14.6307132 C25.5532914,16.3983181 23.8748065,21.400505 25.7948387,25.7798473 C27.2634459,29.1293912 30.4180526,31.1603826 33.5533357,31.1603826 C34.182432,31.1603826 34.8104547,31.0691688 35.4245215,30.899155 C37.0530866,33.4741909 39.7675407,35.0010778 42.514201,35 C43.5093757,35 44.5093813,34.8002993 45.4610773,34.3787728 C49.4471435,32.6100885 51.1256282,27.6079016 49.2045225,23.2296387 C48.2834226,21.1301019 46.6790121,19.4774588 44.6859791,18.5771947 C43.0155458,17.8221171 41.2361478,17.674232 39.5705456,18.1205859 C37.3450904,14.5681049 33.1405583,13.0336619 29.5377472,14.6307132 Z M28.1362364,24.741953 C26.7841087,21.6601135 27.876439,18.1783367 30.5688854,16.9850009 C31.1985185,16.7054226 31.8571373,16.5731896 32.5146825,16.5731896 C34.295154,16.5731896 36.0681107,17.5441579 37.2307581,19.212453 C37.2307581,19.212453 37.2296845,19.2140722 37.228611,19.2151517 C36.8893713,19.4553301 36.5758967,19.7268125 36.2817458,20.0198841 C36.2758413,20.0263608 36.2694001,20.0328376 36.2629588,20.0393143 C35.4250583,20.8856057 34.7761013,21.9353742 34.379964,23.1470606 C33.8297731,24.8293886 33.817964,26.6520456 34.3117939,28.3948232 C34.3219926,28.4320643 34.3246764,28.468226 34.3364855,28.5054671 C31.9006158,28.8994675 29.3015677,27.399567 28.1362364,24.741953 L28.1362364,24.741953 Z M43.6360538,20.9233867 C45.0509838,21.562423 46.1980647,22.7509011 46.8620513,24.2675332 C48.2152525,27.3493725 47.1229223,30.83007 44.4288655,32.0250248 C41.736419,33.2199796 38.4422516,31.6839175 37.0906606,28.6020782 C36.4610275,27.1680243 36.3815853,25.6524718 36.7294133,24.3139496 C36.7551783,24.2162591 36.765377,24.1142508 36.795973,24.0181794 C36.8829301,23.7429189 37.0020933,23.4854693 37.1260876,23.2307183 C37.1609777,23.1616332 37.1835222,23.0828331 37.2210961,23.015907 C37.3628038,22.755219 37.534034,22.51612 37.7159996,22.2845773 C37.7530368,22.2365416 37.780949,22.1814896 37.82067,22.1361524 C38.0139078,21.9073083 38.236668,21.7054506 38.4690901,21.5165463 C38.5114951,21.4830832 38.544775,21.4393654 38.5882535,21.4069818 C38.8684482,21.19325 39.1727977,21.0097429 39.5039858,20.8602387 L39.552832,20.8386496 C40.1577737,20.5736438 40.8024364,20.4397584 41.4572978,20.4397584 C42.1819395,20.4370929 42.921074,20.5990108 43.6360538,20.9233867 Z" id="Shape"></path>
                </g>
            </g>
        </g>
    </g>
</svg>