<?xml version="1.0" encoding="UTF-8"?>
<svg width="36px" height="71px" viewBox="0 0 36 71" version="1.1" xmlns="http://www.w3.org/2000/svg" xmlns:xlink="http://www.w3.org/1999/xlink">
    <!-- Generator: sketchtool 58 (101010) - https://sketch.com -->
    <title>4A7511BF-35A7-44F9-BC7D-D78C34225D80</title>
    <desc>Created with sketchtool.</desc>
    <g id="Design" stroke="none" stroke-width="1" fill="none" fill-rule="evenodd">
        <g id="UI-Kit-module-6" transform="translate(-357.000000, -543.000000)" fill="#C5C1C1" fill-rule="nonzero">
            <g id="atom/icons/90px/a-icon-shaker" transform="translate(330.000000, 533.000000)">
                <g id="003-thermo" transform="translate(27.000000, 10.000000)">
                    <path d="M35.9992794,22.8196488 C36.0009008,22.6658097 35.9787424,22.5152206 35.9252378,22.374382 C35.9236166,22.3711319 35.9252378,22.3673401 35.9236166,22.3651733 L32.1885705,13.0037385 C31.4151873,11.0699158 29.6457559,9.78611748 27.6044782,9.60952759 L27.6044782,3.86656182 C27.6044782,1.73394009 25.8744996,0 23.7467501,0 L12.2519309,0 C10.1241813,0 8.39420271,1.73394009 8.39420271,3.86656182 L8.39420271,9.61006924 C6.35292519,9.78611748 4.58349364,11.0715409 3.81119142,13.0048218 L0.0761452712,22.3651733 C0.0745238883,22.3684235 0.0761452712,22.3722152 0.0745238883,22.374382 C0.0193981141,22.5152206 -0.00113896483,22.6658097 0.000482383506,22.8196488 C0.000482383506,22.8478165 -0.00113896483,22.872734 0.00156328931,22.8992767 C0.00264417437,22.9220276 -0.000598515384,22.9453202 0.00264417437,22.9680709 L5.54495324,65.0419845 C5.86057571,68.4394455 8.66658923,71 12.0692589,71 L23.9278006,71 C27.3315513,71 30.1375648,68.4389038 30.4499446,65.0874862 L35.9981986,22.9691544 C36.0019817,22.9464035 35.9971177,22.923111 35.9992794,22.8992767 C36.0009008,22.872734 35.9992794,22.8478165 35.9992794,22.8196488 L35.9992794,22.8196488 Z M10.7954196,3.86656182 C10.7954196,3.06161499 11.448823,2.40671543 12.2519309,2.40671543 L23.7467501,2.40671543 C24.5498579,2.40671543 25.2032613,3.06161499 25.2032613,3.86656182 L25.2032613,9.57431797 L10.7954196,9.57431797 L10.7954196,3.86656182 Z M6.04108576,13.8991471 C6.50587242,12.7328948 7.61595551,11.9810334 8.86709601,11.9810334 L27.1326659,11.9810334 C28.3838064,11.9810334 29.49443,12.7334366 29.958676,13.8980636 L33.1678648,21.9394074 C32.6555188,22.05587 32.1426321,22.1690827 31.6275839,22.2747116 C31.0682188,22.3895492 30.5099344,22.5098038 29.9494884,22.6094742 C29.1690794,22.7476043 28.3848872,22.8597335 27.5996142,22.9713211 C27.0591647,23.0487824 26.5214175,23.1365356 25.9798872,23.199913 C25.1346243,23.3001252 24.2855782,23.3651276 23.4370726,23.4333801 C22.9533703,23.4723816 22.4691276,23.5276336 21.9843445,23.5552597 C20.8315658,23.6224289 19.6787871,23.65168 18.5254681,23.6608887 C18.1784995,23.6635971 17.8315308,23.6635971 17.4845624,23.6608887 C16.3317837,23.6527633 15.1779241,23.6224289 14.0262263,23.5563431 C13.5160421,23.5265503 13.0069388,23.4685897 12.4967545,23.4279632 C11.6752713,23.3613358 10.8543286,23.2979583 10.0366286,23.2015381 C9.47348022,23.1354523 8.91519598,23.0439071 8.35474994,22.9642791 C7.59109491,22.8548584 6.82635891,22.7476043 6.0659465,22.6121826 C5.49469147,22.5108871 4.92667907,22.3879241 4.35758584,22.2714615 C3.8484824,22.1679993 3.34045992,22.05587 2.83405882,21.9394074 L6.04108576,13.8991471 Z M28.0644007,64.8171844 C27.8638939,66.9698486 26.0847344,68.5932846 23.9283411,68.5932846 L12.0692589,68.5932846 C9.91340614,68.5932846 8.13478698,66.9698486 7.92833536,64.7722245 L2.60815089,24.3829574 C3.08752958,24.4902115 3.57123187,24.567131 4.05277236,24.6646347 C4.60619259,24.7767639 5.15961282,24.8910599 5.71573526,24.9896469 C6.55613418,25.1375275 7.39923532,25.2604904 8.24341728,25.3785782 C8.75576336,25.4495393 9.26594763,25.5302506 9.77991509,25.5903777 C10.7392129,25.7019653 11.7012129,25.7815934 12.6642937,25.854721 C13.0663881,25.8850555 13.4674017,25.9305573 13.8694961,25.9549332 C16.6214646,26.1163559 19.38154,26.1163559 22.1324276,25.9549332 C22.5258748,25.9321823 22.9171602,25.887764 23.310067,25.8574295 C24.282876,25.7837601 25.2540636,25.7030486 26.2230894,25.5903777 C26.7294905,25.5313339 27.2337299,25.4506226 27.7390502,25.380745 C28.590258,25.2615738 29.4403849,25.1391525 30.285648,24.9885636 C30.8390682,24.8905183 31.3892457,24.7767639 31.9399637,24.6657181 C32.4231254,24.5682145 32.9079086,24.4912948 33.3883682,24.3829574 L28.0644007,64.8171844 Z" id="Shape"></path>
                    <path d="M14.8148309,64.6023098 C12.5995415,64.4715954 12.2344964,62.2986041 12.1986742,62.0414966 L10.5150315,50.0422422 C10.4229173,49.3843492 9.79403895,48.9214475 9.0963592,49.011111 C8.40436559,49.0986141 7.91820731,49.7024928 8.01145872,50.3587653 L9.69282699,62.3407352 C9.88103565,63.8606949 11.1621052,66.7888046 14.6584642,66.9978396 C14.6851888,66.9989198 14.7102074,67 14.7380692,67 C15.3987895,67 15.9554549,66.5117116 15.9975317,65.8743442 C16.0407458,65.2142906 15.5113736,64.6433606 14.8148309,64.6023098 L14.8148309,64.6023098 Z" id="Path"></path>
                </g>
            </g>
        </g>
    </g>
</svg>