<?xml version="1.0" encoding="UTF-8"?>
<svg width="42px" height="50px" viewBox="0 0 42 50" version="1.1" xmlns="http://www.w3.org/2000/svg" xmlns:xlink="http://www.w3.org/1999/xlink">
    <!-- Generator: sketchtool 58 (101010) - https://sketch.com -->
    <title>A28DF9CD-BBCE-49FA-AFC6-706EAD9667FB</title>
    <desc>Created with sketchtool.</desc>
    <g id="Design" stroke="none" stroke-width="1" fill="none" fill-rule="evenodd">
        <g id="UI-Kit-module-6" transform="translate(-444.000000, -354.000000)" fill="#FFFFFF" fill-rule="nonzero">
            <g id="atom/icons/70px/a-icon-geinder" transform="translate(430.000000, 344.000000)">
                <g id="grinder" transform="translate(14.000000, 10.000000)">
                    <path d="M41.9341501,46.0006714 C41.6257458,44.4557189 40.1944728,43.3334351 38.5301662,43.3334351 L36.2552036,28.3248901 C37.668403,28.2306671 38.9047121,27.324295 39.3130979,26.0566711 C39.6499584,25.0083924 39.4753755,23.9089966 38.8358787,23.0392456 C38.2025346,22.1801758 37.1877229,21.6667176 36.1209977,21.6667176 L35.2388537,21.6667176 C34.8323906,14.9406434 29.5737507,9.84840391 22.4650695,9.23156738 C22.7096395,9.18922422 23.0407319,9.16671758 23.5202583,9.16671758 L34.8608469,9.16671758 C37.2215627,9.16671758 38.4117266,9.15985107 38.6082286,7.27996826 C40.0883387,6.77070615 41.1612166,5.38902285 41.1612166,3.74984746 C41.1612166,1.68266299 39.4649928,0 37.3811486,0 C35.2969198,0 33.600696,1.68266299 33.600696,3.74984746 C33.600696,5.59349063 34.9508302,7.1216583 36.7205019,7.43331914 C36.306348,7.49931338 35.4934218,7.50007627 34.8608469,7.50007627 L23.5202583,7.50007627 C21.1914596,7.50007627 20.448905,8.24737549 20.2370212,9.20028691 C12.7791739,9.53521729 7.18021258,14.723587 6.76105962,21.6667176 L5.99004873,21.6667176 C4.31728216,21.6667176 2.88408646,22.7970123 2.58183479,24.3545532 C2.38379468,25.371933 2.63297922,26.3912201 3.26478502,27.1511078 C3.84890746,27.853775 4.71913067,28.276062 5.74394053,28.3275604 L3.47589978,43.3334351 L3.46974708,43.3334351 C1.80659399,43.3334351 0.37416743,44.4557189 0.066147671,45.9999084 C-0.132277058,46.9898224 0.120368357,48.0022431 0.761403312,48.7766266 C1.4051301,49.5540619 2.35149298,50 3.35899839,50 L38.6409149,50 C39.6480357,50 40.5947832,49.5540619 41.2381254,48.7766266 C41.8787758,48.0033875 42.1321903,46.9909668 41.9341501,46.0006714 Z M35.280769,3.74984746 C35.280769,2.60086055 36.2225174,1.66664121 37.3811486,1.66664121 C38.5393952,1.66664121 39.4811437,2.60086055 39.4811437,3.74984746 C39.4811437,4.89921572 38.5393952,5.83343506 37.3811486,5.83343506 C36.2225174,5.83343506 35.280769,4.89921572 35.280769,3.74984746 Z M20.9999566,10.8333588 C27.8802188,10.8333588 33.1396277,15.4342651 33.5722398,21.6667176 L8.42767348,21.6667176 C8.86028551,15.4342651 14.1200791,10.8333588 20.9999566,10.8333588 Z M39.9395202,47.7199555 C39.6161186,48.1090546 39.144283,48.3333588 38.6409149,48.3333588 L3.35899839,48.3333588 C2.85563016,48.3333588 2.38379468,48.1090546 2.06039316,47.7199555 C1.73506884,47.3266602 1.61239927,46.8322754 1.71353438,46.3249207 C1.86466016,45.5699921 2.61990468,44.9996948 3.4701316,44.9996948 L4.92255444,44.9996948 L7.43747253,28.3657074 C7.50130689,27.9388428 7.3763301,27.5074005 7.09215202,27.180481 C6.80835846,26.8539429 6.39766542,26.6666412 5.87930004,26.6666412 C5.33824654,26.6666412 4.87102559,26.4614105 4.56223669,26.089859 C4.24460336,25.7099151 4.12770197,25.2048492 4.23191333,24.6688843 C4.37996286,23.9074707 5.13520728,23.3333588 5.99004873,23.3333588 L36.1209977,23.3333588 C36.6535912,23.3333588 37.1604203,23.5916138 37.4788228,24.0222931 C37.8045316,24.4640351 37.886824,25.0076294 37.7114719,25.5508423 C37.5015108,26.2073517 36.8016407,26.6666412 36.010249,26.6666412 C35.5818669,26.6666412 35.176173,26.8516541 34.896994,27.173233 C34.6181996,27.494812 34.494761,27.9201508 34.5585952,28.3382416 L37.0781278,45.0000763 L38.5305508,45.0000763 C39.3807776,45.0000763 40.1360221,45.5699921 40.287148,46.3256836 C40.387514,46.8315125 40.2648444,47.3266602 39.9395202,47.7199555 Z" id="Shape"></path>
                    <path d="M9.88271423,30 L8,45 L35,45 L33.1172857,30 L9.88271423,30 Z M31.6394603,31.6666666 L32.2672872,36.6666666 L10.733096,36.6666666 L11.3605397,31.6666666 L31.6394603,31.6666666 Z M9.89612117,43.3337148 L10.523948,38.3333333 L32.476435,38.3333333 L33.1038788,43.3337148 L9.89612117,43.3337148 Z" id="Shape"></path>
                    <path d="M18.857311,36 L23.142689,36 C23.6166623,36 24,35.5532159 24,35.0002289 C24,34.4467841 23.6166623,34 23.142689,34 L18.857311,34 C18.3829453,34 18,34.4467841 18,35.0002289 C18,35.5532159 18.3829453,36 18.857311,36 Z" id="Path"></path>
                    <path d="M23.142689,40 L18.857311,40 C18.3829453,40 18,40.4472419 18,41.0002289 C18,41.5532158 18.3829453,42 18.857311,42 L23.142689,42 C23.6166623,42 24,41.5532158 24,41.0002289 C24,40.4472419 23.6166623,40 23.142689,40 L23.142689,40 Z" id="Path"></path>
                    <path d="M14.4719012,14.1655021 C13.4099954,14.8593674 12.6076177,15.7368096 12.0859179,16.7768146 C11.8664868,17.213355 12.0819523,17.7260223 12.566199,17.9226836 C12.695302,17.9758139 12.8288114,18 12.96188,18 C13.3284798,18 13.6787766,17.8100792 13.8396046,17.4905046 C14.2220669,16.7284423 14.8155885,16.0821563 15.6034256,15.5675066 C16.0325941,15.287185 16.1286504,14.7447805 15.816688,14.3578019 C15.5047257,13.9716163 14.9050354,13.8831981 14.4719012,14.1655021 Z" id="Path"></path>
                    <path d="M20.9998061,13 C19.8902089,13 18.8309648,13.0659341 17.8541164,13.1973875 C17.3080152,13.2707858 16.9299099,13.7310803 17.0109325,14.2266225 C17.0841732,14.6757205 17.5108005,15 17.9992247,15 C18.0482043,15 18.0971841,14.9962679 18.1461639,14.9900477 C19.0268838,14.8714493 19.987253,14.8117354 20.9998061,14.8117354 C21.5527737,14.8117354 22,14.4065934 22,13.9056604 C22,13.405142 21.5527737,13 20.9998061,13 Z" id="Path"></path>
                    <path d="M21.7501717,28 L26.2501717,28 C26.6649119,28 27,27.5532158 27,27.0002289 C27,26.4467842 26.6649119,26 26.2501717,26 L21.7501717,26 C21.3350881,26 21,26.4467842 21,27.0002289 C21,27.5532158 21.3354315,28 21.7501717,28 L21.7501717,28 Z" id="Path"></path>
                    <path d="M30.0001144,28 L31.9998856,28 C32.5528093,28 33,27.5532158 33,27.0002289 C33,26.4467842 32.5528093,26 31.9998856,26 L30.0001144,26 C29.4471907,26 29,26.4467842 29,27.0002289 C29,27.5532158 29.4471907,28 30.0001144,28 L30.0001144,28 Z" id="Path"></path>
                </g>
            </g>
        </g>
    </g>
</svg>