<?xml version="1.0" encoding="UTF-8"?>
<svg width="54px" height="71px" viewBox="0 0 54 71" version="1.1" xmlns="http://www.w3.org/2000/svg" xmlns:xlink="http://www.w3.org/1999/xlink">
    <!-- Generator: sketchtool 58 (101010) - https://sketch.com -->
    <title>9479C27C-55B5-46F8-A1FA-3587C8EC0046</title>
    <desc>Created with sketchtool.</desc>
    <g id="Design" stroke="none" stroke-width="1" fill="none" fill-rule="evenodd">
        <g id="UI-Kit-module-6" transform="translate(-448.000000, -542.000000)" fill="#C5C1C1" fill-rule="nonzero">
            <g id="atom/icons/90px/a-icon-teapot" transform="translate(430.000000, 533.000000)">
                <g id="004-blender" transform="translate(18.000000, 9.000000)">
                    <path d="M18.8333335,28 L14.1666668,28 C13.5219027,28 13,28.4469027 13,29 C13,29.552655 13.5219027,30 14.1666668,30 L18.8333335,30 C19.4780974,30 20,29.552655 20,29 C20,28.4469027 19.4780974,28 18.8333335,28 Z" id="Path"></path>
                    <path d="M14.2500001,35 L16.7500001,35 C17.4413718,35 18,34.5530974 18,34 C18,33.4469026 17.4413718,33 16.7500001,33 L14.2500001,33 C13.5586284,33 13,33.4469026 13,34 C13,34.5530974 13.5586284,35 14.2500001,35 Z" id="Path"></path>
                    <path d="M18.8333335,48 L14.1666668,48 C13.5219027,48 13,48.4470015 13,49.0002213 C13,49.5529984 13.5219027,50 14.1666668,50 L18.8333335,50 C19.4780974,50 20,49.5529984 20,49.0002213 C19.9994838,48.4470015 19.4780974,48 18.8333335,48 L18.8333335,48 Z" id="Path"></path>
                    <path d="M18.8333335,38 L14.1666668,38 C13.5219027,38 13,38.4470015 13,39.0002213 C13,39.5529984 13.5219027,40 14.1666668,40 L18.8333335,40 C19.4780974,40 20,39.5529984 20,39.0002213 C19.9994838,38.4470015 19.4780974,38 18.8333335,38 Z" id="Path"></path>
                    <path d="M14.2500001,45 L16.7500001,45 C17.4413718,45 18,44.5530973 18,44 C18,43.4469026 17.4413718,43 16.7500001,43 L14.2500001,43 C13.5586284,43 13,43.4469026 13,44 C13,44.5530973 13.5586284,45 14.2500001,45 Z" id="Path"></path>
                    <path d="M50.2545629,18.3619662 L46.1732028,18.3619662 L46.2593937,17.786699 C46.343927,16.3311971 45.8284392,14.9455724 44.8068559,13.8838739 C43.9256093,12.9684298 42.7692147,12.4359556 41.5144742,12.2989097 L41.5144742,9.79308481 C41.5144742,7.76827414 39.8337516,6.12047489 37.7684851,6.12047489 L35.2711591,6.12047489 L35.2711591,3.67260992 C35.2717115,1.64779925 33.5909891,0 31.5257225,0 L16.5428713,0 C14.4776046,0 12.796882,1.64779925 12.796882,3.67260992 L12.796882,6.12101654 L10.3001086,6.12101654 C8.234842,6.12101654 6.55411954,7.76827414 6.55411954,9.79308481 L6.55411954,12.2414914 L3.76728048,12.2414914 C2.3760709,12.2414914 1.10254515,12.988472 0.446168303,14.1926331 C-0.209656072,15.3946274 -0.138382723,16.8479626 0.63291518,17.9827883 L5.34413185,24.9103706 L8.2696499,52.600116 C8.45915941,53.5318105 8.87740624,54.3665439 9.43709454,55.0864404 L6.55411954,55.0864404 C4.48885293,55.0864404 2.80813047,56.733698 2.80813047,58.7585086 L2.80813047,71 L45.2599108,71 L45.2599108,58.7585086 C45.2599108,56.7342397 43.5797406,55.0864404 41.5144742,55.0864404 L39.4939605,55.0864404 C40.5602967,53.9158638 41.2409838,52.4126938 41.3343572,50.7697696 L41.60398,48.9654239 L50.2540103,48.9654239 C52.3192769,48.9654239 54,47.3181662 54,45.2933556 L54,22.0340344 C54.0005518,20.0097656 52.3198293,18.3619662 50.2545629,18.3619662 L50.2545629,18.3619662 Z M15.2942081,3.67260992 C15.2942081,2.99658969 15.8533441,2.44840661 16.5428713,2.44840661 L31.5257225,2.44840661 C32.2146972,2.44840661 32.7743855,2.99658969 32.7743855,3.67260992 L32.7743855,6.12101654 L15.2942081,6.12101654 L15.2942081,3.67260992 Z M9.05144559,9.79308481 C9.05144559,9.11760622 9.61058142,8.5688815 10.3001086,8.5688815 L37.7690376,8.5688815 C38.4580123,8.5688815 39.0177006,9.11760622 39.0177006,9.79308481 L39.0177006,12.2414914 L9.05144559,12.2414914 L9.05144559,9.79308481 Z M41.5144742,57.5343054 C42.2034487,57.5343054 42.7631372,58.0824883 42.7631372,58.7585086 L42.7631372,68.5515934 L5.30545652,68.5515934 L5.30545652,58.7585086 C5.30545652,58.0824883 5.86459235,57.5343054 6.55411954,57.5343054 L41.5144742,57.5343054 Z M39.4243448,46.6979393 L39.0723987,48.9654239 L39.0862113,48.9654239 L38.8536064,50.5211371 C38.7038773,53.0805887 36.5402648,55.0858988 33.925255,55.0858988 L14.4101989,55.0858988 C12.6211853,55.0858988 11.0675391,53.8373197 10.7365881,52.2339383 L7.76521217,24.0550533 L2.71088946,16.6237058 C2.33021288,16.0641475 2.5396126,15.5441319 2.64735126,15.3469593 C2.75564239,15.1497868 3.08051578,14.6893564 3.76562292,14.6893564 L40.9150055,14.6893564 C41.7078511,14.6893564 42.4448939,15.0002823 42.989112,15.5663409 C43.5333302,16.1318578 43.8090306,16.8712549 43.7758802,17.5407751 L39.4243448,46.6979393 Z M51.5032257,45.292814 C51.5032257,45.9682926 50.9440901,46.5170173 50.2545629,46.5170173 L41.9791315,46.5170173 L45.9770632,20.8103728 L50.2545629,20.8103728 C50.9440901,20.8103728 51.5032257,21.358556 51.5032257,22.0340344 L51.5032257,45.292814 Z" id="Shape"></path>
                    <path d="M11.9997471,59 C9.79429799,59 8,61.0185852 8,63.5002845 C8,65.9814148 9.79429799,68 11.9997471,68 C14.2057019,68 16,65.9814148 16,63.5002845 C16,61.0185852 14.2057019,59 11.9997471,59 Z M11.9997471,65.4289778 C11.0545546,65.4289778 10.2858588,64.563626 10.2858588,63.5002845 C10.2858588,62.4369429 11.0550603,61.5715911 11.9997471,61.5715911 C12.9449395,61.5715911 13.7141412,62.4369429 13.7141412,63.5002845 C13.7141412,64.563626 12.9449395,65.4289778 11.9997471,65.4289778 Z" id="Shape"></path>
                    <path d="M32,63.5002845 C32,65.9814148 33.794298,68 36.0002528,68 C38.205702,68 40,65.9814148 40,63.5002845 C40,61.0185852 38.205702,59 36.0002528,59 C33.794298,59 32,61.0185852 32,63.5002845 L32,63.5002845 Z M36.0002528,61.5715911 C36.9454454,61.5715911 37.7141412,62.4369429 37.7141412,63.5002845 C37.7141412,64.563626 36.9449397,65.4284089 36.0002528,65.4284089 C35.0550603,65.4284089 34.2858588,64.5630571 34.2858588,63.5002845 C34.2858588,62.4369429 35.0550603,61.5715911 36.0002528,61.5715911 L36.0002528,61.5715911 Z" id="Shape"></path>
                    <path d="M21,59 C20.4469027,59 20,59.5746255 20,60.2857956 L20,66.7142044 C20,67.4253745 20.4469027,68 21,68 C21.5530974,68 22,67.4253745 22,66.7142044 L22,60.2857956 C22,59.5746255 21.5530974,59 21,59 L21,59 Z" id="Path"></path>
                    <path d="M27,59 C26.4469027,59 26,59.5746255 26,60.2857956 L26,66.7142044 C26,67.4253745 26.4469027,68 27,68 C27.5530974,68 28,67.4253745 28,66.7142044 L28,60.2857956 C28,59.5746255 27.5530974,59 27,59 L27,59 Z" id="Path"></path>
                </g>
            </g>
        </g>
    </g>
</svg>