<?xml version="1.0" encoding="UTF-8"?>
<svg width="60px" height="117px" viewBox="0 0 60 117" version="1.1" xmlns="http://www.w3.org/2000/svg" xmlns:xlink="http://www.w3.org/1999/xlink">
    <!-- Generator: sketchtool 58 (101010) - https://sketch.com -->
    <title>1D3C8DFD-3D19-46B7-9ED0-04F4BD8A44EA</title>
    <desc>Created with sketchtool.</desc>
    <g id="Design" stroke="none" stroke-width="1" fill="none" fill-rule="evenodd">
        <g id="UI-Kit-module-6" transform="translate(-445.000000, -758.000000)" fill="#85BA59" fill-rule="nonzero">
            <g id="atom/icons/130px/a-icon-shaker" transform="translate(410.000000, 752.000000)">
                <g id="003-thermo" transform="translate(35.000000, 6.000000)">
                    <path d="M59.998799,37.60421 C60.0015013,37.3507004 59.9645706,37.1025466 59.8753964,36.8704605 C59.8726943,36.8651047 59.8753964,36.8588562 59.8726943,36.8552856 L53.6476174,21.4286958 C52.3586454,18.2419739 49.4095931,16.126419 46.0074637,15.8354187 L46.0074637,6.37165821 C46.0074637,2.85733789 43.1241659,0 39.5779169,0 L20.4198849,0 C16.8736356,0 13.9903379,2.85733789 13.9903379,6.37165821 L13.9903379,15.8363113 C10.5882087,16.126419 7.63915607,18.2446519 6.3519857,21.430481 L0.126908785,36.8552856 C0.12420648,36.8606416 0.126908785,36.8668899 0.12420648,36.8704605 C0.0323301901,37.1025466 -0.00189827471,37.3507004 0.00080397251,37.60421 C0.00080397251,37.6506272 -0.00189827471,37.6916885 0.00260548219,37.7354277 C0.00440695728,37.7729187 -0.00099752564,37.8113022 0.00440695728,37.848793 L9.24158873,107.181862 C9.76762619,112.780495 14.4443154,117 20.1154316,117 L39.8796676,117 C45.5525854,117 50.2292746,112.779602 50.7499077,107.256844 L59.9969976,37.8505784 C60.0033029,37.8130874 59.9951962,37.7747041 59.998799,37.7354277 C60.0015013,37.6916885 59.998799,37.6506272 59.998799,37.60421 L59.998799,37.60421 Z M17.992366,6.37165821 C17.992366,5.04519653 19.0813716,3.96599585 20.4198849,3.96599585 L39.5779169,3.96599585 C40.9164299,3.96599585 42.0054355,5.04519653 42.0054355,6.37165821 L42.0054355,15.7773972 L17.992366,15.7773972 L17.992366,6.37165821 Z M10.0684763,22.9042283 C10.8431207,20.982376 12.6932592,19.7433931 14.7784934,19.7433931 L45.2211098,19.7433931 C47.3063439,19.7433931 49.1573833,20.9832688 49.9311266,22.9024429 L55.2797747,36.1536714 C54.4258646,36.3455886 53.5710536,36.5321504 52.7126398,36.7062148 C51.7803646,36.8954543 50.8498907,37.0936204 49.9158139,37.257866 C48.6151323,37.4854888 47.3081453,37.6702651 45.999357,37.8541489 C45.0986079,37.9817964 44.2023625,38.1264038 43.2998121,38.2308425 C41.8910405,38.3959809 40.4759636,38.5030976 39.0617877,38.6155701 C38.2556172,38.6798401 37.4485461,38.7708892 36.6405742,38.8164138 C34.7192763,38.9271011 32.7979785,38.9753037 30.8757801,38.9904785 C30.2974991,38.9949417 29.7192181,38.9949417 29.1409373,38.9904785 C27.2196396,38.9770889 25.2965402,38.9271011 23.3770439,38.8181992 C22.5267368,38.769104 21.6782313,38.6735916 20.8279241,38.6066436 C19.4587855,38.4968491 18.0905476,38.3924102 16.7277143,38.2335205 C15.7891337,38.1246186 14.85866,37.9737625 13.9245832,37.8425444 C12.6518248,37.6622314 11.3772648,37.4854888 10.1099108,37.2623291 C9.15781912,37.0954055 8.21113179,36.8927764 7.26264307,36.7008591 C6.41413733,36.530365 5.5674332,36.3455886 4.72343137,36.1536714 L10.0684763,22.9042283 Z M46.7740012,106.811417 C46.4398232,110.358765 43.4745573,113.034004 39.8805686,113.034004 L20.1154316,113.034004 C16.5223436,113.034004 13.5579783,110.358765 13.2138923,106.737328 L4.34691814,40.1803665 C5.14588263,40.3571091 5.95205311,40.4838638 6.75462059,40.6445388 C7.67698764,40.8293152 8.5993547,41.0176621 9.52622544,41.1801223 C10.9268903,41.423813 12.3320589,41.6264419 13.7390288,41.8210373 C14.5929389,41.9379731 15.4432461,42.0709763 16.2998585,42.1700591 C17.8986881,42.3539429 19.5020215,42.4851609 21.1071562,42.605667 C21.7773135,42.6556548 22.4456695,42.7306367 23.1158268,42.7708054 C27.7024411,43.0368118 32.3025667,43.0368118 36.8873793,42.7708054 C37.5431247,42.7333145 38.195267,42.6601182 38.8501116,42.6101304 C40.47146,42.4887314 42.090106,42.355728 43.705149,42.1700591 C44.5491508,42.0727615 45.3895499,41.9397583 46.2317503,41.8246079 C47.65043,41.6282273 49.0673082,41.4264907 50.47608,41.1783372 C51.398447,41.0167695 52.3154095,40.8293152 53.2332728,40.6463242 C54.0385424,40.4856492 54.8465143,40.3588943 55.6472804,40.1803665 L46.7740012,106.811417 Z" id="Shape"></path>
                    <path d="M25.0741003,106.00385 C21.4742549,105.785992 20.8810567,102.16434 20.8228456,101.735828 L18.0869262,81.7370703 C17.9372405,80.640582 16.9153133,79.8690792 15.7815837,80.0185184 C14.6570941,80.1643568 13.8670869,81.1708213 14.0186204,82.2646089 L16.7508439,102.234559 C17.0566829,104.767825 19.138421,109.648008 24.8200044,109.996399 C24.8634317,109.9982 24.9040871,110 24.9493625,110 C26.0230329,110 26.9276142,109.186186 26.995989,108.123907 C27.0662118,107.023818 26.205982,106.072268 25.0741003,106.00385 L25.0741003,106.00385 Z" id="Path"></path>
                </g>
            </g>
        </g>
    </g>
</svg>