<?xml version="1.0" encoding="UTF-8"?>
<svg width="43px" height="50px" viewBox="0 0 43 50" version="1.1" xmlns="http://www.w3.org/2000/svg" xmlns:xlink="http://www.w3.org/1999/xlink">
    <!-- Generator: sketchtool 58 (101010) - https://sketch.com -->
    <title>F178D735-98C4-425A-BB9A-8D47E43E44B4</title>
    <desc>Created with sketchtool.</desc>
    <g id="Design" stroke="none" stroke-width="1" fill="none" fill-rule="evenodd">
        <g id="UI-Kit-module-6" transform="translate(-344.000000, -354.000000)" fill="#FFFFFF" fill-rule="nonzero">
            <g id="atom/icons/70px/a-icon-cup" transform="translate(330.000000, 344.000000)">
                <g id="cup" transform="translate(14.000000, 10.000000)">
                    <path d="M21.3637202,11.7452083 C21.5394281,11.9147049 21.7699265,12 22.0004251,12 C22.2309236,12 22.4614222,11.9147049 22.6371301,11.7452083 C22.9889238,11.4054858 22.9889238,10.8565354 22.6371301,10.5171775 C21.5212905,9.44078249 21.5212905,7.69041034 22.6371301,6.61437983 C24.45429,4.86036273 24.45429,2.00771542 22.6371301,0.254791775 C22.2849586,-0.0849305917 21.7158916,-0.0849305917 21.3637202,0.254791775 C21.0115485,0.594514142 21.0115485,1.14346462 21.3637202,1.4828225 C22.4784262,2.55848851 22.4784262,4.3106831 21.3637202,5.38598463 C19.5454266,7.13963734 19.5454266,9.99228455 21.3637202,11.7452083 Z" id="Path"></path>
                    <path d="M14,9.55537929 C14,10.3802101 14.314012,11.156126 14.8858056,11.7389966 C15.0555911,11.9126255 15.2783205,12 15.5010498,12 C15.7237791,12 15.9465084,11.9126255 16.1170242,11.7389966 C16.4565951,11.3909918 16.4565951,10.8286581 16.1170242,10.4810268 C15.8734824,10.233839 15.7405751,9.90525091 15.7405751,9.55537929 C15.7405751,9.20476082 15.8734824,8.8765461 16.116294,8.62935828 C17.2945687,7.42441076 17.2945687,5.46483081 16.116294,4.2610035 C15.7759927,3.91299883 15.2261068,3.91299883 14.8858056,4.2610035 C14.5455044,4.60900817 14.5455044,5.17134185 14.8858056,5.51934652 C15.3853035,6.02977828 15.3853035,6.86021003 14.8858056,7.37101517 C14.314012,7.95463246 14,8.73054841 14,9.55537929 Z" id="Path"></path>
                    <path d="M28,9.55537929 C28,10.3802101 28.3140501,11.156126 28.8859134,11.7389966 C29.0557196,11.9126255 29.278476,12 29.5012325,12 C29.723989,12 29.9467454,11.9126255 30.1172819,11.7389966 C30.456529,11.3909918 30.456529,10.8286581 30.1172819,10.4810268 C29.8733453,10.233839 29.7404218,9.90525091 29.7404218,9.55537929 C29.7404218,9.20476082 29.8733453,8.8765461 30.1161864,8.62935828 C31.2946045,7.42441076 31.2946045,5.46483081 30.1161864,4.2610035 C29.7758437,3.91299883 29.2258908,3.91299883 28.8859134,4.2610035 C28.5455708,4.60900817 28.5455708,5.17134185 28.8859134,5.51934652 C29.3854722,6.02977828 29.3854722,6.86021003 28.8859134,7.37101517 C28.3140501,7.95463246 28,8.73054841 28,9.55537929 Z" id="Path"></path>
                    <path d="M13.1329615,27 C13.3100773,27 13.4897443,26.9438207 13.6435364,26.8284659 C14.0309319,26.538581 14.1158455,25.9797846 13.8326787,25.581661 C12.9252329,24.3037701 12.550957,22.6123999 12.8315728,21.0558599 C12.9194019,20.5712201 12.6074446,20.1060559 12.1358644,20.0157946 C11.661733,19.9232861 11.2109256,20.2468786 11.1230965,20.7315183 C10.7521006,22.7917989 11.2287829,24.9427155 12.4303287,26.6348348 C12.6005203,26.8722857 12.864372,27 13.1329615,27 Z" id="Path"></path>
                    <path d="M33.2399068,36.6857925 C33.1738746,36.6749045 33.1063068,36.6703991 33.0402746,36.6606374 C33.0494884,36.6463703 33.0579343,36.6328541 33.0671481,36.618587 C33.1915343,36.6257205 33.305555,36.6478721 33.4356998,36.6478721 C36.572996,36.6478721 40.8681588,34.5791427 41.9469403,30.1045297 C42.4502437,28.0200314 42.3266253,26.4675456 41.5699426,25.3569646 C40.6339749,23.9846949 39.0065889,23.6366527 37.4978304,23.3877295 C37.5673178,20.4689812 36.9680374,18.3135229 36.427495,17.2686455 C36.2635662,16.9547693 35.7694766,16 34.8811134,16 L8.26400375,16 C7.37564058,16 6.88155096,16.9547693 6.71877396,17.2686455 C5.5275075,19.570154 4.04523862,27.2458534 10.0910219,36.6388613 C10.0272932,36.6478721 9.96279665,36.6523775 9.89906787,36.6632655 C6.20203384,37.3082886 0,38.8615252 0,42.0059189 C0,46.040129 10.6492242,50 21.5,50 C32.3507758,50 43,46.040129 43,42.0059189 C43,38.8866804 36.8847293,37.3345701 33.2399068,36.6857925 L33.2399068,36.6857925 Z M37.3742121,25.1820049 C38.5232487,25.3768635 39.5536578,25.6265377 40.0465956,26.3504053 C40.500375,27.0142008 40.5399175,28.1397999 40.1656072,29.6930365 C39.3732211,32.9793502 36.3987018,34.5213233 34.1536078,34.805539 C36.1445547,31.2248725 37.0632466,27.9441905 37.3742121,25.1820049 L37.3742121,25.1820049 Z M8.51392779,17.7893947 L34.6315733,17.7893947 C35.6020927,19.0216215 37.579219,27.0555004 30.7621645,36.7965503 L30.7575576,36.7973011 L30.4669392,37.2035381 C30.3387139,37.3818768 30.21356,37.5590892 30.0788082,37.7378034 C28.1047533,40.3674551 24.9271467,41.9405905 21.5787011,41.9458469 L21.5721747,41.9458469 C18.2218095,41.9420923 15.0426674,40.3685814 13.0674607,37.7378034 C12.9281021,37.5527066 12.7983411,37.3691115 12.6674285,37.1858919 L12.3756584,36.7759005 L12.3698998,36.7751496 C5.56896946,27.0438614 7.54379224,19.0208706 8.51392779,17.7893947 L8.51392779,17.7893947 Z M21.5,48.2109807 C10.1359391,48.2109807 1.8297056,44.1298394 1.8297056,42.0059189 C1.8297056,41.1547737 4.0636662,39.4986638 10.2219345,38.424126 C10.4315483,38.3873318 10.6419299,38.3685594 10.8549989,38.3685594 C11.0024195,38.3685594 11.150608,38.3775702 11.2987965,38.3948408 C11.3940057,38.5281256 11.4907505,38.6621612 11.5917182,38.796197 C11.864293,39.1596325 12.1587504,39.501292 12.4689481,39.8290598 C12.5660768,39.9319331 12.6720354,40.0250447 12.773771,40.1241635 C12.9941343,40.341549 13.2175687,40.5555555 13.4532882,40.7556704 C13.5795939,40.8622982 13.7105065,40.9606661 13.8402675,41.0620376 C14.0671571,41.2388745 14.2967341,41.4097043 14.534757,41.5707723 C14.6756513,41.6657611 14.8192329,41.7562446 14.964734,41.8456017 C15.20698,41.9950308 15.4542167,42.1365755 15.7064443,42.2687339 C15.8550167,42.346452 16.003973,42.4245456 16.1548488,42.4962565 C16.421281,42.6231586 16.6930878,42.73692 16.9683499,42.8442987 C17.1146188,42.9013671 17.2582004,42.96219 17.4067728,43.0140021 C17.7177383,43.123258 18.0340785,43.2137415 18.3542578,43.2985932 C18.4732693,43.3297555 18.5895934,43.3691777 18.7093727,43.396961 C19.150483,43.4998344 19.5958163,43.5839352 20.0488277,43.6395017 L20.0488277,43.7371188 L21.562193,43.7371188 L21.5848436,43.7371188 L23.098209,43.7371188 L23.098209,43.6428808 C23.5493009,43.5876896 23.9946342,43.5043397 24.4338249,43.4014664 C24.562818,43.3721813 24.6864364,43.3297555 24.8142778,43.295965 C25.1244754,43.2126151 25.4327536,43.1247598 25.7348891,43.0196338 C25.8896041,42.9648181 26.0393282,42.902118 26.1921236,42.8424214 C26.4600914,42.7365445 26.7253719,42.6257868 26.9856615,42.5022637 C27.1430638,42.4279247 27.2954752,42.3475783 27.4494223,42.2668565 C27.6962752,42.1373263 27.9377533,41.9995361 28.1750085,41.8527353 C28.3239647,41.7603745 28.4721532,41.6683893 28.6176544,41.5700214 C28.8510705,41.4127079 29.0760405,41.2445063 29.2990911,41.0706729 C29.433075,40.9670487 29.5682106,40.8656773 29.6972037,40.7556704 C29.9287003,40.5600609 30.1471439,40.3494335 30.3640519,40.1365534 C30.4684749,40.0336801 30.5782725,39.9371894 30.6800082,39.8298107 C30.9817598,39.5095518 31.268923,39.1746505 31.536123,38.821352 C31.5414978,38.8134676 31.5487919,38.807085 31.5545506,38.7999514 C31.6505276,38.671923 31.7430494,38.5450208 31.8336517,38.4177434 C32.195677,38.3738156 32.5580862,38.3847038 32.9139689,38.4474038 C38.9705016,39.523819 41.1699105,41.1652863 41.1699105,42.0055433 C41.1699105,44.1298394 32.8636769,48.2109807 21.5,48.2109807 L21.5,48.2109807 Z" id="Shape"></path>
                </g>
            </g>
        </g>
    </g>
</svg>