<?xml version="1.0" encoding="UTF-8"?>
<svg width="88px" height="117px" viewBox="0 0 88 117" version="1.1" xmlns="http://www.w3.org/2000/svg" xmlns:xlink="http://www.w3.org/1999/xlink">
    <!-- Generator: sketchtool 58 (101010) - https://sketch.com -->
    <title>4C4FD823-4D3A-421D-A0FB-B1EC13736828</title>
    <desc>Created with sketchtool.</desc>
    <g id="Design" stroke="none" stroke-width="1" fill="none" fill-rule="evenodd">
        <g id="UI-Kit-module-6" transform="translate(-571.000000, -759.000000)" fill="#578B84" fill-rule="nonzero">
            <g id="atom/icons/130px/a-icon-teapot" transform="translate(550.000000, 752.000000)">
                <g id="004-blender" transform="translate(21.000000, 7.000000)">
                    <path d="M31,46 L23,46 C21.8946903,46 21,46.8938054 21,48 C21,49.1053099 21.8946903,50 23,50 L31,50 C32.1053099,50 33,49.1053099 33,48 C33,46.8938054 32.1053099,46 31,46 Z" id="Path"></path>
                    <path d="M23,59 L27,59 C28.1061948,59 29,58.1061948 29,57 C29,55.8938052 28.1061948,55 27,55 L23,55 C21.8938054,55 21,55.8938052 21,57 C21,58.1061948 21.8938054,59 23,59 Z" id="Path"></path>
                    <path d="M31,79 L23,79 C21.8946903,79 21,79.894003 21,81.0004425 C21,82.1059968 21.8946903,83 23,83 L31,83 C32.1053099,83 33,82.1059968 33,81.0004425 C32.9991151,79.894003 32.1053099,79 31,79 L31,79 Z" id="Path"></path>
                    <path d="M31,62 L23,62 C21.8946903,62 21,62.894003 21,64.0004425 C21,65.1059968 21.8946903,66 23,66 L31,66 C32.1053099,66 33,65.1059968 33,64.0004425 C32.9991151,62.894003 32.1053099,62 31,62 Z" id="Path"></path>
                    <path d="M23,74 L27,74 C28.1061948,74 29,73.1061946 29,72 C29,70.8938052 28.1061948,70 27,70 L23,70 C21.8938054,70 21,70.8938052 21,72 C21,73.1061946 21.8938054,74 23,74 Z" id="Path"></path>
                    <path d="M81.8963251,30.2584513 L75.2452197,30.2584513 L75.3856789,29.3104759 C75.523437,26.9119727 74.6833827,24.6286192 73.0185804,22.8790598 C71.5824748,21.370511 69.6979798,20.4930536 67.6532175,20.2672175 L67.6532175,16.1379003 C67.6532175,12.8012405 64.9142621,10.085853 61.5486427,10.085853 L57.4789262,10.085853 L57.4789262,6.05204734 C57.4798265,2.7153875 54.7408713,0 51.3752517,0 L26.9587533,0 C23.5931336,0 20.8541783,2.7153875 20.8541783,6.05204734 L20.8541783,10.0867456 L16.7853623,10.0867456 C13.4197426,10.0867456 10.6807875,12.8012405 10.6807875,16.1379003 L10.6807875,20.1725985 L6.13927192,20.1725985 C3.87211555,20.1725985 1.79674025,21.4035384 0.72708909,23.3878602 C-0.341661749,25.3686114 -0.225512587,27.763544 1.03141734,29.6336089 L8.70895565,41.049484 L13.4764666,86.6790643 C13.7852969,88.214392 14.4668843,89.5899386 15.378969,90.7762469 L10.6807875,90.7762469 C7.31516778,90.7762469 4.57621265,93.4907418 4.57621265,96.8274015 L4.57621265,117 L73.756892,117 L73.756892,96.8274015 C73.756892,93.4916344 71.018837,90.7762469 67.6532175,90.7762469 L64.3605285,90.7762469 C66.0982616,88.8472685 67.2075295,86.3702136 67.3596936,83.6628598 L67.7990789,80.6895014 L81.8954245,80.6895014 C85.2610442,80.6895014 88,77.9750062 88,74.6383466 L88,36.3096061 C88.0008997,32.973839 85.2619445,30.2584513 81.8963251,30.2584513 L81.8963251,30.2584513 Z M24.9238948,6.05204734 C24.9238948,4.93804216 25.8350793,4.03469822 26.9587533,4.03469822 L51.3752517,4.03469822 C52.4980253,4.03469822 53.4101099,4.93804216 53.4101099,6.05204734 L53.4101099,10.0867456 L24.9238948,10.0867456 L24.9238948,6.05204734 Z M14.750504,16.1379003 C14.750504,15.0247877 15.6616883,14.1205512 16.7853623,14.1205512 L61.549543,14.1205512 C62.6723166,14.1205512 63.5844013,15.0247877 63.5844013,16.1379003 L63.5844013,20.1725985 L14.750504,20.1725985 L14.750504,16.1379003 Z M67.6532175,94.8100526 C68.7759909,94.8100526 69.6880758,95.7133963 69.6880758,96.8274015 L69.6880758,112.965302 L8.64592919,112.965302 L8.64592919,96.8274015 C8.64592919,95.7133963 9.55711351,94.8100526 10.6807875,94.8100526 L67.6532175,94.8100526 Z M64.2470808,76.9529422 L63.6735389,80.6895014 L63.6960484,80.6895014 L63.3169886,83.2531415 C63.0729856,87.4708293 59.5470984,90.7753544 55.285601,90.7753544 L23.4832872,90.7753544 C20.5678576,90.7753544 18.0359897,88.7178366 17.4966622,86.0756449 L12.6544199,39.6400174 L4.41774581,27.3939941 C3.79738398,26.471905 4.13862796,25.6149779 4.31420208,25.2900598 C4.49067651,24.9651416 5.02009981,24.2064042 6.13657072,24.2064042 L66.6763055,24.2064042 C67.9683503,24.2064042 69.169457,24.718775 70.056331,25.6515758 C70.9432051,26.583484 71.3924946,27.8019271 71.3384718,28.9052209 L64.2470808,76.9529422 Z M83.9311831,74.637454 C83.9311831,75.7505666 83.019999,76.6548031 81.8963251,76.6548031 L68.4104368,76.6548031 L74.9255848,34.2931495 L81.8963251,34.2931495 C83.019999,34.2931495 83.9311831,35.1964937 83.9311831,36.3096061 L83.9311831,74.637454 Z" id="Shape"></path>
                    <path d="M19.9995574,96 C16.1400215,96 13,99.3643087 13,103.500474 C13,107.635691 16.1400215,111 19.9995574,111 C23.8599783,111 27,107.635691 27,103.500474 C27,99.3643087 23.8599783,96 19.9995574,96 Z M19.9995574,106.714963 C18.3454706,106.714963 17.0002528,105.27271 17.0002528,103.500474 C17.0002528,101.728238 18.3463556,100.285985 19.9995574,100.285985 C21.6536442,100.285985 22.9997472,101.728238 22.9997472,103.500474 C22.9997472,105.27271 21.6536442,106.714963 19.9995574,106.714963 Z" id="Shape"></path>
                    <path d="M52,103.500474 C52,107.635691 55.1400215,111 59.0004424,111 C62.8599785,111 66,107.635691 66,103.500474 C66,99.3643087 62.8599785,96 59.0004424,96 C55.1400215,96 52,99.3643087 52,103.500474 L52,103.500474 Z M59.0004424,100.285985 C60.6545294,100.285985 61.9997472,101.728238 61.9997472,103.500474 C61.9997472,105.27271 60.6536444,106.714015 59.0004424,106.714015 C57.3463556,106.714015 56.0002528,105.271762 56.0002528,103.500474 C56.0002528,101.728238 57.3463556,100.285985 59.0004424,100.285985 L59.0004424,100.285985 Z" id="Shape"></path>
                    <path d="M35,96 C33.8938054,96 33,96.9577092 33,98.1429926 L33,108.857007 C33,110.042291 33.8938054,111 35,111 C36.1061948,111 37,110.042291 37,108.857007 L37,98.1429926 C37,96.9577092 36.1061948,96 35,96 L35,96 Z" id="Path"></path>
                    <path d="M44,96 C42.8938054,96 42,96.9577092 42,98.1429926 L42,108.857007 C42,110.042291 42.8938054,111 44,111 C45.1061948,111 46,110.042291 46,108.857007 L46,98.1429926 C46,96.9577092 45.1061948,96 44,96 L44,96 Z" id="Path"></path>
                </g>
            </g>
        </g>
    </g>
</svg>