<?xml version="1.0" encoding="UTF-8"?>
<svg width="47px" height="50px" viewBox="0 0 47 50" version="1.1" xmlns="http://www.w3.org/2000/svg" xmlns:xlink="http://www.w3.org/1999/xlink">
    <!-- Generator: sketchtool 58 (101010) - https://sketch.com -->
    <title>D5AAFEB6-A4FE-4D4D-BC47-C465841DDB5E</title>
    <desc>Created with sketchtool.</desc>
    <g id="Design" stroke="none" stroke-width="1" fill="none" fill-rule="evenodd">
        <g id="UI-Kit-module-6" transform="translate(-242.000000, -354.000000)" fill="#FFFFFF" fill-rule="nonzero">
            <g id="atom/icons/70px/a-icon-butcher" transform="translate(230.000000, 344.000000)">
                <g id="butcher" transform="translate(12.000000, 10.000000)">
                    <path d="M44.5347494,2.54592891 L42.0072622,0 L25.3710639,16.7575836 L0,42.3130035 L5.53593171,47.1797943 L5.53479566,47.1805572 L6.14110476,47.7142334 L6.14451309,47.7153778 L8.10621281,49.4392395 C8.49022126,49.8130799 8.97458682,50 9.56953477,50 C10.7916207,50 12.4810304,49.2080688 14.7320619,47.5990295 C17.2853012,45.7736969 20.3812269,43.0011749 23.4498858,39.792633 C26.3045755,36.8064881 35.3855789,26.8501281 32.466509,23.97995 L30.3718834,21.8482971 L30.0541486,21.5240479 L30.0530125,21.5248107 L29.5326698,20.9953309 C31.1633799,20.6382752 33.7234359,19.8265076 36.1543531,18.0118561 C36.3433276,17.8508759 40.8150941,14.0399933 43.3297053,9.78240967 L43.3846177,9.67063906 C43.4258967,9.57908633 43.8345211,8.7856293 45.4216801,9.10301211 L45.7765281,9.17396543 L46.0741914,8.96911621 C46.1575068,8.91265869 46.8827297,8.38088984 46.9872527,7.25288389 C47.1144981,5.89561465 46.2885393,4.31251523 44.5347494,2.54592891 L44.5347494,2.54592891 Z M31.2667668,25.2170562 C31.4462737,25.3917694 31.498914,26.6036987 29.4402654,29.7683716 C27.7785012,32.3219299 25.2123859,35.4564667 22.213409,38.5921479 C19.2167044,41.7255401 16.2067451,44.4236756 13.7375787,46.1883545 C10.6802809,48.3753204 9.48243232,48.3673096 9.26656956,48.1651307 L8.45159315,47.4479676 C12.7904337,45.7984924 19.5749607,38.8465881 21.0958461,37.2505187 C22.5807543,35.6906891 29.043381,28.7380219 30.4658026,24.401474 L31.2531335,25.2025604 L31.2667668,25.2170562 Z M28.8320627,22.7405548 L29.0358068,22.9469299 C29.0873109,24.6139526 25.9929,29.6081543 19.855961,36.0523224 C13.772041,42.4407959 8.61481568,46.0716248 6.89548813,46.0800171 L6.76066861,45.9617615 L6.66523457,45.8778381 L2.51347508,42.2260284 L25.363111,19.2108154 L28.8320627,22.7405548 Z M45.2285397,7.32536318 C43.2017025,7.11593633 42.1447327,8.22410586 41.8251043,8.94813535 C39.4532655,12.9322052 35.0947323,16.6492462 35.0913239,16.6534424 C32.2699604,18.7599182 29.1437382,19.3500519 28.0829812,19.4961548 L26.5817886,17.9840088 L42.0072622,2.44636533 L43.3202377,3.76930234 C45.0755423,5.53741455 45.3031449,6.57539365 45.2826948,7.03659062 C45.2773929,7.15522764 45.2550492,7.25021367 45.2285397,7.32536318 Z" id="Shape"></path>
                    <path d="M32,17 C32,17.5523345 31.5523344,18 31,18 C30.4476655,18 30,17.5523345 30,17 C30,16.4476656 30.4476655,16 31,16 C31.5523344,16 32,16.4476656 32,17 Z" id="Path"></path>
                    <path d="M42,5.99984742 C42,6.55209764 41.5523344,7 41,7 C40.4476656,7 40,6.55209764 40,5.99984742 C40,5.44790236 40.4476656,5 41,5 C41.5523344,5 42,5.44790236 42,5.99984742 L42,5.99984742 Z" id="Path"></path>
                </g>
            </g>
        </g>
    </g>
</svg>