<?xml version="1.0" encoding="UTF-8"?>
<svg width="117px" height="117px" viewBox="0 0 117 117" version="1.1" xmlns="http://www.w3.org/2000/svg" xmlns:xlink="http://www.w3.org/1999/xlink">
    <!-- Generator: sketchtool 58 (101010) - https://sketch.com -->
    <title>5FF85002-BF95-4CD7-9B89-8ABB3EA79561</title>
    <desc>Created with sketchtool.</desc>
    <g id="Design" stroke="none" stroke-width="1" fill="none" fill-rule="evenodd">
        <g id="UI-Kit-module-6" transform="translate(-277.000000, -759.000000)" fill="#FF915E" fill-rule="nonzero">
            <g id="atom/icons/130px/a-icon-plate" transform="translate(270.000000, 752.000000)">
                <g id="005-dish" transform="translate(7.000000, 7.000000)">
                    <path d="M58.5,0 C26.2444839,0 0,26.2444839 0,58.5 C0,90.7555161 26.2444839,117 58.5,117 C90.7555161,117 117,90.7555161 117,58.5 C117,26.2444839 90.7564087,0 58.5,0 Z M58.5,112.745682 C28.5885544,112.745682 4.25431835,88.4114456 4.25431835,58.5 C4.25431835,28.5885544 28.5885544,4.25431835 58.5,4.25431835 C88.4114456,4.25431835 112.745682,28.5885544 112.745682,58.5 C112.745682,88.4123384 88.4114456,112.745682 58.5,112.745682 Z" id="Shape"></path>
                    <path d="M66.5017815,58.4745622 L51.7816573,70.2890375 C50.8683289,71.023325 50.7372118,72.3399482 51.4843989,73.2358492 C51.9082839,73.7391348 52.5225579,74 53.1404241,74 C53.6181927,74 54.0977574,73.8454132 54.4973949,73.5256995 L69.2175191,61.7112242 C70.1317455,60.9769369 70.2628624,59.6603137 69.5156753,58.7644127 C68.763998,57.872025 67.4178039,57.7420315 66.5017815,58.4745622 L66.5017815,58.4745622 Z" id="Path"></path>
                    <path d="M69.2183577,69.7112808 C70.1316686,68.9768917 70.2627832,67.6600863 69.5156104,66.7631829 C68.7639472,65.8741855 67.420473,65.7415386 66.5017737,66.4724139 L51.7819311,78.288524 C50.867722,79.0229131 50.7375056,80.3397185 51.4846784,81.2357435 C51.9085553,81.7382203 52.5228175,82 53.1406719,82 C53.6184315,82 54.0979872,81.8453918 54.4976168,81.5247554 L69.2183577,69.7112808 Z" id="Path"></path>
                    <path d="M76.4816212,65.4964623 L63.7863471,76.1099296 C62.8675389,76.8803955 62.7356351,78.2602384 63.4873052,79.1991574 C63.9137334,79.7256885 64.5316932,80 65.1541699,80 C65.6339015,80 66.1163437,79.83707 66.5183788,79.5020048 L79.2136529,68.8885376 C80.1324611,68.118992 80.2643649,66.7391493 79.5126948,65.8002303 C78.7547005,64.8677549 77.4031399,64.728758 76.4816212,65.4964623 L76.4816212,65.4964623 Z" id="Path"></path>
                    <path d="M74.5022712,76.4751499 L59.7819562,88.2882997 C58.8677177,89.0234377 58.7374972,90.340011 59.4846939,91.2358782 C59.9076864,91.7382664 60.5228664,92 61.1407406,92 C61.6185155,92 62.0971883,91.845419 62.497729,91.5248392 L77.218044,79.7116893 C78.1322823,78.9765514 78.2625028,77.659978 77.515306,76.7641111 C76.764517,75.8743919 75.4209997,75.7400119 74.5022712,76.4751499 L74.5022712,76.4751499 Z" id="Path"></path>
                    <path d="M15.6976064,51.0600882 C15.4871767,52.2148495 16.2457849,53.3232063 17.3898864,53.5355967 C17.5189735,53.5614763 17.6471765,53.5721851 17.7736112,53.5721851 C18.2855392,53.5721851 18.7550276,53.3615795 19.1299109,53.0403166 C20.5861202,54.622536 22.3181874,55.828164 24.1961406,56.606334 C24.2571475,56.6384603 24.298703,56.6893268 24.3623625,56.7152063 C24.4923338,56.7678577 24.6293783,56.7848133 24.760234,56.8321103 C25.044933,56.9365207 25.329632,57.0320072 25.6178679,57.115 C22.4322438,61.0174509 21.5684207,66.8465866 23.8796116,72.1358219 C26.2880604,77.6481567 31.4488951,81.0017835 36.6698527,81 C38.3090829,81 39.9562708,80.6698119 41.5238845,79.9728501 C48.0878792,77.0484661 50.854412,68.7777329 47.6900077,61.5386106 C46.1727912,58.0680797 43.5300407,55.3346685 40.247159,53.8461509 C39.6423946,53.5721851 39.0296724,53.3633641 38.4125297,53.1848848 C38.6521368,52.8912863 38.8820178,52.5869791 39.0968684,52.2701782 C39.1605279,52.1764766 39.217114,52.0792052 39.2798894,51.9828266 C39.5159598,51.610697 39.7352312,51.2233969 39.9377035,50.8236031 C40.0048996,50.6879588 40.0765164,50.5558841 40.1392917,50.4175626 C40.3629838,49.9303138 40.568993,49.4332489 40.7378671,48.9103045 C40.7378671,48.9076273 40.7405197,48.9031654 40.7405197,48.8995958 C40.7714653,48.8041093 40.7909167,48.7032685 40.8200939,48.6104592 C40.9571385,48.1589064 41.0694267,47.7019993 41.1596108,47.2406302 C41.1746417,47.1620993 41.2038189,47.087138 41.216197,47.008607 C41.2232703,46.979158 41.210008,46.9514937 41.2144288,46.9211523 C41.6193734,44.6035978 41.4611091,42.1914494 40.7467088,39.87568 C40.7422879,39.8560472 40.7467088,39.8390918 40.7405197,39.8221362 C40.7272572,39.7819784 40.70869,39.7436053 40.6954275,39.7034475 C40.5309741,39.1885344 40.3461847,38.6780835 40.1269134,38.1738794 C39.75203,37.3171785 39.3072983,36.5068823 38.7997911,35.7429907 C38.4098771,35.1557937 37.951883,34.6328491 37.4930045,34.1143667 C37.3577283,33.9608744 37.2525133,33.7841798 37.1092795,33.6378267 C37.1075113,33.6378267 37.1075113,33.6351497 37.1057429,33.6351497 C35.8352068,32.3126176 34.3427467,31.2390643 32.6831808,30.4840968 C32.244638,30.2841999 31.7999061,30.1137521 31.353406,29.9647217 C31.6805446,29.1927986 31.5408476,28.2700603 30.9237047,27.6364587 C30.1085104,26.7967134 28.7725464,26.7877894 27.9440897,27.6105793 C27.3817647,28.1683272 26.8530377,28.7608786 26.3198899,29.3525377 C25.0051459,29.4667645 23.71339,29.7924892 22.482641,30.3413133 C19.2651871,31.7745023 16.8576227,34.5096983 15.7064481,38.0418047 C14.6047862,41.430235 14.798417,45.1604534 16.2395957,48.5774406 C16.0459651,49.397553 15.8496817,50.220343 15.6976064,51.0600882 L15.6976064,51.0600882 Z M43.833307,63.2529049 C46.060503,68.3484901 44.26124,74.1026643 39.8262996,76.0784308 C35.3904748,78.0550896 29.962624,75.5153284 27.7380808,70.4197429 C25.512653,65.3241576 27.3101477,59.5673062 31.7450881,57.5933247 C32.7547976,57.1444493 33.8290506,56.92135 34.9254074,56.92135 C36.119906,56.92135 37.3400449,57.1899613 38.5195128,57.7253994 C40.8501554,58.7828895 42.7378344,60.7479472 43.833307,63.2529049 Z M19.7116873,39.3652291 C20.4826737,36.9950233 22.071507,35.1673948 24.1828782,34.2294858 C25.1466113,33.8020277 26.1704671,33.5914221 27.2128904,33.5726818 L27.2756657,33.5726818 C27.4869795,33.575359 27.6744214,33.6021308 27.8742411,33.6155168 C28.1836968,33.6342571 28.4940364,33.6645987 28.8034921,33.7199272 C29.0307208,33.760085 29.2606021,33.8109518 29.4904834,33.8707424 C29.9811915,34.0001399 30.4701313,34.1429234 30.9528819,34.3615605 C32.1182033,34.8916443 33.1712364,35.6466118 34.0713099,36.5800587 C34.0748466,36.5845208 34.0774991,36.5925524 34.0819199,36.5970143 C34.5346091,37.0690923 34.9457431,37.5813279 35.3100163,38.1283671 C35.67429,38.6789758 35.9943553,39.266173 36.2666763,39.8872811 C37.3603806,42.3877769 37.5248343,45.1104791 36.7343962,47.5556462 C36.7237863,47.5922346 36.705219,47.6243607 36.6946091,47.6600565 C36.5301557,48.1490902 36.3241465,48.6086743 36.0916129,49.0468412 C36.0226484,49.1789159 35.9510316,49.3065287 35.8749939,49.4314642 C35.6433444,49.8232262 35.3860541,50.1926786 35.1013551,50.5353589 C35.0527263,50.5933647 35.012939,50.6594021 34.9643104,50.7147306 C34.2118912,51.5669696 33.3020919,52.249653 32.2614369,52.7136993 C31.73271,52.9492921 31.1889523,53.110816 30.6390057,53.221473 C30.5373274,53.2428905 30.4347649,53.2473527 30.3330866,53.264308 C29.9139955,53.3303455 29.4904834,53.3624718 29.0669713,53.3599491 C28.9193169,53.3599491 28.7698939,53.3599491 28.6204711,53.3508707 C28.1165005,53.3214214 27.6125301,53.2598461 27.1174012,53.1411574 C27.0272169,53.1197399 26.9388012,53.0786895 26.8477328,53.0537026 C24.7788013,52.4834611 22.8610607,51.1395115 21.4499435,49.2128271 C21.3128989,49.0281009 21.1714335,48.8469443 21.0476512,48.6515094 C20.7505739,48.1874631 20.478253,47.6984297 20.2421825,47.1799472 L20.1493459,46.9862972 C19.0821662,44.5018647 18.9221335,41.7970101 19.7116873,39.3652291 Z" id="Shape"></path>
                    <path d="M62.5968616,98.0101074 C60.5140598,98.1700262 58.4025233,98.192641 56.3475294,98.0811824 C55.0998877,98.0238379 54.0811964,98.8242393 54.0042616,99.8822878 C53.9291806,100.945182 54.8551793,101.85785 56.0713057,101.924886 C57.0195506,101.972539 57.9733569,102 58.9345786,102 C60.2795477,102 61.644909,101.947501 62.9861703,101.843312 C64.2032235,101.749622 65.0995606,100.815955 64.9911103,99.7570988 C64.8835867,98.6990505 63.799084,97.9002642 62.5968616,98.0101074 L62.5968616,98.0101074 Z" id="Path"></path>
                    <path d="M92.8900851,39.8566088 C93.2924912,40.5883043 94.0383702,41 94.8081905,41 C95.17008,41 95.5365735,40.9092399 95.8745211,40.7174272 C96.9325639,40.1176614 97.3119492,38.7590656 96.7216921,37.684914 C95.6047156,35.6516987 94.3275132,33.6886585 92.9250768,31.8603552 C92.1791981,30.8881921 90.8007034,30.7141569 89.8467154,31.47018 C88.8899646,32.2280745 88.7186886,33.6287755 89.4627258,34.5981318 C90.7288781,36.2505288 91.8808466,38.0189489 92.8900851,39.8566088 Z" id="Path"></path>
                    <path d="M95.134239,44.77111 C95.8283614,46.5811323 96.3840163,48.4600753 96.7842309,50.3553867 C96.9879115,51.3288874 97.8758875,52 98.868384,52 C99.0068511,52 99.1515717,51.9853542 99.2945055,51.9569246 C100.446016,51.7329333 101.191058,50.6465753 100.957004,49.5360952 C100.512122,47.4357454 99.8966139,45.3500414 99.1256648,43.3418728 C98.7174102,42.2779141 97.489073,41.7317197 96.3902697,42.1305966 C95.2878928,42.5243045 94.7233044,43.7097356 95.134239,44.77111 L95.134239,44.77111 Z" id="Path"></path>
                    <path d="M73.1311196,95.1619837 C71.3404168,95.9015913 69.4698182,96.5126463 67.5740354,96.9745797 C66.46505,97.2436839 65.7859377,98.350953 66.06123,99.4453668 C66.2931009,100.376947 67.1398201,101 68.0690405,101 C68.2323053,101 68.3999123,100.981146 68.5657825,100.940866 C70.6699887,100.430082 72.7437999,99.7538938 74.730768,98.9311551 C75.7841737,98.4957893 76.2809157,97.2993901 75.8380162,96.2572544 C75.3994591,95.2176899 74.1845253,94.7189044 73.1311196,95.1619837 L73.1311196,95.1619837 Z" id="Path"></path>
                    <path d="M99.4972018,67.0700227 C98.419008,66.7746849 97.3188272,67.4411555 97.0363828,68.5501974 C96.5552122,70.4415802 95.9243631,72.307698 95.1683588,74.0954075 C94.723551,75.146079 95.1903456,76.370991 96.2127271,76.8275016 C96.4740305,76.9459853 96.7488644,77 97.014396,77 C97.7923869,77 98.5340154,76.5330349 98.8646614,75.7524366 C99.702693,73.7695775 100.400348,71.7013404 100.932257,69.6026112 C101.218084,68.4961829 100.572859,67.3601336 99.4972018,67.0700227 L99.4972018,67.0700227 Z" id="Path"></path>
                    <path d="M58.2119823,19.5435486 L58.256528,19.5435486 L58.548859,19.5416429 L58.5906206,19.5416429 C60.5543423,19.5416429 62.5310566,19.6874404 64.4706493,19.9752241 C64.5792293,19.9933295 64.6850254,20 64.7917493,20 C65.87291,20 66.8176494,19.1871546 66.9763434,18.0569849 C67.1535981,16.8143701 66.3155826,15.6632361 65.1054251,15.4831333 C62.9560965,15.1610446 60.7640783,15 58.5924765,15 C58.5767,15 58.5609234,15 58.5460749,15 L58.1674367,15.001906 C56.9442866,15.027635 55.9754185,16.0653708 56.0004753,17.3184679 C56.0227481,18.5563181 57.0092492,19.5435486 58.2119823,19.5435486 Z" id="Path"></path>
                    <path d="M85.4775499,29.4363477 C85.8801364,29.8138477 86.395622,30 86.9128581,30 C87.4651015,30 88.0182203,29.7852753 88.4286836,29.3540945 C89.2216037,28.5263656 89.1839708,27.2207011 88.3481663,26.4362634 C86.7667017,24.9574339 85.0609605,23.5894301 83.271201,22.3668848 C82.3224976,21.7192476 81.0228433,21.950423 80.3699533,22.891575 C79.7153127,23.8283978 79.9524885,25.1141482 80.8994419,25.7617857 C82.5115381,26.8674445 84.0536191,28.1012453 85.4775499,29.4363477 L85.4775499,29.4363477 Z" id="Path"></path>
                    <path d="M70.4813995,21.4273108 C72.3602668,22.0498123 74.2154065,22.8405317 75.9914545,23.7709575 C76.2867302,23.9249199 76.5969453,24 76.904524,24 C77.6813805,24 78.4292363,23.5314608 78.789543,22.7255353 C79.2939721,21.6021814 78.8607255,20.2450335 77.8202302,19.699513 C75.8534835,18.6635947 73.7953416,17.7901918 71.7090783,17.0992627 C70.6053097,16.7343153 69.4329951,17.4071871 69.0937795,18.6008692 C68.7519277,19.7936011 69.3741157,21.0576115 70.4813995,21.4273108 Z" id="Path"></path>
                    <path d="M101.956946,56.1050814 C101.909108,54.9232325 101.067157,54 100.060165,54 C100.029868,54 100.001165,54 99.9692731,54.001854 C98.9200244,54.0574702 98.1107633,55.0937895 98.1601961,56.312716 C98.1849123,56.9708434 98.2000611,57.6363867 98.2000611,58.3047105 C98.2000611,59.7321985 98.1378715,61.1633942 98.0103032,62.562147 C97.9018702,63.7764389 98.6616987,64.8609588 99.7053663,64.9898036 C99.7715423,64.9962922 99.8377184,65 99.9022998,65 C100.863845,65 101.688255,64.1546305 101.791107,63.0209825 C101.929837,61.4711384 102,59.8842167 102,58.3047105 C102,57.5668661 101.984851,56.8336563 101.956946,56.1050814 L101.956946,56.1050814 Z" id="Path"></path>
                    <path d="M95.0128158,79.3149407 C94.0253095,78.7133893 92.7189951,78.9991047 92.092923,79.9543578 C91.0325971,81.5808702 89.830184,83.1454202 88.5203172,84.6032571 C87.7521579,85.4569609 87.8454028,86.7530073 88.7281197,87.495695 C89.1286281,87.8339065 89.6232693,88 90.1161344,88 C90.7049085,88 91.2954585,87.7624776 91.7119517,87.2943174 C93.1639057,85.682435 94.4933094,83.9500703 95.6717455,82.1454163 C96.2978173,81.1893024 96.0012103,79.9216555 95.0128158,79.3149407 L95.0128158,79.3149407 Z" id="Path"></path>
                    <path d="M25.8123262,80.9203865 C25.1695763,79.967286 23.8744702,79.7133578 22.923445,80.3525265 C21.9680531,80.9908254 21.7121758,82.2778589 22.353179,83.2283504 C23.5600817,85.0215012 24.917192,86.7389953 26.3860851,88.3312642 C26.7965367,88.7765082 27.3580696,89 27.917856,89 C28.4217509,89 28.9273922,88.8199892 29.3264912,88.4530106 C30.171847,87.6781818 30.2303582,86.3667989 29.4513731,85.5250094 C28.1239549,84.0866627 26.9004596,82.538744 25.8123262,80.9203865 L25.8123262,80.9203865 Z" id="Path"></path>
                    <path d="M38.9892873,92.9449023 C37.3493835,91.923605 35.7611234,90.7591435 34.2786909,89.4788745 C33.4049785,88.7229319 32.1375877,88.8815979 31.4433589,89.8162673 C30.7457436,90.7527605 30.8871293,92.1214813 31.7566086,92.8692169 C33.3990521,94.286267 35.1557897,95.5793023 36.9717908,96.7091126 C37.2884268,96.9069889 37.6355413,97 37.9784226,97 C38.6768844,97 39.3550274,96.6088065 39.7283872,95.9139596 C40.2871565,94.8744248 39.956128,93.5449144 38.9892873,92.9449023 L38.9892873,92.9449023 Z" id="Path"></path>
                    <path d="M50.3799452,96.8535146 C48.4828245,96.4290919 46.6064469,95.8523352 44.8043985,95.142616 C43.7395909,94.7225962 42.5494609,95.2623701 42.1389225,96.3410374 C41.729248,97.4197048 42.2564662,98.6383787 43.3152236,99.0566376 C45.3151948,99.8456057 47.3938168,100.48312 49.4983673,100.95157 C49.6470257,100.985031 49.7948194,101 49.9417492,101 C50.889013,101 51.7420691,100.332547 51.9520919,99.3498589 C52.1949578,98.2210006 51.4905601,97.1000672 50.3799452,96.8535146 Z" id="Path"></path>
                    <path d="M22.8143387,75.0280476 C22.0299277,73.2496049 21.3717151,71.3932293 20.8528985,69.5062059 C20.5501867,68.3985099 19.4564652,67.7592864 18.4171823,68.0850278 C17.3754248,68.4063909 16.775775,69.5648745 17.0784868,70.6708188 C17.6525669,72.7636197 18.3833644,74.8231459 19.2502582,76.7977339 C19.5843135,77.5551704 20.2920156,78 21.0335358,78 C21.3123275,78 21.5952435,77.9369533 21.8641372,77.8038547 C22.8498064,77.3152425 23.2745927,76.0709455 22.8143387,75.0280476 Z" id="Path"></path>
                    <path d="M83.6446062,88.5033964 C82.184984,89.7997141 80.6142014,90.9912152 78.9733022,92.0438574 C78.0139022,92.6611088 77.7120586,93.9735518 78.3012092,94.979609 C78.6842852,95.6371742 79.3572334,96 80.0412977,96 C80.4038518,96 80.7706812,95.8969754 81.1033074,95.6855511 C82.9212083,94.52003 84.6612966,93.2013158 86.2791086,91.7661389 C87.1367543,91.0037575 87.2453495,89.6572714 86.5176761,88.7560304 C85.7900027,87.8565813 84.5082374,87.7437024 83.6446062,88.5033964 L83.6446062,88.5033964 Z" id="Path"></path>
                    <path d="M34.2023248,27 C34.6442173,27 35.09349,26.8618855 35.4800306,26.576197 C37.1710302,25.3360058 38.9579731,24.2225771 40.7984229,23.2642905 C41.8796294,22.700481 42.3104515,21.3429874 41.7615454,20.2314505 C41.2117168,19.1246438 39.8906522,18.6809749 38.8039106,19.2447842 C36.766039,20.3061837 34.7872097,21.539753 32.9190841,22.9123825 C31.9319756,23.6360641 31.7031879,25.0455872 32.4126145,26.0577952 C32.8443589,26.6707959 33.5168843,27 34.2023248,27 Z" id="Path"></path>
                    <path d="M17.9879683,65.9805195 C19.2545331,65.8237478 20.1467533,64.716141 19.9799469,63.5046383 C19.7442846,61.7513914 19.6220891,59.9564009 19.6220891,58.1697588 L19.6337267,57.2569573 C19.6589418,56.0343227 18.644526,55.025974 17.3711726,55 C16.1734638,55.0111317 15.0387922,55.9480518 15.0116379,57.1641929 L15,58.1697588 C15,60.1484229 15.1338332,62.1335807 15.3995598,64.0742115 C15.5498793,65.1883119 16.543929,66 17.6873288,66 C17.7872187,66 17.8861386,65.9935064 17.9879683,65.9805195 Z" id="Path"></path>
                    <path d="M46.0413079,21 C46.252062,21 46.463673,20.9646039 46.6761406,20.8891545 C48.4992502,20.2436428 50.3857572,19.7443726 52.2851154,19.4109046 C53.3980005,19.2134321 54.1527746,18.0723761 53.9737193,16.8651853 C53.7912368,15.6552001 52.7563137,14.8317768 51.6314346,15.0292493 C49.5264628,15.4018391 47.4317715,15.9523405 45.4081885,16.6714387 C44.3389964,17.0514802 43.7504267,18.3033817 44.1016838,19.470519 C44.3835461,20.4075823 45.1837266,21 46.0413079,21 Z" id="Path"></path>
                    <path d="M47.6234153,24.0511887 C40.9295296,26.997197 38.1096749,35.3341754 41.335329,42.6330794 C43.802589,48.2156526 49.1023284,51.6006384 54.3696039,51.6006384 C55.4264858,51.6006384 56.4815639,51.4486154 57.5131961,51.1652591 C60.2491855,55.4569857 64.8094684,58.0017973 69.4238578,58 C71.0957512,58 72.7757605,57.6671665 74.3746099,56.9646223 C81.071201,54.0168151 83.8910554,45.6798366 80.6635979,38.3827317 C79.1161499,34.8835034 76.4207403,32.1290983 73.0724449,30.6286581 C70.266117,29.3701953 67.2767284,29.1237202 64.4785166,29.8676433 C60.7397519,23.9468415 53.676138,21.3894365 47.6234153,24.0511887 Z M45.2688772,40.9032555 C42.9973026,35.7668563 44.8324175,29.9638946 49.3557275,27.9750017 C50.4135111,27.5090377 51.5199907,27.2886494 52.6246667,27.2886494 C55.6158587,27.2886494 58.5944259,28.90693 60.5476736,31.6874219 C60.5476736,31.6874219 60.5458699,31.6901206 60.5440665,31.6919198 C59.9741438,32.092217 59.4475064,32.5446877 58.953333,33.0331405 C58.9434134,33.043935 58.9325921,33.0547295 58.9217708,33.0655241 C57.514098,34.4760098 56.4238503,36.2256241 55.7583394,38.2451014 C54.8340188,41.0489816 54.8141796,44.0867433 55.6438138,46.9913726 C55.6609476,47.0534411 55.6654564,47.1137107 55.6852956,47.1757792 C51.5930345,47.8324466 47.2266337,45.3326123 45.2688772,40.9032555 L45.2688772,40.9032555 Z M71.3085704,34.5389781 C73.6856528,35.6040388 75.6127487,37.5848356 76.7282462,40.1125558 C79.0016243,45.2489548 77.1665094,51.0501174 72.640494,53.0417088 C68.1171839,55.0333002 62.5829827,52.4731967 60.3123098,47.3367977 C59.2545262,44.9467078 59.1210633,42.4207869 59.7054144,40.1899165 C59.7486996,40.027099 59.7658334,39.8570851 59.8172346,39.6969661 C59.9633225,39.2381985 60.1635167,38.8091159 60.3718271,38.3845309 C60.4304425,38.2693892 60.4683172,38.1380556 60.5314415,38.026512 C60.7695104,37.592032 61.0571771,37.1935337 61.3628794,36.8076292 C61.4251019,36.7275698 61.4719942,36.6358164 61.5387256,36.5602544 C61.8633651,36.1788475 62.2376023,35.842418 62.6280714,35.5275775 C62.6993118,35.4718057 62.755222,35.3989426 62.8282658,35.3449699 C63.298993,34.9887503 63.8103002,34.6829052 64.3666961,34.4337314 L64.4487578,34.3977496 C65.4650598,33.9560732 66.5480931,33.7329309 67.6482602,33.7329309 C68.8656584,33.7284885 70.1074043,33.9983516 71.3085704,34.5389781 Z" id="Shape"></path>
                </g>
            </g>
        </g>
    </g>
</svg>